{
.appVersion = "3091";
.formatVersion = 3;
DisplayStrings = (
"–",
O,
"1"
);
customParameters = (
{
name = vendorID;
value = LINO;
},
{
name = panose;
value = (
2,
11,
5,
4,
2,
2,
2,
2,
2,
4
);
},
{
name = unicodeRanges;
value = (
0,
1,
2,
3,
5,
7,
29,
31,
32,
33,
35,
36,
38,
42,
45,
60,
62
);
},
{
name = codePageRanges;
value = (
"1252",
"1250",
"1254",
"1257",
"bit 29"
);
},
{
name = fsType;
value = (
);
},
{
name = glyphOrder;
value = (
.notdef,
uni0000,
uni000D,
space,
exclam,
quotedbl,
numbersign,
dollar,
percent,
ampersand,
quotesingle,
parenleft,
parenright,
asterisk,
plus,
comma,
hyphen,
period,
slash,
zero,
one,
two,
three,
four,
five,
six,
seven,
eight,
nine,
colon,
semicolon,
less,
equal,
greater,
question,
at,
A,
B,
C,
D,
E,
F,
G,
H,
I,
J,
K,
L,
M,
N,
O,
P,
Q,
R,
S,
T,
U,
V,
W,
X,
Y,
Z,
bracketleft,
backslash,
bracketright,
asciicircum,
underscore,
grave,
a,
b,
c,
d,
e,
f,
g,
h,
i,
j,
k,
l,
m,
n,
o,
p,
q,
r,
s,
t,
u,
v,
w,
x,
y,
z,
braceleft,
bar,
braceright,
asciitilde,
uni00A0,
exclamdown,
cent,
sterling,
currency,
yen,
brokenbar,
section,
dieresis,
copyright,
ordfeminine,
guillemotleft,
logicalnot,
uni00AD,
registered,
macron,
degree,
plusminus,
twosuperior,
threesuperior,
acute,
mu,
paragraph,
periodcentered,
cedilla,
onesuperior,
ordmasculine,
guillemotright,
onequarter,
onehalf,
threequarters,
questiondown,
Agrave,
Aacute,
Acircumflex,
Atilde,
Adieresis,
Aring,
AE,
Ccedilla,
Egrave,
Eacute,
Ecircumflex,
Edieresis,
Igrave,
Iacute,
Icircumflex,
Idieresis,
Eth,
Ntilde,
Ograve,
Oacute,
Ocircumflex,
Otilde,
Odieresis,
multiply,
Oslash,
Ugrave,
Uacute,
Ucircumflex,
Udieresis,
Yacute,
Thorn,
germandbls,
agrave,
aacute,
acircumflex,
atilde,
adieresis,
aring,
ae,
ccedilla,
egrave,
eacute,
ecircumflex,
edieresis,
igrave,
iacute,
icircumflex,
idieresis,
eth,
ntilde,
ograve,
oacute,
ocircumflex,
otilde,
odieresis,
divide,
oslash,
ugrave,
uacute,
ucircumflex,
udieresis,
yacute,
thorn,
ydieresis,
Amacron,
amacron,
Abreve,
abreve,
Aogonek,
aogonek,
Cacute,

glyphs = (
{
glyphname = exclam;
layers = (
{
hints = (
{
horizontal = 1;
place = (0, 110);
place = (0, 110);
type = Stem;
},
{
horizontal = 1;
place = (744, -20);
target = down;
type = TopGhost;
},
{
place = (81, 101);
place = (81, 101);
type = Stem;
},
{
place = (78, 109);
place = (78, 109);
type = Stem;
}
);
layerId = m01;
shapes = (
{
closed = 1;
nodes = (
(107,216,l),
(158,216,l),
(182,511,l),
(182,744,l),
(81,744,l),
(81,511,l)
);
},
{
closed = 1;
nodes = (
(78,0,l),
(187,0,l),
(187,110,l),
(78,110,l)
);
}
);
width = 264;
}
);
note = exclam;
unicode = 33;
},
{
glyphname = quotedbl;
layers = (
{
hints = (
{
horizontal = 1;
place = (496, 248);
place = (496, 248);
type = Stem;
},
{
place = (53, 84);
place = (53, 84);
type = Stem;
},
{
place = (216, 84);
place = (216, 84);
type = Stem;
}
);
layerId = m01;
shapes = (
{
closed = 1;
nodes = (
(216,496,l),
(300,496,l),
(300,744,l),
(216,744,l)
);
},
{
closed = 1;
nodes = (
(53,496,l),
(137,496,l),
(137,744,l),
(53,744,l)
);
}
);
width = 353;
}
);
note = quotedbl;
unicode = 34;
},
{
glyphname = numbersign;
layers = (
{
hints = (
{
horizontal = 1;
place = (0, 21);
target = up;
type = BottomGhost;
},
{
horizontal = 1;
place = (203, 81);
place = (203, 81);
type = Stem;
},
{
horizontal = 1;
place = (439, 80);
place = (439, 80);
type = Stem;
},
{
place = (40, 542);
place = (40, 542);
type = Stem;
}
);
layerId = m01;
shapes = (
{
closed = 1;
nodes = (
(75,439,l),
(179,439,l),
(157,284,l),
(53,284,l),
(40,203,l),
(146,203,l),
(117,0,l),
(192,0,l),
(220,203,l),
(358,203,l),
(329,0,l),
(404,0,l),
(433,203,l),
(534,203,l),
(547,284,l),
(444,284,l),
(466,439,l),
(569,439,l),
(582,519,l),
(477,519,l),
(505,713,l),
(430,713,l),
(402,519,l),
(264,519,l),
(292,713,l),
(218,713,l),
(190,519,l),
(87,519,l)
);
},
{
closed = 1;
nodes = (
(253,439,l),
(391,439,l),
(369,284,l),
(232,284,l)
);
}
);
width = 622;
}
);
note = numbersign;
unicode = 35;
},
{
glyphname = dollar;
layers = (
{
hints = (
{
horizontal = 1;
place = (-5, 21);
target = up;
type = BottomGhost;
},
{
horizontal = 1;
place = (650, 74);
place = (650, 74);
type = Stem;
},
{
place = (66, 91);
place = (66, 91);
type = Stem;
},
{
place = (293, 59);
place = (293, 59);
type = Stem;
},
{
place = (499, 95);
place = (499, 95);
type = Stem;
},
{
horizontal = 1;
place = (-6, 21);
target = up;
type = BottomGhost;
},
{
horizontal = 1;
place = (-6, 77);
place = (-6, 77);
type = Stem;
}
);
layerId = m01;
shapes = (
{
closed = 1;
nodes = (
(293,-110,l),
(352,-110,l),
(352,-6,l),
(489,2,o),
(594,78,o),
(594,203,cs),
(594,344,o),
(489,378,o),
(352,408,c),
(352,649,l),
(431,640,o),
(476,601,o),
(484,537,c),
(578,537,l),
(563,645,o),
(492,713,o),
(352,724,c),
(352,797,l),
(293,797,l),
(293,724,l),
(158,719,o),
(66,647,o),
(66,529,cs),
(66,395,o),
(162,360,o),
(293,331,c),
(293,71,l),
(186,82,o),
(139,138,o),
(130,225,c),
(34,225,l),
(39,114,o),
(115,6,o),
(293,-5,c)
);
},
{
closed = 1;
nodes = (
(499,123,o),
(432,79,o),
(352,71,c),
(352,317,l),
(447,293,o),
(499,273,o),
(499,199,cs)
);
},
{
closed = 1;
nodes = (
(157,603,o),
(212,643,o),
(293,650,c),
(293,420,l),
(200,441,o),
(157,470,o),
(157,534,cs)
);
}
);
width = 640;
}
);
note = dollar;
unicode = 36;
},
{
glyphname = percent;
kernLeft = percent;
layers = (
{
hints = (
{
horizontal = 1;
place = (-15, 66);
place = (-15, 66);
type = Stem;
},
{
horizontal = 1;
place = (333, 64);
place = (333, 64);
type = Stem;
},
{
horizontal = 1;
place = (664, 65);
place = (664, 65);
type = Stem;
},
{
place = (37, 84);
place = (37, 84);
type = Stem;
},
{
place = (295, 82);
place = (295, 82);
type = Stem;
},
{
place = (519, 84);
place = (519, 84);
type = Stem;
},
{
place = (776, 83);
place = (776, 83);
type = Stem;
},
{
horizontal = 1;
place = (0, 21);
target = up;
type = BottomGhost;
},
{
horizontal = 1;
place = (316, 66);
place = (316, 66);
type = Stem;
}
);
layerId = m01;
shapes = (
{
closed = 1;
nodes = (
(307,316,o),
(377,397,o),
(377,523,cs),
(377,651,o),
(305,729,o),
(207,729,cs),
(111,729,o),
(37,648,o),
(37,523,cs),
(37,397,o),
(107,316,o),
(207,316,cs)
);
},
{
closed = 1;
nodes = (
(208,0,l),
(282,0,l),
(688,712,l),
(615,712,l)
);
},
{
closed = 1;
nodes = (
(789,-15,o),
(859,66,o),
(859,191,cs),
(859,320,o),
(787,397,o),
(689,397,cs),
(593,397,o),
(519,318,o),
(519,191,cs),
(519,66,o),
(589,-15,o),
(689,-15,cs)
);
},
{
closed = 1;
nodes = (
(151,382,o),
(121,443,o),
(121,523,cs),
(121,604,o),
(151,664,o),
(207,664,cs),
(263,664,o),
(295,602,o),
(295,523,cs),
(295,440,o),
(267,382,o),
(207,382,cs)
);
},
{
closed = 1;
nodes = (
(633,51,o),
(603,111,o),
(603,191,cs),
(603,274,o),
(633,333,o),
(689,333,cs),
(745,333,o),
(776,271,o),
(776,191,cs),
(776,108,o),
(749,51,o),
(689,51,cs)
);
}
);
width = 896;
}
);
note = percent;
unicode = 37;
},
{
glyphname = ampersand;
kernLeft = ampersand;
kernRight = ampersand;
layers = (
{
hints = (
{
horizontal = 1;
place = (-15, 82);
place = (-15, 82);
type = Stem;
},
{
horizontal = 1;
place = (681, 76);
place = (681, 76);
type = Stem;
},
{
place = (42, 96);
place = (42, 96);
type = Stem;
},
{
place = (384, 91);
place = (384, 91);
type = Stem;
},
{
place = (514, 81);
place = (514, 81);
type = Stem;
},
{
horizontal = 1;
place = (0, 21);
target = up;
type = BottomGhost;
},
{
place = (132, 89);
place = (132, 89);
type = Stem;
}
);
layerId = m01;
shapes = (
{
closed = 1;
nodes = (
(368,-15,o),
(437,17,o),
(489,73,c),
(491,71,l),
(547,0,l),
(661,0,l),
(543,147,l),
(578,211,o),
(594,285,o),
(595,365,c),
(514,365,l),
(513,309,o),
(503,260,o),
(486,217,c),
(446,268,o),
(359,376,o),
(333,407,c),
(409,453,o),
(475,501,o),
(475,595,cs),
(475,703,o),
(392,757,o),
(304,757,cs),
(205,757,o),
(132,689,o),
(132,601,cs),
(132,544,o),
(153,493,o),
(201,433,cs),
(212,418,l),
(116,362,o),
(42,305,o),
(42,193,cs),
(42,65,o),
(157,-15,o),
(280,-15,cs)
);
},
{
closed = 1;
nodes = (
(205,67,o),
(138,118,o),
(138,194,cs),
(138,271,o),
(189,317,o),
(257,362,c),
(437,137,l),
(397,93,o),
(345,67,o),
(285,67,cs)
);
},
{
closed = 1;
nodes = (
(221,648,o),
(256,681,o),
(304,681,cs),
(352,681,o),
(384,648,o),
(384,597,cs),
(384,541,o),
(353,503,o),
(289,462,c),
(275,480,ls),
(240,521,o),
(221,557,o),
(221,601,cs)
);
}
);
width = 660;
}
);
note = ampersand;
unicode = 38;
},
{
glyphname = quotesingle;
layers = (
{
hints = (
{
horizontal = 1;
place = (744, -20);
target = down;
type = TopGhost;
},
{
place = (53, 84);
place = (53, 84);
type = Stem;
},
{
horizontal = 1;
place = (496, 248);
place = (496, 248);
type = Stem;
}
);
layerId = m01;
shapes = (
{
closed = 1;
nodes = (
(53,496,l),
(137,496,l),
(137,744,l),
(53,744,l)
);
}
);
width = 190;
}
);
note = quotesingle;
unicode = 39;
},
{
glyphname = parenleft;
kernRight = parenleft;
layers = (
{
hints = (
{
horizontal = 1;
place = (-125, 909);
place = (-125, 909);
type = Stem;
},
{
place = (80, 107);
place = (80, 107);
type = Stem;
}
);
layerId = m01;
shapes = (
{
closed = 1;
nodes = (
(313,-125,l),
(233,17,o),
(187,159,o),
(187,344,cs),
(187,519,o),
(240,667,o),
(313,784,c),
(238,784,l),
(153,675,o),
(80,526,o),
(80,344,cs),
(80,149,o),
(147,3,o),
(238,-125,c)
);
}
);
width = 338;
}
);
note = parenleft;
unicode = 40;
},
{
glyphname = parenright;
kernLeft = parenright;
layers = (
{
hints = (
{
horizontal = 1;
place = (-125, 909);
place = (-125, 909);
type = Stem;
},
{
place = (153, 105);
place = (153, 105);
type = Stem;
}
);
layerId = m01;
shapes = (
{
closed = 1;
nodes = (
(102,-125,l),
(190,3,o),
(258,149,o),
(258,344,cs),
(258,526,o),
(185,674,o),
(102,784,c),
(25,784,l),
(101,667,o),
(153,519,o),
(153,344,cs),
(153,159,o),
(107,16,o),
(25,-125,c)
);
}
);
width = 338;
}
);
note = parenright;
unicode = 41;
},
{
glyphname = asterisk;
kernLeft = asterisk;
kernRight = asterisk;
layers = (
{
hints = (
{
horizontal = 1;
place = (744, -20);
target = down;
type = TopGhost;
},
{
place = (172, 64);
place = (172, 64);
type = Stem;
}
);
layerId = m01;
shapes = (
{
closed = 1;
nodes = (
(132,429,l),
(205,538,l),
(277,429,l),
(326,462,l),
(255,565,l),
(363,602,l),
(343,655,l),
(236,621,l),
(236,744,l),
(172,744,l),
(172,621,l),
(64,655,l),
(44,602,l),
(153,565,l),
(83,462,l)
);
}
);
width = 407;
}
);
note = asterisk;
unicode = 42;
},
{
glyphname = plus;
kernLeft = plus;
kernRight = plus;
layers = (
{
hints = (
{
horizontal = 1;
place = (303, 73);
place = (303, 73);
type = Stem;
},
{
place = (262, 77);
place = (262, 77);
type = Stem;
}
);
layerId = m01;
shapes = (
{
closed = 1;
nodes = (
(63,303,l),
(262,303,l),
(262,96,l),
(339,96,l),
(339,303,l),
(538,303,l),
(538,376,l),
(339,376,l),
(339,582,l),
(262,582,l),
(262,376,l),
(63,376,l)
);
}
);
width = 601;
}
);
note = plus;
unicode = 43;
},
{
glyphname = comma;
kernLeft = comma;
kernRight = comma;
layers = (
{
hints = (
{
horizontal = 1;
place = (0, 110);
place = (0, 110);
type = Stem;
},
{
place = (104, 58);
place = (104, 58);
type = Stem;
}
);
layerId = m01;
shapes = (
{
closed = 1;
nodes = (
(55,-155,l),
(126,-146,o),
(162,-97,o),
(162,-10,cs),
(162,110,l),
(54,110,l),
(54,0,l),
(104,0,l),
(104,-10,ls),
(104,-73,o),
(83,-94,o),
(55,-103,c)
);
}
);
width = 216;
}
);
note = comma;
unicode = 44;
},
{
glyphname = hyphen;
kernLeft = hyphen;
kernRight = hyphen;
layers = (
{
hints = (
{
horizontal = 1;
place = (243, 84);
place = (243, 84);
type = Stem;
},
{
place = (48, 278);
place = (48, 278);
type = Stem;
}
);
layerId = m01;
shapes = (
{
closed = 1;
nodes = (
(48,243,l),
(326,243,l),
(326,327,l),
(48,327,l)
);
}
);
width = 374;
}
);
note = hyphen;
unicode = 45;
},
{
glyphname = period;
kernLeft = comma;
kernRight = comma;
layers = (
{
hints = (
{
horizontal = 1;
place = (0, 110);
place = (0, 110);
type = Stem;
},
{
place = (54, 108);
place = (54, 108);
type = Stem;
}
);
layerId = m01;
shapes = (
{
closed = 1;
nodes = (
(54,0,l),
(162,0,l),
(162,110,l),
(54,110,l)
);
}
);
width = 216;
}
);
note = period;
unicode = 46;
},
{
glyphname = slash;
kernLeft = slash;
kernRight = slash;
layers = (
{
hints = (
{
horizontal = 1;
place = (-125, 908);
place = (-125, 908);
type = Stem;
},
{
place = (-23, 455);
place = (-23, 455);
type = Stem;
}
);
layerId = m01;
shapes = (
{
closed = 1;
nodes = (
(-23,-125,l),
(70,-125,l),
(432,783,l),
(338,783,l)
);
}
);
width = 438;
}
);
note = slash;
unicode = 47;
},
{
glyphname = zero;
kernLeft = zero;
kernRight = zero;
layers = (
{
hints = (
{
horizontal = 1;
place = (-16, 82);
place = (-16, 82);
type = Stem;
},
{
horizontal = 1;
place = (648, 81);
place = (648, 81);
type = Stem;
},
{
place = (53, 99);
place = (53, 99);
type = Stem;
},
{
place = (514, 100);
place = (514, 100);
type = Stem;
}
);
layerId = m01;
shapes = (
{
closed = 1;
nodes = (
(513,-16,o),
(614,130,o),
(614,357,cs),
(614,589,o),
(506,729,o),
(334,729,cs),
(163,729,o),
(53,586,o),
(53,357,cs),
(53,130,o),
(157,-16,o),
(333,-16,cs)
);
},
{
closed = 1;
nodes = (
(212,66,o),
(152,180,o),
(152,357,cs),
(152,536,o),
(212,648,o),
(334,648,cs),
(455,648,o),
(514,534,o),
(514,357,cs),
(514,177,o),
(458,66,o),
(334,66,cs)
);
}
);
width = 667;
}
);
note = zero;
unicode = 48;
},
{
glyphname = one;
kernLeft = one;
lastChange = "2023-07-28 18:50:37 +0000";
layers = (
{
hints = (
{
horizontal = 1;
place = (0, 21);
target = up;
type = BottomGhost;
},
{
horizontal = 1;
place = (513, 64);
place = (513, 64);
type = Stem;
},
{
place = (208, 97);
place = (208, 97);
type = Stem;
}
);
layerId = m01;
shapes = (
{
closed = 1;
nodes = (
(208,0,l),
(305,0,l),
(305,717,l),
(230,717,l),
(217,612,o),
(134,580,o),
(43,577,c),
(43,513,l),
(208,513,l)
);
},
{
closed = 1;
nodes = (
(443,422,o),
(465,422,o),
(481,406,c),
(557,331,o),
(557,210,o),
(481,137,c),
(345,0,l),
(269,-75,o),
(147,-75,o),
(75,0,c),
(0,72,o),
(0,194,o),
(75,270,c),
(131,327,l),
(131,292,o),
(136,265,o),
(147,236,c),
(131,219,l),
(87,172,o),
(87,103,o),
(131,56,c),
(178,12,o),
(247,12,o),
(294,56,c),
(427,189,l),
(471,236,o),
(471,306,o),
(427,352,c),
(411,368,o),
(411,390,o),
(427,406,c)
);
},
{
closed = 1;
nodes = (
(336,228,o),
(336,206,o),
(319,189,c),
(303,172,o),
(281,172,o),
(264,189,c),
(190,265,o),
(190,386,o),
(264,459,c),
(402,596,l),
(476,671,o),
(596,671,o),
(671,596,c),
(746,521,o),
(746,401,o),
(671,327,c),
(614,270,l),
(614,302,o),
(609,331,o),
(596,361,c),
(614,377,l),
(660,422,o),
(660,493,o),
(614,539,c),
(568,585,o),
(497,585,o),
(452,539,c),
(319,406,l),
(274,361,o),
(274,289,o),
(319,244,c)
);
}
);
width = 394;
}
);
note = one;
unicode = 49;
},
{
glyphname = two;
kernLeft = two;
kernRight = two;
layers = (
{
hints = (
{
horizontal = 1;
place = (0, 89);
place = (0, 89);
type = Stem;
},
{
horizontal = 1;
place = (648, 80);
place = (648, 80);
type = Stem;
},
{
place = (57, 99);
place = (57, 99);
type = Stem;
},
{
place = (453, 100);
place = (453, 100);
type = Stem;
}
);
layerId = m01;
shapes = (
{
closed = 1;
nodes = (
(540,0,l),
(540,89,l),
(158,89,l),
(160,97,ls),
(186,171,o),
(285,225,o),
(359,270,cs),
(466,331,o),
(553,377,o),
(553,509,cs),
(553,634,o),
(459,728,o),
(313,728,cs),
(234,728,o),
(167,704,o),
(123,657,cs),
(80,613,o),
(57,556,o),
(57,476,c),
(156,476,l),
(156,536,o),
(168,575,o),
(196,604,cs),
(222,633,o),
(258,648,o),
(305,648,cs),
(397,648,o),
(453,591,o),
(453,507,cs),
(453,425,o),
(401,389,o),
(312,338,cs),
(244,297,o),
(171,256,o),
(116,196,cs),
(73,147,o),
(44,87,o),
(40,0,c)
);
}
);
width = 598;
}
);
note = two;
unicode = 50;
},
{
glyphname = three;
kernLeft = three;
kernRight = three;
layers = (
{
hints = (
{
horizontal = 1;
place = (-16, 79);
place = (-16, 79);
type = Stem;
},
{
horizontal = 1;
place = (341, 74);
place = (341, 74);
type = Stem;
},
{
horizontal = 1;
place = (654, 75);
place = (654, 75);
type = Stem;
},
{
place = (51, 93);
place = (51, 93);
type = Stem;
},
{
place = (472, 99);
place = (472, 99);
type = Stem;
},
{
place = (452, 94);
place = (452, 94);
type = Stem;
}
);
layerId = m01;
shapes = (
{
closed = 1;
nodes = (
(458,-16,o),
(571,60,o),
(571,200,cs),
(571,292,o),
(528,354,o),
(428,381,c),
(428,384,l),
(499,407,o),
(546,453,o),
(546,533,cs),
(546,656,o),
(440,729,o),
(306,729,cs),
(147,729,o),
(51,633,o),
(51,500,c),
(144,500,l),
(144,589,o),
(204,654,o),
(303,654,cs),
(386,654,o),
(452,610,o),
(452,534,cs),
(452,459,o),
(398,415,o),
(291,415,cs),
(247,415,l),
(247,341,l),
(292,341,ls),
(408,341,o),
(472,296,o),
(472,208,cs),
(472,111,o),
(405,63,o),
(310,63,cs),
(194,63,o),
(125,126,o),
(122,231,c),
(28,231,l),
(29,151,o),
(60,91,o),
(112,48,cs),
(163,5,o),
(233,-16,o),
(313,-16,cs)
);
}
);
width = 613;
}
);
note = three;
unicode = 51;
},
{
glyphname = four;
kernLeft = four;
kernRight = four;
layers = (
{
hints = (
{
horizontal = 1;
place = (0, 21);
target = up;
type = BottomGhost;
},
{
horizontal = 1;
place = (173, 75);
place = (173, 75);
type = Stem;
},
{
place = (42, 78);
place = (42, 78);
type = Stem;
},
{
place = (387, 94);
place = (387, 94);
type = Stem;
}
);
layerId = m01;
shapes = (
{
closed = 1;
nodes = (
(387,0,l),
(481,0,l),
(481,173,l),
(597,173,l),
(597,248,l),
(481,248,l),
(481,720,l),
(402,720,l),
(42,259,l),
(42,173,l),
(387,173,l)
);
},
{
closed = 1;
nodes = (
(120,246,l),
(129,256,o),
(138,266,o),
(147,277,cs),
(162,296,o),
(181,315,o),
(196,334,cs),
(328,502,ls),
(343,521,o),
(358,543,o),
(370,562,cs),
(377,573,o),
(384,584,o),
(390,595,c),
(392,595,l),
(391,582,o),
(390,569,o),
(389,557,cs),
(388,534,o),
(387,509,o),
(387,490,cs),
(387,248,l),
(226,248,ls),
(205,248,o),
(179,247,o),
(158,246,cs),
(146,245,o),
(133,245,o),
(120,244,c)
);
}
);
width = 623;
}
);
note = four;
unicode = 52;
},
{
glyphname = five;
kernLeft = five;
kernRight = five;
layers = (
{
hints = (
{
horizontal = 1;
place = (-15, 83);
place = (-15, 83);
type = Stem;
},
{
horizontal = 1;
place = (399, 81);
place = (399, 81);
type = Stem;
},
{
horizontal = 1;
place = (628, 84);
place = (628, 84);
type = Stem;
},
{
place = (451, 98);
place = (451, 98);
type = Stem;
},
{
horizontal = 1;
place = (333, 83);
place = (333, 83);
type = Stem;
}
);
layerId = m01;
shapes = (
{
closed = 1;
nodes = (
(439,-15,o),
(549,80,o),
(549,233,cs),
(549,390,o),
(435,480,o),
(315,480,cs),
(242,480,o),
(190,457,o),
(150,416,c),
(148,416,l),
(194,628,l),
(506,628,l),
(506,712,l),
(126,712,l),
(49,333,l),
(141,333,l),
(168,368,o),
(217,399,o),
(297,399,cs),
(382,399,o),
(451,339,o),
(451,235,cs),
(451,134,o),
(389,68,o),
(289,68,cs),
(192,68,o),
(142,119,o),
(127,191,c),
(32,191,l),
(40,76,o),
(142,-15,o),
(291,-15,cs)
);
}
);
width = 590;
}
);
note = five;
unicode = 53;
},
{
glyphname = six;
kernLeft = six;
kernRight = six;
layers = (
{
hints = (
{
horizontal = 1;
place = (-16, 77);
place = (-16, 77);
type = Stem;
},
{
horizontal = 1;
place = (391, 78);
place = (391, 78);
type = Stem;
},
{
horizontal = 1;
place = (650, 79);
place = (650, 79);
type = Stem;
},
{
place = (53, 91);
place = (53, 91);
type = Stem;
},
{
place = (489, 90);
place = (489, 90);
type = Stem;
}
);
layerId = m01;
shapes = (
{
closed = 1;
nodes = (
(471,-16,o),
(579,94,o),
(579,229,cs),
(579,361,o),
(472,469,o),
(342,469,cs),
(255,469,o),
(193,436,o),
(146,357,c),
(144,357,l),
(149,541,o),
(200,650,o),
(334,650,cs),
(415,650,o),
(456,594,o),
(464,546,c),
(559,546,l),
(546,634,o),
(475,729,o),
(332,729,cs),
(240,729,o),
(171,693,o),
(124,629,cs),
(77,564,o),
(53,472,o),
(53,360,cs),
(53,216,o),
(77,120,o),
(152,52,cs),
(195,9,o),
(254,-16,o),
(334,-16,cs)
);
},
{
closed = 1;
nodes = (
(236,61,o),
(162,128,o),
(162,227,cs),
(162,327,o),
(229,391,o),
(329,391,cs),
(421,391,o),
(489,324,o),
(489,226,cs),
(489,127,o),
(422,61,o),
(332,61,cs)
);
}
);
width = 626;
}
);
note = six;
unicode = 54;
},
{
glyphname = seven;
kernLeft = seven;
kernRight = seven;
layers = (
{
hints = (
{
horizontal = 1;
place = (0, 21);
target = up;
type = BottomGhost;
},
{
horizontal = 1;
place = (627, 85);
place = (627, 85);
type = Stem;
},
{
place = (133, 102);
place = (133, 102);
type = Stem;
},
{
place = (440, 93);
place = (440, 93);
type = Stem;
}
);
layerId = m01;
shapes = (
{
closed = 1;
nodes = (
(235,0,l),
(248,279,o),
(389,507,o),
(533,635,c),
(533,712,l),
(32,712,l),
(32,627,l),
(309,627,ls),
(346,627,o),
(380,628,o),
(403,629,cs),
(416,630,o),
(429,630,o),
(440,631,c),
(440,629,l),
(279,498,o),
(149,251,o),
(133,0,c)
);
}
);
width = 555;
}
);
note = seven;
unicode = 55;
},
{
glyphname = eight;
kernLeft = eight;
kernRight = eight;
layers = (
{
hints = (
{
horizontal = 1;
place = (-16, 79);
place = (-16, 79);
type = Stem;
},
{
horizontal = 1;
place = (352, 73);
place = (352, 73);
type = Stem;
},
{
horizontal = 1;
place = (652, 78);
place = (652, 78);
type = Stem;
},
{
place = (77, 93);
place = (77, 93);
type = Stem;
},
{
place = (490, 96);
place = (490, 96);
type = Stem;
},
{
place = (41, 99);
place = (41, 99);
type = Stem;
},
{
place = (458, 94);
place = (458, 94);
type = Stem;
}
);
layerId = m01;
shapes = (
{
closed = 1;
nodes = (
(453,-16,o),
(586,45,o),
(586,204,cs),
(586,300,o),
(525,366,o),
(433,389,c),
(433,392,l),
(509,416,o),
(552,470,o),
(552,543,cs),
(552,658,o),
(450,730,o),
(314,730,cs),
(180,730,o),
(77,656,o),
(77,542,cs),
(77,469,o),
(120,415,o),
(197,392,c),
(197,389,l),
(106,365,o),
(41,304,o),
(41,204,cs),
(41,46,o),
(181,-16,o),
(317,-16,cs)
);
},
{
closed = 1;
nodes = (
(225,425,o),
(170,467,o),
(170,539,cs),
(170,611,o),
(225,652,o),
(314,652,cs),
(403,652,o),
(458,611,o),
(458,539,cs),
(458,467,o),
(403,425,o),
(314,425,cs)
);
},
{
closed = 1;
nodes = (
(205,63,o),
(140,114,o),
(140,205,cs),
(140,296,o),
(205,352,o),
(314,352,cs),
(425,352,o),
(490,296,o),
(490,205,cs),
(490,116,o),
(425,63,o),
(317,63,cs)
);
}
);
width = 628;
}
);
note = eight;
unicode = 56;
},
{
glyphname = nine;
kernLeft = nine;
kernRight = nine;
layers = (
{
hints = (
{
horizontal = 1;
place = (-16, 79);
place = (-16, 79);
type = Stem;
},
{
horizontal = 1;
place = (243, 78);
place = (243, 78);
type = Stem;
},
{
horizontal = 1;
place = (652, 77);
place = (652, 77);
type = Stem;
},
{
place = (48, 90);
place = (48, 90);
type = Stem;
},
{
place = (485, 91);
place = (485, 91);
type = Stem;
}
);
layerId = m01;
shapes = (
{
closed = 1;
nodes = (
(376,-16,o),
(434,4,o),
(478,45,cs),
(547,108,o),
(576,211,o),
(576,354,cs),
(576,511,o),
(550,611,o),
(469,674,cs),
(426,706,o),
(373,729,o),
(301,729,cs),
(154,729,o),
(48,621,o),
(48,485,cs),
(48,352,o),
(156,243,o),
(287,243,cs),
(371,243,o),
(436,280,o),
(483,344,c),
(485,344,l),
(481,231,o),
(463,156,o),
(422,111,cs),
(394,79,o),
(354,63,o),
(303,63,cs),
(213,63,o),
(163,117,o),
(155,176,c),
(58,176,l),
(66,71,o),
(164,-16,o),
(305,-16,cs)
);
},
{
closed = 1;
nodes = (
(209,321,o),
(138,391,o),
(138,487,cs),
(138,585,o),
(205,652,o),
(301,652,cs),
(395,652,o),
(470,585,o),
(470,487,cs),
(470,388,o),
(404,321,o),
(300,321,cs)
);
}
);
width = 626;
}
);
note = nine;
unicode = 57;
},
{
glyphname = colon;
kernLeft = colon;
kernRight = colon;
layers = (
{
hints = (
{
horizontal = 1;
place = (0, 110);
place = (0, 110);
type = Stem;
},
{
horizontal = 1;
place = (316, 110);
place = (316, 110);
type = Stem;
},
{
place = (57, 108);
place = (57, 108);
type = Stem;
}
);
layerId = m01;
shapes = (
{
closed = 1;
nodes = (
(57,316,l),
(165,316,l),
(165,426,l),
(57,426,l)
);
},
{
closed = 1;
nodes = (
(57,0,l),
(165,0,l),
(165,110,l),
(57,110,l)
);
}
);
width = 222;
}
);
note = colon;
unicode = 58;
},
{
glyphname = semicolon;
kernLeft = colon;
kernRight = colon;
layers = (
{
hints = (
{
horizontal = 1;
place = (0, 110);
place = (0, 110);
type = Stem;
},
{
horizontal = 1;
place = (316, 110);
place = (316, 110);
type = Stem;
},
{
place = (57, 108);
place = (57, 108);
type = Stem;
}
);
layerId = m01;
shapes = (
{
closed = 1;
nodes = (
(57,316,l),
(165,316,l),
(165,426,l),
(57,426,l)
);
},
{
closed = 1;
nodes = (
(58,-155,l),
(129,-146,o),
(165,-97,o),
(165,-10,cs),
(165,110,l),
(57,110,l),
(57,0,l),
(107,0,l),
(107,-10,ls),
(107,-73,o),
(86,-94,o),
(58,-103,c)
);
}
);
width = 222;
}
);
note = semicolon;
unicode = 59;
},
{
glyphname = less;
layers = (
{
hints = (
{
horizontal = 1;
place = (550, -20);
target = down;
type = TopGhost;
},
{
place = (60, 61);
place = (60, 61);
type = Stem;
}
);
layerId = m01;
shapes = (
{
closed = 1;
nodes = (
(484,97,l),
(484,182,l),
(255,275,ls),
(228,286,o),
(195,298,o),
(168,307,cs),
(152,312,o),
(136,318,o),
(121,323,c),
(121,325,l),
(136,330,o),
(152,336,o),
(168,342,cs),
(195,353,o),
(228,363,o),
(255,374,cs),
(484,467,l),
(484,550,l),
(60,370,l),
(60,277,l)
);
}
);
width = 548;
}
);
note = less;
unicode = 60;
},
{
glyphname = equal;
layers = (
{
hints = (
{
horizontal = 1;
place = (196, 73);
place = (196, 73);
type = Stem;
},
{
horizontal = 1;
place = (382, 73);
place = (382, 73);
type = Stem;
},
{
place = (64, 473);
place = (64, 473);
type = Stem;
}
);
layerId = m01;
shapes = (
{
closed = 1;
nodes = (
(64,382,l),
(537,382,l),
(537,455,l),
(64,455,l)
);
},
{
closed = 1;
nodes = (
(64,196,l),
(537,196,l),
(537,269,l),
(64,269,l)
);
}
);
width = 601;
}
);
note = equal;
unicode = 61;
},
{
glyphname = greater;
layers = (
{
hints = (
{
horizontal = 1;
place = (550, -20);
target = down;
type = TopGhost;
},
{
place = (427, 61);
place = (427, 61);
type = Stem;
}
);
layerId = m01;
shapes = (
{
closed = 1;
nodes = (
(64,550,l),
(64,465,l),
(294,372,ls),
(319,361,o),
(353,349,o),
(380,340,cs),
(396,335,o),
(412,329,o),
(427,324,c),
(427,322,l),
(412,317,o),
(396,311,o),
(380,305,cs),
(353,294,o),
(319,284,o),
(294,273,cs),
(64,181,l),
(64,97,l),
(488,277,l),
(488,370,l)
);
}
);
width = 548;
}
);
note = greater;
unicode = 62;
},
{
glyphname = question;
kernLeft = question;
layers = (
{
hints = (
{
horizontal = 1;
place = (0, 110);
place = (0, 110);
type = Stem;
},
{
horizontal = 1;
place = (675, 82);
place = (675, 82);
type = Stem;
},
{
place = (26, 94);
place = (26, 94);
type = Stem;
},
{
place = (204, 109);
place = (204, 109);
type = Stem;
},
{
place = (410, 98);
place = (410, 98);
type = Stem;
},
{
place = (215, 87);
place = (215, 87);
type = Stem;
}
);
layerId = m01;
shapes = (
{
closed = 1;
nodes = (
(204,0,l),
(313,0,l),
(313,110,l),
(204,110,l)
);
},
{
closed = 1;
nodes = (
(302,216,l),
(303,260,o),
(307,287,o),
(326,312,cs),
(345,336,o),
(371,360,o),
(414,396,cs),
(462,436,o),
(508,483,o),
(508,565,cs),
(508,673,o),
(420,757,o),
(279,757,cs),
(107,757,o),
(29,637,o),
(26,516,c),
(120,516,l),
(123,607,o),
(175,675,o),
(279,675,cs),
(363,675,o),
(410,627,o),
(410,563,cs),
(410,499,o),
(367,466,o),
(321,426,cs),
(246,361,o),
(215,315,o),
(215,216,c)
);
}
);
width = 547;
}
);
note = question;
unicode = 63;
},
{
glyphname = at;
kernLeft = at;
kernRight = at;
layers = (
{
hints = (
{
horizontal = 1;
place = (-110, 66);
place = (-110, 66);
type = Stem;
},
{
horizontal = 1;
place = (95, 68);
place = (95, 68);
type = Stem;
},
{
horizontal = 1;
place = (458, 68);
place = (458, 68);
type = Stem;
},
{
horizontal = 1;
place = (673, 68);
place = (673, 68);
type = Stem;
},
{
place = (43, 77);
place = (43, 77);
type = Stem;
},
{
place = (263, 91);
place = (263, 91);
type = Stem;
},
{
place = (817, 75);
place = (817, 75);
type = Stem;
},
{
horizontal = 1;
place = (99, 68);
place = (99, 68);
type = Stem;
}
);
layerId = m01;
shapes = (
{
closed = 1;
nodes = (
(490,95,o),
(539,126,o),
(570,178,c),
(571,178,l),
(586,129,o),
(630,99,o),
(691,99,cs),
(808,99,o),
(892,191,o),
(892,356,cs),
(892,609,o),
(693,741,o),
(486,741,cs),
(263,741,o),
(43,581,o),
(43,296,cs),
(43,51,o),
(215,-110,o),
(461,-110,cs),
(538,-110,o),
(608,-98,o),
(680,-65,c),
(655,-7,l),
(594,-32,o),
(528,-44,o),
(457,-44,cs),
(240,-44,o),
(120,100,o),
(120,295,cs),
(120,533,o),
(289,673,o),
(484,673,cs),
(672,673,o),
(817,570,o),
(817,354,cs),
(817,214,o),
(754,167,o),
(696,167,cs),
(657,167,o),
(639,195,o),
(646,246,cs),
(679,517,l),
(591,517,l),
(584,457,l),
(582,457,l),
(562,497,o),
(523,526,o),
(463,526,cs),
(351,526,o),
(263,429,o),
(263,281,cs),
(263,171,o),
(328,95,o),
(430,95,cs)
);
},
{
closed = 1;
nodes = (
(380,163,o),
(354,214,o),
(354,283,cs),
(354,382,o),
(391,458,o),
(471,458,cs),
(535,458,o),
(569,413,o),
(569,341,cs),
(569,240,o),
(526,163,o),
(443,163,cs)
);
}
);
width = 935;
}
);
note = at;
unicode = 64;
},
{
glyphname = A;
kernLeft = A;
kernRight = A;
layers = (
{
hints = (
{
horizontal = 1;
place = (0, 21);
target = up;
type = BottomGhost;
},
{
horizontal = 1;
place = (217, 80);
place = (217, 80);
type = Stem;
},
{
horizontal = 1;
place = (663, 81);
place = (663, 81);
type = Stem;
},
{
place = (19, 660);
place = (19, 660);
type = Stem;
}
);
layerId = m01;
shapes = (
{
closed = 1;
nodes = (
(19,0,l),
(124,0,l),
(200,217,l),
(493,217,l),
(567,0,l),
(679,0,l),
(405,744,l),
(291,744,l)
);
},
{
closed = 1;
nodes = (
(301,505,ls),
(313,540,o),
(324,579,o),
(333,610,cs),
(338,628,o),
(342,646,o),
(347,663,c),
(350,663,l),
(354,646,o),
(358,628,o),
(363,611,cs),
(371,580,o),
(382,541,o),
(395,505,cs),
(466,297,l),
(228,297,l)
);
}
);
width = 698;
}
);
note = A;
unicode = 65;
},
{
glyphname = B;
layers = (
{
hints = (
{
horizontal = 1;
place = (0, 90);
place = (0, 90);
type = Stem;
},
{
horizontal = 1;
place = (344, 83);
place = (344, 83);
type = Stem;
},
{
horizontal = 1;
place = (656, 88);
place = (656, 88);
type = Stem;
},
{
place = (77, 102);
place = (77, 102);
type = Stem;
},
{
place = (522, 103);
place = (522, 103);
type = Stem;
},
{
place = (551, 104);
place = (551, 104);
type = Stem;
}
);
layerId = m01;
shapes = (
{
closed = 1;
nodes = (
(77,0,l),
(412,0,ls),
(492,0,o),
(555,25,o),
(598,69,cs),
(634,105,o),
(655,154,o),
(655,214,cs),
(655,313,o),
(590,372,o),
(499,393,c),
(499,396,l),
(579,419,o),
(625,471,o),
(625,552,cs),
(625,607,o),
(606,649,o),
(575,681,cs),
(533,723,o),
(474,744,o),
(397,744,cs),
(77,744,l)
);
},
{
closed = 1;
nodes = (
(179,427,l),
(179,656,l),
(395,656,ls),
(475,656,o),
(522,616,o),
(522,545,cs),
(522,469,o),
(471,427,o),
(383,427,cs)
);
},
{
closed = 1;
nodes = (
(179,90,l),
(179,344,l),
(400,344,ls),
(488,344,o),
(551,300,o),
(551,211,cs),
(551,176,o),
(540,148,o),
(518,127,cs),
(493,102,o),
(456,90,o),
(406,90,cs)
);
}
);
width = 691;
}
);
note = B;
unicode = 66;
},
{
glyphname = C;
kernLeft = C;
kernRight = C;
layers = (
{
hints = (
{
horizontal = 1;
place = (-15, 89);
place = (-15, 89);
type = Stem;
},
{
horizontal = 1;
place = (671, 89);
place = (671, 89);
type = Stem;
},
{
place = (49, 104);
place = (49, 104);
type = Stem;
}
);
layerId = m01;
shapes = (
{
closed = 1;
nodes = (
(496,-15,o),
(570,11,o),
(623,64,cs),
(676,114,o),
(712,198,o),
(712,271,c),
(610,271,l),
(602,165,o),
(535,74,o),
(401,74,cs),
(251,74,o),
(153,193,o),
(153,372,cs),
(153,544,o),
(243,671,o),
(400,671,cs),
(515,671,o),
(585,611,o),
(602,519,c),
(704,519,l),
(693,591,o),
(662,651,o),
(609,694,cs),
(558,735,o),
(490,760,o),
(402,760,cs),
(181,760,o),
(49,591,o),
(49,372,cs),
(49,148,o),
(187,-15,o),
(399,-15,cs)
);
}
);
width = 756;
}
);
note = C;
unicode = 67;
},
{
glyphname = D;
kernRight = D;
layers = (
{
hints = (
{
horizontal = 1;
place = (0, 89);
place = (0, 89);
type = Stem;
},
{
horizontal = 1;
place = (655, 89);
place = (655, 89);
type = Stem;
},
{
place = (77, 103);
place = (77, 103);
type = Stem;
},
{
place = (578, 106);
place = (578, 106);
type = Stem;
}
);
layerId = m01;
shapes = (
{
closed = 1;
nodes = (
(77,0,l),
(345,0,ls),
(568,0,o),
(684,148,o),
(684,369,cs),
(684,593,o),
(574,744,o),
(352,744,cs),
(77,744,l)
);
},
{
closed = 1;
nodes = (
(180,89,l),
(180,655,l),
(347,655,ls),
(515,655,o),
(578,541,o),
(578,369,cs),
(578,197,o),
(509,89,o),
(341,89,cs)
);
}
);
width = 732;
}
);
note = D;
unicode = 68;
},
{
glyphname = E;
kernRight = E;
layers = (
{
hints = (
{
horizontal = 1;
place = (0, 93);
place = (0, 93);
type = Stem;
},
{
horizontal = 1;
place = (344, 85);
place = (344, 85);
type = Stem;
},
{
horizontal = 1;
place = (654, 90);
place = (654, 90);
type = Stem;
},
{
place = (77, 102);
place = (77, 102);
type = Stem;
}
);
layerId = m01;
shapes = (
{
closed = 1;
nodes = (
(77,0,l),
(617,0,l),
(617,93,l),
(179,93,l),
(179,344,l),
(565,344,l),
(565,429,l),
(179,429,l),
(179,654,l),
(606,654,l),
(606,744,l),
(77,744,l)
);
}
);
width = 666;
}
);
note = E;
unicode = 69;
},
{
glyphname = F;
kernRight = F;
layers = (
{
hints = (
{
horizontal = 1;
place = (0, 21);
target = up;
type = BottomGhost;
},
{
horizontal = 1;
place = (344, 87);
place = (344, 87);
type = Stem;
},
{
horizontal = 1;
place = (654, 90);
place = (654, 90);
type = Stem;
},
{
place = (77, 102);
place = (77, 102);
type = Stem;
}
);
layerId = m01;
shapes = (
{
closed = 1;
nodes = (
(77,0,l),
(179,0,l),
(179,344,l),
(518,344,l),
(518,431,l),
(179,431,l),
(179,654,l),
(586,654,l),
(586,744,l),
(77,744,l)
);
}
);
width = 622;
}
);
note = F;
unicode = 70;
},
{
glyphname = G;
kernLeft = C;
kernRight = G;
layers = (
{
hints = (
{
horizontal = 1;
place = (-16, 89);
place = (-16, 89);
type = Stem;
},
{
horizontal = 1;
place = (307, 87);
place = (307, 87);
type = Stem;
},
{
horizontal = 1;
place = (671, 88);
place = (671, 88);
type = Stem;
},
{
place = (49, 104);
place = (49, 104);
type = Stem;
},
{
place = (622, 101);
place = (622, 101);
type = Stem;
},
{
horizontal = 1;
place = (0, 21);
target = up;
type = BottomGhost;
}
);
layerId = m01;
shapes = (
{
closed = 1;
nodes = (
(658,0,l),
(723,0,l),
(723,394,l),
(406,394,l),
(406,307,l),
(622,307,l),
(622,291,ls),
(622,174,o),
(551,73,o),
(403,73,cs),
(256,73,o),
(153,193,o),
(153,369,cs),
(153,541,o),
(232,671,o),
(406,671,cs),
(521,671,o),
(582,612,o),
(605,528,c),
(711,528,l),
(682,664,o),
(583,759,o),
(407,759,cs),
(291,759,o),
(204,718,o),
(144,650,cs),
(81,579,o),
(49,482,o),
(49,369,cs),
(49,256,o),
(83,160,o),
(146,92,cs),
(207,24,o),
(294,-16,o),
(398,-16,cs),
(495,-16,o),
(575,24,o),
(628,105,c),
(631,105,l)
);
}
);
width = 781;
}
);
note = G;
unicode = 71;
},
{
glyphname = H;
layers = (
{
hints = (
{
horizontal = 1;
place = (0, 21);
target = up;
type = BottomGhost;
},
{
horizontal = 1;
place = (348, 83);
place = (348, 83);
type = Stem;
},
{
horizontal = 1;
place = (744, -20);
target = down;
type = TopGhost;
},
{
place = (77, 102);
place = (77, 102);
type = Stem;
},
{
place = (563, 103);
place = (563, 103);
type = Stem;
}
);
layerId = m01;
shapes = (
{
closed = 1;
nodes = (
(77,0,l),
(179,0,l),
(179,348,l),
(563,348,l),
(563,0,l),
(666,0,l),
(666,744,l),
(563,744,l),
(563,431,l),
(179,431,l),
(179,744,l),
(77,744,l)
);
}
);
width = 743;
}
);
note = H;
unicode = 72;
},
{
glyphname = I;
layers = (
{
hints = (
{
horizontal = 1;
place = (0, 21);
target = up;
type = BottomGhost;
},
{
horizontal = 1;
place = (744, -20);
target = down;
type = TopGhost;
},
{
place = (79, 102);
place = (79, 102);
type = Stem;
}
);
layerId = m01;
shapes = (
{
closed = 1;
nodes = (
(79,0,l),
(181,0,l),
(181,744,l),
(79,744,l)
);
}
);
width = 260;
}
);
note = I;
unicode = 73;
},
{
glyphname = J;
kernLeft = J;
kernRight = J;
layers = (
{
hints = (
{
horizontal = 1;
place = (-15, 85);
place = (-15, 85);
type = Stem;
},
{
horizontal = 1;
place = (744, -20);
target = down;
type = TopGhost;
},
{
place = (31, 100);
place = (31, 100);
type = Stem;
},
{
place = (370, 102);
place = (370, 102);
type = Stem;
}
);
layerId = m01;
shapes = (
{
closed = 1;
nodes = (
(329,-15,o),
(383,8,o),
(419,45,cs),
(455,81,o),
(472,131,o),
(472,191,cs),
(472,744,l),
(370,744,l),
(370,197,ls),
(370,108,o),
(328,70,o),
(255,70,cs),
(171,70,o),
(131,108,o),
(131,233,cs),
(131,246,l),
(31,246,l),
(31,230,ls),
(31,59,o),
(115,-15,o),
(254,-15,cs)
);
}
);
width = 539;
}
);
note = J;
unicode = 74;
},
{
glyphname = K;
kernRight = K;
layers = (
{
hints = (
{
horizontal = 1;
place = (0, 21);
target = up;
type = BottomGhost;
},
{
horizontal = 1;
place = (745, -20);
target = down;
type = TopGhost;
},
{
place = (77, 102);
place = (77, 102);
type = Stem;
},
{
horizontal = 1;
place = (744, -20);
target = down;
type = TopGhost;
}
);
layerId = m01;
shapes = (
{
closed = 1;
nodes = (
(77,0,l),
(179,0,l),
(179,269,l),
(292,380,l),
(567,0,l),
(686,0,l),
(363,446,l),
(662,745,l),
(534,745,l),
(175,377,l),
(178,413,o),
(179,463,o),
(179,514,cs),
(179,744,l),
(77,744,l)
);
}
);
width = 686;
}
);
note = K;
unicode = 75;
},
{
glyphname = L;
kernRight = L;
layers = (
{
hints = (
{
horizontal = 1;
place = (0, 93);
place = (0, 93);
type = Stem;
},
{
horizontal = 1;
place = (744, -20);
target = down;
type = TopGhost;
},
{
place = (77, 102);
place = (77, 102);
type = Stem;
}
);
layerId = m01;
shapes = (
{
closed = 1;
nodes = (
(77,0,l),
(564,0,l),
(564,93,l),
(179,93,l),
(179,744,l),
(77,744,l)
);
}
);
width = 595;
}
);
note = L;
unicode = 76;
},
{
glyphname = M;
layers = (
{
hints = (
{
horizontal = 1;
place = (0, 21);
target = up;
type = BottomGhost;
},
{
horizontal = 1;
place = (641, 103);
place = (641, 103);
type = Stem;
},
{
place = (77, 92);
place = (77, 92);
type = Stem;
},
{
place = (707, 98);
place = (707, 98);
type = Stem;
},
{
horizontal = 1;
place = (0, 107);
place = (0, 107);
type = Stem;
}
);
layerId = m01;
shapes = (
{
closed = 1;
nodes = (
(77,0,l),
(169,0,l),
(169,450,ls),
(169,483,o),
(167,530,o),
(166,570,cs),
(165,593,o),
(164,616,o),
(163,641,c),
(165,641,l),
(183,578,ls),
(194,543,o),
(206,500,o),
(217,471,cs),
(398,0,l),
(478,0,l),
(659,471,ls),
(670,500,o),
(682,543,o),
(693,578,cs),
(711,641,l),
(713,641,l),
(712,616,o),
(711,593,o),
(710,570,cs),
(707,530,o),
(707,483,o),
(707,450,cs),
(707,0,l),
(805,0,l),
(805,744,l),
(669,744,l),
(517,340,ls),
(502,299,o),
(483,241,o),
(468,193,cs),
(459,165,o),
(450,136,o),
(441,107,c),
(439,107,l),
(430,136,o),
(422,165,o),
(413,193,cs),
(398,241,o),
(379,299,o),
(364,340,cs),
(209,744,l),
(77,744,l)
);
}
);
width = 881;
}
);
note = M;
unicode = 77;
},
{
glyphname = N;
layers = (
{
hints = (
{
horizontal = 1;
place = (0, 21);
target = up;
type = BottomGhost;
},
{
horizontal = 1;
place = (744, -20);
target = down;
type = TopGhost;
},
{
place = (77, 96);
place = (77, 96);
type = Stem;
},
{
place = (568, 96);
place = (568, 96);
type = Stem;
},
{
horizontal = 1;
place = (613, 131);
place = (613, 131);
type = Stem;
},
{
horizontal = 1;
place = (0, 130);
place = (0, 130);
type = Stem;
}
);
layerId = m01;
shapes = (
{
closed = 1;
nodes = (
(77,0,l),
(173,0,l),
(173,456,ls),
(173,487,o),
(171,525,o),
(170,557,cs),
(169,576,o),
(168,594,o),
(167,613,c),
(169,613,l),
(178,595,o),
(188,577,o),
(198,560,cs),
(215,529,o),
(235,494,o),
(254,466,cs),
(558,0,l),
(664,0,l),
(664,744,l),
(568,744,l),
(568,289,ls),
(568,258,o),
(568,218,o),
(571,186,cs),
(572,167,o),
(574,149,o),
(575,130,c),
(572,130,l),
(563,148,o),
(553,166,o),
(544,183,cs),
(528,214,o),
(508,250,o),
(489,278,cs),
(184,744,l),
(77,744,l)
);
}
);
width = 741;
}
);
note = N;
unicode = 78;
},
{
glyphname = O;
kernLeft = C;
kernRight = O;
layers = (
{
hints = (
{
horizontal = 1;
place = (-16, 90);
place = (-16, 90);
type = Stem;
},
{
horizontal = 1;
place = (672, 88);
place = (672, 88);
type = Stem;
},
{
place = (49, 104);
place = (49, 104);
type = Stem;
},
{
place = (672, 106);
place = (672, 106);
type = Stem;
}
);
layerId = m01;
shapes = (
{
closed = 1;
nodes = (
(637,-16,o),
(778,151,o),
(778,372,cs),
(778,595,o),
(637,760,o),
(413,760,cs),
(188,760,o),
(49,595,o),
(49,372,cs),
(49,151,o),
(188,-16,o),
(413,-16,cs)
);
},
{
closed = 1;
nodes = (
(245,74,o),
(153,201,o),
(153,372,cs),
(153,543,o),
(245,672,o),
(413,672,cs),
(582,672,o),
(672,543,o),
(672,372,cs),
(672,201,o),
(582,74,o),
(413,74,cs)
);
}
);
width = 826;
}
);
note = O;
unicode = 79;
},
{
glyphname = P;
kernRight = P;
layers = (
{
hints = (
{
horizontal = 1;
place = (0, 21);
target = up;
type = BottomGhost;
},
{
horizontal = 1;
place = (306, 83);
place = (306, 83);
type = Stem;
},
{
horizontal = 1;
place = (655, 89);
place = (655, 89);
type = Stem;
},
{
place = (77, 103);
place = (77, 103);
type = Stem;
},
{
place = (519, 102);
place = (519, 102);
type = Stem;
}
);
layerId = m01;
shapes = (
{
closed = 1;
nodes = (
(77,0,l),
(180,0,l),
(180,306,l),
(380,306,ls),
(541,306,o),
(621,389,o),
(621,526,cs),
(621,586,o),
(601,633,o),
(568,672,cs),
(529,719,o),
(470,744,o),
(390,744,cs),
(77,744,l)
);
},
{
closed = 1;
nodes = (
(180,655,l),
(374,655,ls),
(466,655,o),
(519,611,o),
(519,523,cs),
(519,439,o),
(471,389,o),
(370,389,cs),
(180,389,l)
);
}
);
width = 647;
}
);
note = P;
unicode = 80;
},
{
glyphname = Q;
kernLeft = C;
kernRight = Q;
layers = (
{
hints = (
{
horizontal = 1;
place = (-16, 88);
place = (-16, 88);
type = Stem;
},
{
horizontal = 1;
place = (672, 88);
place = (672, 88);
type = Stem;
},
{
place = (49, 104);
place = (49, 104);
type = Stem;
},
{
place = (672, 105);
place = (672, 105);
type = Stem;
},
{
horizontal = 1;
place = (-4, 21);
target = up;
type = BottomGhost;
}
);
layerId = m01;
shapes = (
{
closed = 1;
nodes = (
(723,-66,l),
(774,-4,l),
(667,82,l),
(738,153,o),
(777,253,o),
(777,372,cs),
(777,595,o),
(637,760,o),
(413,760,cs),
(188,760,o),
(49,595,o),
(49,372,cs),
(49,151,o),
(188,-16,o),
(413,-16,cs),
(485,-16,o),
(549,1,o),
(602,32,c)
);
},
{
closed = 1;
nodes = (
(245,72,o),
(153,202,o),
(153,372,cs),
(153,543,o),
(245,672,o),
(413,672,cs),
(582,672,o),
(672,543,o),
(672,372,cs),
(672,277,o),
(644,198,o),
(592,143,c),
(478,235,l),
(428,173,l),
(524,95,l),
(491,80,o),
(454,72,o),
(413,72,cs)
);
}
);
width = 825;
}
);
note = Q;
unicode = 81;
},
{
glyphname = R;
kernRight = R;
layers = (
{
hints = (
{
horizontal = 1;
place = (0, 21);
target = up;
type = BottomGhost;
},
{
horizontal = 1;
place = (310, 82);
place = (310, 82);
type = Stem;
},
{
horizontal = 1;
place = (656, 88);
place = (656, 88);
type = Stem;
},
{
place = (77, 102);
place = (77, 102);
type = Stem;
},
{
place = (543, 105);
place = (543, 105);
type = Stem;
}
);
layerId = m01;
shapes = (
{
closed = 1;
nodes = (
(77,0,l),
(179,0,l),
(179,310,l),
(377,310,ls),
(474,310,o),
(518,272,o),
(525,167,cs),
(533,48,o),
(535,14,o),
(552,0,c),
(661,0,l),
(661,5,l),
(647,15,o),
(635,51,o),
(627,168,cs),
(619,274,o),
(596,326,o),
(512,350,c),
(512,353,l),
(611,384,o),
(648,448,o),
(648,539,cs),
(648,663,o),
(558,744,o),
(425,744,cs),
(77,744,l)
);
},
{
closed = 1;
nodes = (
(179,656,l),
(397,656,ls),
(502,656,o),
(543,612,o),
(543,524,cs),
(543,443,o),
(493,392,o),
(392,392,cs),
(179,392,l)
);
}
);
width = 700;
}
);
note = R;
unicode = 82;
},
{
glyphname = S;
kernLeft = S;
kernRight = S;
layers = (
{
hints = (
{
horizontal = 1;
place = (-15, 82);
place = (-15, 82);
type = Stem;
},
{
horizontal = 1;
place = (678, 80);
place = (678, 80);
type = Stem;
},
{
place = (62, 97);
place = (62, 97);
type = Stem;
},
{
place = (524, 103);
place = (524, 103);
type = Stem;
}
);
layerId = m01;
shapes = (
{
closed = 1;
nodes = (
(511,-15,o),
(627,64,o),
(627,205,cs),
(627,371,o),
(496,408,o),
(352,437,cs),
(240,461,o),
(159,483,o),
(159,564,cs),
(159,639,o),
(222,678,o),
(321,678,cs),
(426,678,o),
(491,630,o),
(504,539,c),
(603,539,l),
(584,666,o),
(504,758,o),
(320,758,cs),
(168,758,o),
(62,684,o),
(62,559,cs),
(62,417,o),
(175,377,o),
(308,350,cs),
(438,321,o),
(524,298,o),
(524,201,cs),
(524,111,o),
(452,67,o),
(353,67,cs),
(217,67,o),
(144,128,o),
(132,241,c),
(31,241,l),
(39,99,o),
(142,-15,o),
(350,-15,cs)
);
}
);
width = 672;
}
);
note = S;
unicode = 83;
},
{
glyphname = T;
kernLeft = T;
kernRight = T;
layers = (
{
hints = (
{
horizontal = 1;
place = (0, 21);
target = up;
type = BottomGhost;
},
{
horizontal = 1;
place = (654, 90);
place = (654, 90);
type = Stem;
},
{
place = (275, 103);
place = (275, 103);
type = Stem;
}
);
layerId = m01;
shapes = (
{
closed = 1;
nodes = (
(31,654,l),
(275,654,l),
(275,0,l),
(378,0,l),
(378,654,l),
(623,654,l),
(623,744,l),
(31,744,l)
);
}
);
width = 654;
}
);
note = T;
unicode = 84;
},
{
glyphname = U;
kernLeft = U;
kernRight = U;
layers = (
{
hints = (
{
horizontal = 1;
place = (-11, 87);
place = (-11, 87);
type = Stem;
},
{
horizontal = 1;
place = (744, -20);
target = down;
type = TopGhost;
},
{
place = (65, 102);
place = (65, 102);
type = Stem;
},
{
place = (537, 102);
place = (537, 102);
type = Stem;
}
);
layerId = m01;
shapes = (
{
closed = 1;
nodes = (
(515,-11,o),
(639,63,o),
(639,242,cs),
(639,744,l),
(537,744,l),
(537,251,ls),
(537,128,o),
(470,76,o),
(354,76,cs),
(234,76,o),
(167,128,o),
(167,251,cs),
(167,744,l),
(65,744,l),
(65,242,ls),
(65,63,o),
(185,-11,o),
(352,-11,cs)
);
}
);
width = 704;
}
);
note = U;
unicode = 85;
},
{
glyphname = V;
kernLeft = V;
kernRight = V;
layers = (
{
hints = (
{
horizontal = 1;
place = (0, 89);
place = (0, 89);
type = Stem;
},
{
horizontal = 1;
place = (744, -20);
target = down;
type = TopGhost;
},
{
place = (18, 629);
place = (18, 629);
type = Stem;
}
);
layerId = m01;
shapes = (
{
closed = 1;
nodes = (
(275,0,l),
(387,0,l),
(647,744,l),
(541,744,l),
(380,248,ls),
(371,221,o),
(361,182,o),
(352,149,cs),
(347,130,o),
(342,110,o),
(337,89,c),
(335,89,l),
(330,109,o),
(325,129,o),
(320,148,cs),
(311,181,o),
(300,221,o),
(291,248,cs),
(128,744,l),
(18,744,l)
);
}
);
width = 664;
}
);
note = V;
unicode = 86;
},
{
glyphname = W;
kernLeft = W;
kernRight = W;
layers = (
{
hints = (
{
horizontal = 1;
place = (0, 109);
place = (0, 109);
type = Stem;
},
{
horizontal = 1;
place = (662, 82);
place = (662, 82);
type = Stem;
},
{
place = (18, 928);
place = (18, 928);
type = Stem;
}
);
layerId = m01;
shapes = (
{
closed = 1;
nodes = (
(212,0,l),
(314,0,l),
(445,477,ls),
(453,509,o),
(462,555,o),
(469,594,cs),
(473,616,o),
(477,639,o),
(481,662,c),
(483,662,l),
(486,639,o),
(490,616,o),
(494,594,cs),
(501,555,o),
(509,509,o),
(518,476,cs),
(640,0,l),
(739,0,l),
(946,744,l),
(841,744,l),
(730,306,ls),
(721,269,o),
(712,220,o),
(705,180,cs),
(701,157,o),
(697,133,o),
(693,109,c),
(691,109,l),
(687,134,o),
(683,158,o),
(679,181,cs),
(672,221,o),
(661,270,o),
(652,307,cs),
(536,744,l),
(428,744,l),
(308,307,ls),
(297,270,o),
(288,221,o),
(281,181,cs),
(277,158,o),
(273,134,o),
(269,109,c),
(267,109,l),
(263,133,o),
(259,157,o),
(256,180,cs),
(249,220,o),
(241,269,o),
(232,306,cs),
(125,744,l),
(18,744,l)
);
}
);
width = 965;
}
);
note = W;
unicode = 87;
},
{
glyphname = X;
kernLeft = X;
kernRight = X;
layers = (
{
hints = (
{
horizontal = 1;
place = (0, 21);
target = up;
type = BottomGhost;
},
{
horizontal = 1;
place = (744, -20);
target = down;
type = TopGhost;
},
{
place = (23, 621);
place = (23, 621);
type = Stem;
}
);
layerId = m01;
shapes = (
{
closed = 1;
nodes = (
(23,0,l),
(139,0,l),
(261,194,ls),
(276,218,o),
(294,249,o),
(309,274,cs),
(317,289,o),
(325,303,o),
(334,318,c),
(336,318,l),
(344,303,o),
(352,289,o),
(359,274,cs),
(372,249,o),
(389,218,o),
(404,194,cs),
(522,0,l),
(644,0,l),
(394,381,l),
(635,744,l),
(523,744,l),
(411,565,ls),
(396,541,o),
(380,511,o),
(365,486,cs),
(357,471,o),
(349,457,o),
(341,443,c),
(339,443,l),
(331,457,o),
(323,471,o),
(316,486,cs),
(303,511,o),
(286,541,o),
(271,565,cs),
(160,744,l),
(42,744,l),
(279,382,l)
);
}
);
width = 667;
}
);
note = X;
unicode = 88;
},
{
glyphname = Y;
kernLeft = Y;
kernRight = Y;
layers = (
{
hints = (
{
horizontal = 1;
place = (0, 21);
target = up;
type = BottomGhost;
},
{
horizontal = 1;
place = (744, -20);
target = down;
type = TopGhost;
},
{
place = (286, 102);
place = (286, 102);
type = Stem;
}
);
layerId = m01;
shapes = (
{
closed = 1;
nodes = (
(286,0,l),
(388,0,l),
(388,307,l),
(659,744,l),
(550,744,l),
(415,520,ls),
(399,493,o),
(381,459,o),
(366,431,cs),
(357,414,o),
(349,398,o),
(341,381,c),
(339,381,l),
(314,431,ls),
(299,459,o),
(281,493,o),
(266,520,cs),
(132,744,l),
(18,744,l),
(286,312,l)
);
}
);
width = 678;
}
);
note = Y;
unicode = 89;
},
{
glyphname = Z;
kernLeft = Z;
kernRight = Z;
layers = (
{
hints = (
{
horizontal = 1;
place = (0, 91);
place = (0, 91);
type = Stem;
},
{
horizontal = 1;
place = (657, 87);
place = (657, 87);
type = Stem;
},
{
place = (39, 110);
place = (39, 110);
type = Stem;
},
{
place = (491, 114);
place = (491, 114);
type = Stem;
}
);
layerId = m01;
shapes = (
{
closed = 1;
nodes = (
(39,0,l),
(622,0,l),
(622,91,l),
(288,91,ls),
(260,91,o),
(226,90,o),
(198,89,cs),
(181,88,o),
(165,88,o),
(149,87,c),
(149,90,l),
(160,103,o),
(172,116,o),
(184,129,cs),
(204,152,o),
(228,178,o),
(247,201,cs),
(605,664,l),
(605,744,l),
(66,744,l),
(66,657,l),
(358,657,ls),
(383,657,o),
(417,658,o),
(444,659,cs),
(460,660,o),
(476,660,o),
(491,661,c),
(491,658,l),
(480,647,o),
(469,635,o),
(458,623,cs),
(439,603,o),
(418,578,o),
(402,558,cs),
(39,95,l)
);
}
);
width = 668;
}
);
note = Z;
unicode = 90;
},
{
glyphname = bracketleft;
kernRight = bracketleft;
layers = (
{
hints = (
{
horizontal = 1;
place = (-125, 78);
place = (-125, 78);
type = Stem;
},
{
horizontal = 1;
place = (710, 74);
place = (710, 74);
type = Stem;
},
{
place = (87, 94);
place = (87, 94);
type = Stem;
}
);
layerId = m01;
shapes = (
{
closed = 1;
nodes = (
(87,-125,l),
(315,-125,l),
(315,-47,l),
(181,-47,l),
(181,710,l),
(315,710,l),
(315,784,l),
(87,784,l)
);
}
);
width = 356;
}
);
note = bracketleft;
unicode = 91;
},
{
glyphname = backslash;
kernLeft = backslash;
kernRight = backslash;
layers = (
{
hints = (
{
horizontal = 1;
place = (-125, 908);
place = (-125, 908);
type = Stem;
},
{
place = (6, 455);
place = (6, 455);
type = Stem;
}
);
layerId = m01;
shapes = (
{
closed = 1;
nodes = (
(461,-125,l),
(100,783,l),
(6,783,l),
(368,-125,l)
);
}
);
width = 438;
}
);
note = backslash;
unicode = 92;
},
{
glyphname = bracketright;
kernLeft = bracketright;
layers = (
{
hints = (
{
horizontal = 1;
place = (-125, 78);
place = (-125, 78);
type = Stem;
},
{
horizontal = 1;
place = (710, 74);
place = (710, 74);
type = Stem;
},
{
place = (173, 96);
place = (173, 96);
type = Stem;
}
);
layerId = m01;
shapes = (
{
closed = 1;
nodes = (
(40,-125,l),
(269,-125,l),
(269,784,l),
(40,784,l),
(40,710,l),
(173,710,l),
(173,-47,l),
(40,-47,l)
);
}
);
width = 356;
}
);
note = bracketright;
unicode = 93;
},
{
glyphname = asciicircum;
layers = (
{
hints = (
{
horizontal = 1;
place = (744, -20);
target = down;
type = TopGhost;
},
{
place = (21, 449);
place = (21, 449);
type = Stem;
},
{
horizontal = 1;
place = (663, 81);
place = (663, 81);
type = Stem;
}
);
layerId = m01;
shapes = (
{
closed = 1;
nodes = (
(21,445,l),
(120,445,l),
(245,663,l),
(247,663,l),
(371,445,l),
(470,445,l),
(295,744,l),
(196,744,l)
);
}
);
width = 491;
}
);
note = asciicircum;
unicode = 94;
},
{
glyphname = underscore;
layers = (
{
hints = (
{
horizontal = 1;
place = (-173, 68);
place = (-173, 68);
type = Stem;
},
{
place = (-2, 431);
place = (-2, 431);
type = Stem;
}
);
layerId = m01;
shapes = (
{
closed = 1;
nodes = (
(-2,-173,l),
(429,-173,l),
(429,-105,l),
(-2,-105,l)
);
}
);
width = 427;
}
);
note = underscore;
unicode = 95;
},
{
glyphname = grave;
layers = (
{
hints = (
{
horizontal = 1;
place = (625, 145);
place = (625, 145);
type = Stem;
},
{
place = (148, 167);
place = (148, 167);
type = Stem;
}
);
layerId = m01;
shapes = (
{
closed = 1;
nodes = (
(237,625,l),
(315,625,l),
(262,770,l),
(148,770,l)
);
}
);
width = 538;
}
);
note = grave;
unicode = 96;
},
{
glyphname = a;
kernLeft = a;
kernRight = a;
layers = (
{
hints = (
{
horizontal = 1;
place = (-11, 68);
place = (-11, 68);
type = Stem;
},
{
horizontal = 1;
place = (482, 68);
place = (482, 68);
type = Stem;
},
{
place = (42, 98);
place = (42, 98);
type = Stem;
},
{
place = (404, 85);
place = (404, 85);
type = Stem;
},
{
horizontal = 1;
place = (-5, 70);
place = (-5, 70);
type = Stem;
}
);
layerId = m01;
shapes = (
{
closed = 1;
nodes = (
(314,-11,o),
(370,32,o),
(404,79,c),
(405,79,l),
(416,22,o),
(443,-5,o),
(500,-5,cs),
(523,-5,o),
(537,-1,o),
(550,3,c),
(550,68,l),
(546,68,l),
(499,57,o),
(489,81,o),
(489,124,cs),
(489,375,ls),
(489,447,o),
(462,494,o),
(417,521,cs),
(382,541,o),
(338,550,o),
(287,550,cs),
(143,550,o),
(72,469,o),
(69,378,c),
(159,378,l),
(162,442,o),
(203,482,o),
(288,482,cs),
(363,482,o),
(403,447,o),
(403,388,cs),
(403,334,o),
(353,319,o),
(273,311,cs),
(134,295,o),
(42,267,o),
(42,142,cs),
(42,39,o),
(122,-11,o),
(224,-11,cs)
);
},
{
closed = 1;
nodes = (
(193,57,o),
(140,74,o),
(140,143,cs),
(140,218,o),
(198,232,o),
(286,248,cs),
(330,256,o),
(377,269,o),
(404,286,c),
(404,198,ls),
(404,137,o),
(354,57,o),
(247,57,cs)
);
}
);
width = 562;
}
);
note = a;
unicode = 97;
},
{
glyphname = b;
kernLeft = b;
kernRight = b;
layers = (
{
hints = (
{
horizontal = 1;
place = (-16, 77);
place = (-16, 77);
type = Stem;
},
{
horizontal = 1;
place = (472, 78);
place = (472, 78);
type = Stem;
},
{
horizontal = 1;
place = (744, -20);
target = down;
type = TopGhost;
},
{
place = (64, 93);
place = (64, 93);
type = Stem;
},
{
place = (464, 95);
place = (464, 95);
type = Stem;
},
{
horizontal = 1;
place = (0, 21);
target = up;
type = BottomGhost;
}
);
layerId = m01;
shapes = (
{
closed = 1;
nodes = (
(471,-16,o),
(559,94,o),
(559,267,cs),
(559,443,o),
(466,550,o),
(330,550,cs),
(251,550,o),
(192,509,o),
(157,452,c),
(154,452,l),
(155,475,o),
(157,513,o),
(157,554,cs),
(157,744,l),
(64,744,l),
(64,0,l),
(156,0,l),
(156,76,l),
(159,76,l),
(194,16,o),
(255,-16,o),
(327,-16,cs)
);
},
{
closed = 1;
nodes = (
(208,61,o),
(152,149,o),
(152,266,cs),
(152,381,o),
(204,472,o),
(318,472,cs),
(417,472,o),
(464,384,o),
(464,266,cs),
(464,149,o),
(416,61,o),
(317,61,cs)
);
}
);
width = 594;
}
);
note = b;
unicode = 98;
},
{
glyphname = c;
kernLeft = c;
kernRight = c;
layers = (
{
hints = (
{
horizontal = 1;
place = (-15, 76);
place = (-15, 76);
type = Stem;
},
{
horizontal = 1;
place = (475, 75);
place = (475, 75);
type = Stem;
},
{
place = (35, 95);
place = (35, 95);
type = Stem;
}
);
layerId = m01;
shapes = (
{
closed = 1;
nodes = (
(434,-15,o),
(518,61,o),
(530,190,c),
(438,190,l),
(431,110,o),
(381,61,o),
(297,61,cs),
(187,61,o),
(130,152,o),
(130,268,cs),
(130,384,o),
(187,475,o),
(297,475,cs),
(376,475,o),
(423,433,o),
(436,362,c),
(529,362,l),
(510,478,o),
(426,550,o),
(297,550,cs),
(137,550,o),
(35,424,o),
(35,268,cs),
(35,111,o),
(137,-15,o),
(297,-15,cs)
);
}
);
width = 560;
}
);
note = c;
unicode = 99;
},
{
glyphname = d;
kernLeft = d;
kernRight = d;
layers = (
{
hints = (
{
horizontal = 1;
place = (-16, 77);
place = (-16, 77);
type = Stem;
},
{
horizontal = 1;
place = (472, 78);
place = (472, 78);
type = Stem;
},
{
horizontal = 1;
place = (744, -20);
target = down;
type = TopGhost;
},
{
place = (35, 95);
place = (35, 95);
type = Stem;
},
{
place = (439, 93);
place = (439, 93);
type = Stem;
},
{
horizontal = 1;
place = (0, 61);
place = (0, 61);
type = Stem;
}
);
layerId = m01;
shapes = (
{
closed = 1;
nodes = (
(348,-16,o),
(403,18,o),
(438,77,c),
(440,77,l),
(440,0,l),
(532,0,l),
(532,744,l),
(439,744,l),
(439,554,ls),
(439,518,o),
(439,479,o),
(442,455,c),
(440,455,l),
(405,512,o),
(346,550,o),
(270,550,cs),
(137,550,o),
(35,443,o),
(35,267,cs),
(35,94,o),
(127,-16,o),
(272,-16,cs)
);
},
{
closed = 1;
nodes = (
(180,61,o),
(130,149,o),
(130,266,cs),
(130,384,o),
(180,472,o),
(279,472,cs),
(387,472,o),
(444,387,o),
(444,266,cs),
(444,149,o),
(394,61,o),
(279,61,cs)
);
}
);
width = 596;
}
);
note = d;
unicode = 100;
},
{
glyphname = e;
kernLeft = c;
kernRight = e;
layers = (
{
hints = (
{
horizontal = 1;
place = (-15, 76);
place = (-15, 76);
type = Stem;
},
{
horizontal = 1;
place = (246, 67);
place = (246, 67);
type = Stem;
},
{
horizontal = 1;
place = (478, 72);
place = (478, 72);
type = Stem;
},
{
place = (35, 97);
place = (35, 97);
type = Stem;
},
{
place = (443, 99);
place = (443, 99);
type = Stem;
}
);
layerId = m01;
shapes = (
{
closed = 1;
nodes = (
(421,-15,o),
(507,53,o),
(531,153,c),
(440,153,l),
(423,96,o),
(373,61,o),
(298,61,cs),
(194,61,o),
(138,141,o),
(130,246,c),
(542,246,l),
(542,338,o),
(520,414,o),
(476,467,cs),
(433,519,o),
(372,550,o),
(292,550,cs),
(137,550,o),
(35,424,o),
(35,268,cs),
(35,111,o),
(132,-15,o),
(297,-15,cs)
);
},
{
closed = 1;
nodes = (
(385,478,o),
(438,417,o),
(443,313,c),
(132,313,l),
(143,408,o),
(196,478,o),
(292,478,cs)
);
}
);
width = 577;
}
);
note = e;
unicode = 101;
},
{
glyphname = f;
kernLeft = f;
kernRight = f;
layers = (
{
hints = (
{
horizontal = 1;
place = (0, 21);
target = up;
type = BottomGhost;
},
{
horizontal = 1;
place = (464, 73);
place = (464, 73);
type = Stem;
},
{
horizontal = 1;
place = (670, 79);
place = (670, 79);
type = Stem;
},
{
place = (114, 93);
place = (114, 93);
type = Stem;
}
);
layerId = m01;
shapes = (
{
closed = 1;
nodes = (
(31,464,l),
(114,464,l),
(114,0,l),
(207,0,l),
(207,464,l),
(317,464,l),
(317,537,l),
(207,537,l),
(207,607,ls),
(207,663,o),
(230,675,o),
(318,670,c),
(318,747,l),
(301,748,o),
(285,749,o),
(270,749,cs),
(218,749,o),
(179,741,o),
(152,718,cs),
(127,696,o),
(114,660,o),
(114,611,cs),
(114,537,l),
(31,537,l)
);
}
);
width = 350;
}
);
note = f;
unicode = 102;
},
{
glyphname = g;
kernLeft = g;
kernRight = g;
layers = (
{
hints = (
{
horizontal = 1;
place = (-188, 72);
place = (-188, 72);
type = Stem;
},
{
horizontal = 1;
place = (24, 76);
place = (24, 76);
type = Stem;
},
{
horizontal = 1;
place = (473, 77);
place = (473, 77);
type = Stem;
},
{
place = (43, 95);
place = (43, 95);
type = Stem;
},
{
place = (438, 92);
place = (438, 92);
type = Stem;
},
{
horizontal = 1;
place = (473, 64);
place = (473, 64);
type = Stem;
}
);
layerId = m01;
shapes = (
{
closed = 1;
nodes = (
(363,-188,o),
(422,-172,o),
(465,-137,cs),
(506,-102,o),
(530,-50,o),
(530,22,cs),
(530,537,l),
(438,537,l),
(438,466,l),
(436,466,l),
(401,521,o),
(350,550,o),
(273,550,cs),
(147,550,o),
(43,452,o),
(43,287,cs),
(43,131,o),
(141,24,o),
(278,24,cs),
(354,24,o),
(401,57,o),
(438,110,c),
(440,110,l),
(439,93,o),
(438,64,o),
(438,33,cs),
(438,18,ls),
(438,-74,o),
(385,-116,o),
(289,-116,cs),
(209,-116,o),
(155,-93,o),
(147,-37,c),
(60,-37,l),
(71,-133,o),
(150,-188,o),
(291,-188,cs)
);
},
{
closed = 1;
nodes = (
(190,100,o),
(138,171,o),
(138,286,cs),
(138,399,o),
(187,473,o),
(286,473,cs),
(394,473,o),
(444,404,o),
(444,291,cs),
(444,182,o),
(404,100,o),
(287,100,cs)
);
}
);
width = 595;
}
);
note = g;
unicode = 103;
},
{
glyphname = h;
kernLeft = b;
kernRight = h;
layers = (
{
hints = (
{
horizontal = 1;
place = (0, 21);
target = up;
type = BottomGhost;
},
{
horizontal = 1;
place = (472, 78);
place = (472, 78);
type = Stem;
},
{
horizontal = 1;
place = (744, -20);
target = down;
type = TopGhost;
},
{
place = (64, 93);
place = (64, 93);
type = Stem;
},
{
place = (418, 92);
place = (418, 92);
type = Stem;
}
);
layerId = m01;
shapes = (
{
closed = 1;
nodes = (
(157,744,l),
(64,744,l),
(64,0,l),
(157,0,l),
(157,327,ls),
(157,413,o),
(216,472,o),
(300,472,cs),
(373,472,o),
(418,433,o),
(418,364,cs),
(418,0,l),
(510,0,l),
(510,375,ls),
(510,488,o),
(442,550,o),
(329,550,cs),
(250,550,o),
(197,516,o),
(157,459,c),
(154,459,l),
(155,486,o),
(157,522,o),
(157,549,cs)
);
}
);
width = 571;
}
);
note = h;
unicode = 104;
},
{
glyphname = i;
kernLeft = b;
kernRight = d;
layers = (
{
hints = (
{
horizontal = 1;
place = (0, 21);
target = up;
type = BottomGhost;
},
{
horizontal = 1;
place = (537, -20);
target = down;
type = TopGhost;
},
{
horizontal = 1;
place = (636, 108);
place = (636, 108);
type = Stem;
},
{
place = (64, 93);
place = (64, 93);
type = Stem;
}
);
layerId = m01;
shapes = (
{
closed = 1;
nodes = (
(62,636,l),
(159,636,l),
(159,744,l),
(62,744,l)
);
},
{
closed = 1;
nodes = (
(64,0,l),
(157,0,l),
(157,537,l),
(64,537,l)
);
}
);
width = 221;
}
);
note = i;
unicode = 105;
},
{
glyphname = j;
kernLeft = j;
kernRight = j;
layers = (
{
hints = (
{
horizontal = 1;
place = (-170, 76);
place = (-170, 76);
type = Stem;
},
{
horizontal = 1;
place = (537, -20);
target = down;
type = TopGhost;
},
{
horizontal = 1;
place = (636, 108);
place = (636, 108);
type = Stem;
},
{
place = (64, 93);
place = (64, 93);
type = Stem;
}
);
layerId = m01;
shapes = (
{
closed = 1;
nodes = (
(66,-170,o),
(97,-165,o),
(121,-146,cs),
(144,-127,o),
(157,-98,o),
(157,-46,cs),
(157,537,l),
(64,537,l),
(64,-41,ls),
(64,-80,o),
(46,-93,o),
(10,-94,cs),
(1,-94,o),
(-9,-93,o),
(-19,-91,c),
(-22,-91,l),
(-22,-165,l),
(-7,-168,o),
(10,-170,o),
(30,-170,cs)
);
},
{
closed = 1;
nodes = (
(62,636,l),
(159,636,l),
(159,744,l),
(62,744,l)
);
}
);
width = 222;
}
);
note = j;
unicode = 106;
},
{
glyphname = k;
kernLeft = b;
kernRight = k;
layers = (
{
hints = (
{
horizontal = 1;
place = (0, 21);
target = up;
type = BottomGhost;
},
{
horizontal = 1;
place = (537, -20);
target = down;
type = TopGhost;
},
{
horizontal = 1;
place = (744, -20);
target = down;
type = TopGhost;
},
{
place = (64, 93);
place = (64, 93);
type = Stem;
}
);
layerId = m01;
shapes = (
{
closed = 1;
nodes = (
(417,0,l),
(526,0,l),
(297,344,l),
(502,537,l),
(386,537,l),
(153,308,l),
(156,335,o),
(157,372,o),
(157,391,cs),
(157,744,l),
(64,744,l),
(64,0,l),
(157,0,l),
(157,211,l),
(233,283,l)
);
}
);
width = 542;
}
);
note = k;
unicode = 107;
},
{
glyphname = l;
kernLeft = b;
kernRight = d;
layers = (
{
hints = (
{
horizontal = 1;
place = (0, 21);
target = up;
type = BottomGhost;
},
{
horizontal = 1;
place = (744, -20);
target = down;
type = TopGhost;
},
{
place = (67, 93);
place = (67, 93);
type = Stem;
}
);
layerId = m01;
shapes = (
{
closed = 1;
nodes = (
(67,0,l),
(160,0,l),
(160,744,l),
(67,744,l)
);
}
);
width = 227;
}
);
note = l;
unicode = 108;
},
{
glyphname = m;
kernLeft = m;
kernRight = h;
layers = (
{
hints = (
{
horizontal = 1;
place = (0, 21);
target = up;
type = BottomGhost;
},
{
horizontal = 1;
place = (472, 78);
place = (472, 78);
type = Stem;
},
{
place = (64, 93);
place = (64, 93);
type = Stem;
},
{
place = (382, 92);
place = (382, 92);
type = Stem;
},
{
place = (698, 93);
place = (698, 93);
type = Stem;
},
{
horizontal = 1;
place = (537, -20);
target = down;
type = TopGhost;
}
);
layerId = m01;
shapes = (
{
closed = 1;
nodes = (
(64,0,l),
(157,0,l),
(157,331,ls),
(157,413,o),
(226,472,o),
(290,472,cs),
(346,472,o),
(382,434,o),
(382,367,cs),
(382,0,l),
(474,0,l),
(474,331,ls),
(474,413,o),
(533,472,o),
(601,472,cs),
(656,472,o),
(698,434,o),
(698,367,cs),
(698,0,l),
(791,0,l),
(791,375,ls),
(791,488,o),
(724,550,o),
(625,550,cs),
(560,550,o),
(498,518,o),
(459,450,c),
(457,450,l),
(434,517,o),
(383,550,o),
(318,550,cs),
(249,550,o),
(192,516,o),
(159,457,c),
(156,457,l),
(156,537,l),
(64,537,l)
);
}
);
width = 852;
}
);
note = m;
unicode = 109;
},
{
glyphname = n;
kernLeft = m;
kernRight = h;
layers = (
{
hints = (
{
horizontal = 1;
place = (0, 21);
target = up;
type = BottomGhost;
},
{
horizontal = 1;
place = (472, 78);
place = (472, 78);
type = Stem;
},
{
place = (64, 93);
place = (64, 93);
type = Stem;
},
{
place = (418, 92);
place = (418, 92);
type = Stem;
},
{
horizontal = 1;
place = (537, -20);
target = down;
type = TopGhost;
}
);
layerId = m01;
shapes = (
{
closed = 1;
nodes = (
(156,537,l),
(64,537,l),
(64,0,l),
(157,0,l),
(157,327,ls),
(157,413,o),
(216,472,o),
(300,472,cs),
(373,472,o),
(418,433,o),
(418,364,cs),
(418,0,l),
(510,0,l),
(510,375,ls),
(510,488,o),
(442,550,o),
(329,550,cs),
(250,550,o),
(198,516,o),
(159,461,c),
(156,461,l)
);
}
);
width = 571;
}
);
note = n;
unicode = 110;
},
{
glyphname = o;
kernLeft = c;
kernRight = o;
layers = (
{
hints = (
{
horizontal = 1;
place = (-15, 76);
place = (-15, 76);
type = Stem;
},
{
horizontal = 1;
place = (476, 74);
place = (476, 74);
type = Stem;
},
{
place = (35, 95);
place = (35, 95);
type = Stem;
},
{
place = (464, 95);
place = (464, 95);
type = Stem;
}
);
layerId = m01;
shapes = (
{
closed = 1;
nodes = (
(460,-15,o),
(559,111,o),
(559,268,cs),
(559,424,o),
(460,550,o),
(298,550,cs),
(136,550,o),
(35,424,o),
(35,268,cs),
(35,111,o),
(136,-15,o),
(298,-15,cs)
);
},
{
closed = 1;
nodes = (
(187,61,o),
(130,152,o),
(130,268,cs),
(130,384,o),
(187,476,o),
(297,476,cs),
(407,476,o),
(464,384,o),
(464,268,cs),
(464,152,o),
(407,61,o),
(297,61,cs)
);
}
);
width = 594;
}
);
note = o;
unicode = 111;
},
{
glyphname = p;
kernLeft = p;
kernRight = b;
layers = (
{
hints = (
{
horizontal = 1;
place = (-16, 77);
place = (-16, 77);
type = Stem;
},
{
horizontal = 1;
place = (471, 79);
place = (471, 79);
type = Stem;
},
{
place = (64, 93);
place = (64, 93);
type = Stem;
},
{
place = (466, 95);
place = (466, 95);
type = Stem;
},
{
horizontal = 1;
place = (537, -20);
target = down;
type = TopGhost;
}
);
layerId = m01;
shapes = (
{
closed = 1;
nodes = (
(64,-182,l),
(157,-182,l),
(157,-19,ls),
(157,22,o),
(156,52,o),
(155,71,c),
(158,71,l),
(195,14,o),
(254,-16,o),
(327,-16,cs),
(472,-16,o),
(561,95,o),
(561,267,cs),
(561,443,o),
(466,550,o),
(330,550,cs),
(253,550,o),
(199,514,o),
(159,453,c),
(156,453,l),
(156,537,l),
(64,537,l)
);
},
{
closed = 1;
nodes = (
(198,61,o),
(152,152,o),
(152,265,cs),
(152,380,o),
(204,471,o),
(318,471,cs),
(418,471,o),
(466,383,o),
(466,265,cs),
(466,148,o),
(416,61,o),
(317,61,cs)
);
}
);
width = 596;
}
);
note = p;
unicode = 112;
},
{
glyphname = q;
kernLeft = d;
kernRight = q;
layers = (
{
hints = (
{
horizontal = 1;
place = (-16, 77);
place = (-16, 77);
type = Stem;
},
{
horizontal = 1;
place = (471, 79);
place = (471, 79);
type = Stem;
},
{
place = (38, 94);
place = (38, 94);
type = Stem;
},
{
place = (439, 92);
place = (439, 92);
type = Stem;
},
{
horizontal = 1;
place = (537, -20);
target = down;
type = TopGhost;
}
);
layerId = m01;
shapes = (
{
closed = 1;
nodes = (
(439,-182,l),
(531,-182,l),
(531,537,l),
(440,537,l),
(440,457,l),
(437,457,l),
(402,516,o),
(346,550,o),
(269,550,cs),
(136,550,o),
(38,443,o),
(38,267,cs),
(38,95,o),
(127,-16,o),
(272,-16,cs),
(348,-16,o),
(398,14,o),
(439,71,c),
(442,71,l),
(442,39,o),
(439,-11,o),
(439,-19,cs)
);
},
{
closed = 1;
nodes = (
(180,61,o),
(132,148,o),
(132,265,cs),
(132,383,o),
(180,471,o),
(279,471,cs),
(392,471,o),
(444,386,o),
(444,265,cs),
(444,148,o),
(398,61,o),
(280,61,cs)
);
}
);
width = 596;
}
);
note = q;
unicode = 113;
},
{
glyphname = r;
kernLeft = m;
kernRight = r;
layers = (
{
hints = (
{
horizontal = 1;
place = (0, 21);
target = up;
type = BottomGhost;
},
{
horizontal = 1;
place = (455, 89);
place = (455, 89);
type = Stem;
},
{
place = (64, 93);
place = (64, 93);
type = Stem;
},
{
horizontal = 1;
place = (537, -20);
target = down;
type = TopGhost;
},
{
horizontal = 1;
place = (538, -20);
target = down;
type = TopGhost;
}
);
layerId = m01;
shapes = (
{
closed = 1;
nodes = (
(156,537,l),
(64,537,l),
(64,0,l),
(157,0,l),
(157,292,ls),
(157,392,o),
(228,455,o),
(311,455,cs),
(327,455,o),
(336,454,o),
(349,450,c),
(352,450,l),
(352,538,l),
(341,542,o),
(333,544,o),
(318,544,cs),
(246,544,o),
(192,503,o),
(159,440,c),
(156,440,l)
);
}
);
width = 379;
}
);
note = r;
unicode = 114;
},
{
glyphname = s;
kernLeft = s;
kernRight = s;
layers = (
{
hints = (
{
horizontal = 1;
place = (-16, 75);
place = (-16, 75);
type = Stem;
},
{
horizontal = 1;
place = (479, 70);
place = (479, 70);
type = Stem;
},
{
place = (53, 91);
place = (53, 91);
type = Stem;
},
{
place = (393, 93);
place = (393, 93);
type = Stem;
}
);
layerId = m01;
shapes = (
{
closed = 1;
nodes = (
(396,-16,o),
(486,40,o),
(486,149,cs),
(486,274,o),
(394,298,o),
(287,319,cs),
(196,338,o),
(144,347,o),
(144,404,cs),
(144,445,o),
(175,479,o),
(248,479,cs),
(325,479,o),
(363,449,o),
(371,393,c),
(464,393,l),
(452,486,o),
(385,549,o),
(250,549,cs),
(125,549,o),
(53,491,o),
(53,399,cs),
(53,281,o),
(148,259,o),
(253,237,cs),
(348,218,o),
(393,203,o),
(393,144,cs),
(393,96,o),
(357,59,o),
(272,59,cs),
(196,59,o),
(135,86,o),
(124,163,c),
(30,163,l),
(38,54,o),
(121,-16,o),
(270,-16,cs)
);
}
);
width = 522;
}
);
note = s;
unicode = 115;
},
{
glyphname = t;
kernLeft = t;
kernRight = t;
layers = (
{
hints = (
{
horizontal = 1;
place = (-4, 80);
place = (-4, 80);
type = Stem;
},
{
horizontal = 1;
place = (465, 72);
place = (465, 72);
type = Stem;
},
{
place = (115, 92);
place = (115, 92);
type = Stem;
}
);
layerId = m01;
shapes = (
{
closed = 1;
nodes = (
(31,465,l),
(115,465,l),
(115,105,ls),
(115,26,o),
(165,-3,o),
(237,-4,cs),
(262,-4,o),
(287,-1,o),
(312,5,c),
(312,83,l),
(309,83,l),
(298,80,o),
(278,76,o),
(262,76,cs),
(227,76,o),
(207,87,o),
(207,126,cs),
(207,465,l),
(318,465,l),
(318,537,l),
(207,537,l),
(207,706,l),
(115,706,l),
(115,537,l),
(31,537,l)
);
}
);
width = 351;
}
);
note = t;
unicode = 116;
},
{
glyphname = u;
kernLeft = u;
kernRight = u;
layers = (
{
hints = (
{
horizontal = 1;
place = (-12, 76);
place = (-12, 76);
type = Stem;
},
{
horizontal = 1;
place = (537, -20);
target = down;
type = TopGhost;
},
{
place = (61, 93);
place = (61, 93);
type = Stem;
},
{
place = (406, 93);
place = (406, 93);
type = Stem;
},
{
horizontal = 1;
place = (0, 64);
place = (0, 64);
type = Stem;
}
);
layerId = m01;
shapes = (
{
closed = 1;
nodes = (
(499,0,l),
(499,537,l),
(406,537,l),
(406,210,ls),
(406,126,o),
(354,64,o),
(271,64,cs),
(196,64,o),
(154,104,o),
(154,172,cs),
(154,537,l),
(61,537,l),
(61,167,ls),
(61,54,o),
(131,-12,o),
(243,-12,cs),
(320,-12,o),
(366,22,o),
(405,75,c),
(407,75,l),
(407,0,l)
);
}
);
width = 564;
}
);
note = u;
unicode = 117;
},
{
glyphname = v;
kernLeft = v;
kernRight = v;
layers = (
{
hints = (
{
horizontal = 1;
place = (0, 76);
place = (0, 76);
type = Stem;
},
{
horizontal = 1;
place = (537, -20);
target = down;
type = TopGhost;
},
{
place = (5, 483);
place = (5, 483);
type = Stem;
}
);
layerId = m01;
shapes = (
{
closed = 1;
nodes = (
(192,0,l),
(295,0,l),
(488,537,l),
(392,537,l),
(296,247,ls),
(284,211,o),
(272,169,o),
(263,134,cs),
(258,114,o),
(253,95,o),
(249,76,c),
(247,76,l),
(242,95,o),
(236,114,o),
(231,134,cs),
(222,169,o),
(209,211,o),
(198,247,cs),
(104,537,l),
(5,537,l)
);
}
);
width = 493;
}
);
note = v;
unicode = 118;
},
{
glyphname = w;
kernLeft = w;
kernRight = w;
layers = (
{
hints = (
{
horizontal = 1;
place = (0, 81);
place = (0, 81);
type = Stem;
},
{
horizontal = 1;
place = (446, 91);
place = (446, 91);
type = Stem;
},
{
place = (10, 761);
place = (10, 761);
type = Stem;
}
);
layerId = m01;
shapes = (
{
closed = 1;
nodes = (
(180,0,l),
(274,0,l),
(355,296,ls),
(362,321,o),
(369,359,o),
(376,390,cs),
(380,408,o),
(384,427,o),
(388,446,c),
(390,446,l),
(394,427,o),
(398,408,o),
(402,390,cs),
(409,359,o),
(417,323,o),
(424,296,cs),
(503,0,l),
(596,0,l),
(771,537,l),
(675,537,l),
(586,239,ls),
(575,206,o),
(568,166,o),
(561,135,cs),
(558,117,o),
(554,99,o),
(551,81,c),
(549,81,l),
(546,100,o),
(542,119,o),
(538,138,cs),
(531,170,o),
(522,208,o),
(515,237,cs),
(435,537,l),
(347,537,l),
(266,237,ls),
(257,204,o),
(248,166,o),
(241,135,cs),
(237,117,o),
(233,99,o),
(230,82,c),
(228,82,l),
(225,101,o),
(221,119,o),
(217,138,cs),
(210,170,o),
(201,208,o),
(193,239,cs),
(109,537,l),
(10,537,l)
);
}
);
width = 781;
}
);
note = w;
unicode = 119;
},
{
glyphname = x;
kernLeft = x;
kernRight = x;
layers = (
{
hints = (
{
horizontal = 1;
place = (0, 21);
target = up;
type = BottomGhost;
},
{
horizontal = 1;
place = (537, -20);
target = down;
type = TopGhost;
},
{
place = (20, 516);
place = (20, 516);
type = Stem;
}
);
layerId = m01;
shapes = (
{
closed = 1;
nodes = (
(20,0,l),
(124,0,l),
(226,152,ls),
(235,167,o),
(246,186,o),
(257,203,cs),
(263,213,o),
(269,223,o),
(274,233,c),
(276,233,l),
(281,223,o),
(287,213,o),
(293,203,cs),
(304,186,o),
(314,167,o),
(325,152,cs),
(428,0,l),
(536,0,l),
(329,290,l),
(504,537,l),
(403,537,l),
(320,414,ls),
(311,401,o),
(301,382,o),
(292,367,cs),
(287,358,o),
(281,349,o),
(276,340,c),
(274,340,l),
(259,367,ls),
(250,382,o),
(239,399,o),
(231,414,c),
(151,537,l),
(43,537,l),
(222,281,l)
);
}
);
width = 556;
}
);
note = x;
unicode = 120;
},
{
glyphname = y;
kernLeft = y;
kernRight = y;
layers = (
{
hints = (
{
horizontal = 1;
place = (-187, 81);
place = (-187, 81);
type = Stem;
},
{
horizontal = 1;
place = (537, -20);
target = down;
type = TopGhost;
},
{
place = (5, 509);
place = (5, 509);
type = Stem;
}
);
layerId = m01;
shapes = (
{
closed = 1;
nodes = (
(201,-187,o),
(240,-162,o),
(286,-49,cs),
(514,537,l),
(417,537,l),
(310,239,ls),
(299,208,o),
(288,173,o),
(279,144,cs),
(274,127,o),
(269,110,o),
(264,94,c),
(262,94,l),
(257,110,o),
(253,127,o),
(248,144,cs),
(239,173,o),
(228,208,o),
(217,239,cs),
(106,537,l),
(5,537,l),
(210,27,l),
(213,22,o),
(191,-40,o),
(191,-41,c),
(172,-92,o),
(148,-106,o),
(111,-106,cs),
(88,-106,o),
(66,-103,o),
(55,-96,c),
(51,-96,l),
(51,-176,l),
(66,-183,o),
(99,-187,o),
(130,-187,cs)
);
}
);
width = 519;
}
);
note = y;
unicode = 121;
},
{
glyphname = z;
kernLeft = z;
kernRight = z;
layers = (
{
hints = (
{
horizontal = 1;
place = (0, 82);
place = (0, 82);
type = Stem;
},
{
horizontal = 1;
place = (458, 79);
place = (458, 79);
type = Stem;
},
{
place = (44, 433);
place = (44, 433);
type = Stem;
},
{
place = (44, 109);
place = (44, 109);
type = Stem;
},
{
place = (348, 117);
place = (348, 117);
type = Stem;
}
);
layerId = m01;
shapes = (
{
closed = 1;
nodes = (
(44,0,l),
(477,0,l),
(477,82,l),
(260,82,ls),
(240,82,o),
(215,81,o),
(192,80,cs),
(179,79,o),
(166,79,o),
(153,79,c),
(153,82,l),
(162,91,o),
(170,101,o),
(178,110,cs),
(193,126,o),
(209,145,o),
(221,160,cs),
(465,479,l),
(465,537,l),
(62,537,l),
(62,458,l),
(247,458,ls),
(266,458,o),
(290,458,o),
(311,459,cs),
(323,460,o),
(335,460,o),
(348,461,c),
(348,458,l),
(339,449,o),
(331,441,o),
(324,432,cs),
(311,417,o),
(295,400,o),
(284,385,cs),
(44,72,l)
);
}
);
width = 512;
}
);
note = z;
unicode = 122;
},
{
glyphname = braceleft;
kernRight = bracketleft;
layers = (
{
hints = (
{
horizontal = 1;
place = (-125, 78);
place = (-125, 78);
type = Stem;
},
{
horizontal = 1;
place = (296, 75);
place = (296, 75);
type = Stem;
},
{
horizontal = 1;
place = (710, 74);
place = (710, 74);
type = Stem;
},
{
place = (115, 95);
place = (115, 95);
type = Stem;
},
{
place = (33, 116);
place = (33, 116);
type = Stem;
}
);
layerId = m01;
shapes = (
{
closed = 1;
nodes = (
(315,-125,l),
(315,-47,l),
(287,-47,ls),
(232,-47,o),
(210,-27,o),
(210,47,cs),
(210,233,ls),
(210,286,o),
(190,319,o),
(149,332,c),
(149,335,l),
(190,346,o),
(210,379,o),
(210,434,cs),
(210,615,ls),
(210,690,o),
(232,710,o),
(287,710,cs),
(315,710,l),
(315,784,l),
(284,784,ls),
(175,784,o),
(115,743,o),
(115,616,cs),
(115,441,ls),
(115,394,o),
(93,374,o),
(33,371,c),
(33,296,l),
(93,293,o),
(115,272,o),
(115,225,cs),
(115,46,ls),
(115,-81,o),
(175,-125,o),
(284,-125,cs)
);
}
);
width = 338;
}
);
note = braceleft;
unicode = 123;
},
{
glyphname = bar;
layers = (
{
hints = (
{
horizontal = 1;
place = (-125, 909);
place = (-125, 909);
type = Stem;
},
{
place = (87, 76);
place = (87, 76);
type = Stem;
}
);
layerId = m01;
shapes = (
{
closed = 1;
nodes = (
(87,-125,l),
(163,-125,l),
(163,784,l),
(87,784,l)
);
}
);
width = 250;
}
);
note = bar;
unicode = 124;
},
{
glyphname = braceright;
kernLeft = bracketright;
layers = (
{
hints = (
{
horizontal = 1;
place = (-125, 78);
place = (-125, 78);
type = Stem;
},
{
horizontal = 1;
place = (292, 76);
place = (292, 76);
type = Stem;
},
{
horizontal = 1;
place = (710, 74);
place = (710, 74);
type = Stem;
},
{
place = (135, 94);
place = (135, 94);
type = Stem;
},
{
place = (196, 108);
place = (196, 108);
type = Stem;
}
);
layerId = m01;
shapes = (
{
closed = 1;
nodes = (
(40,-125,l),
(60,-125,ls),
(169,-125,o),
(229,-84,o),
(229,44,cs),
(229,222,ls),
(229,269,o),
(248,289,o),
(304,292,c),
(304,368,l),
(245,371,o),
(229,392,o),
(229,439,cs),
(229,614,ls),
(229,739,o),
(169,784,o),
(60,784,cs),
(40,784,l),
(40,710,l),
(58,710,ls),
(113,710,o),
(135,688,o),
(135,613,cs),
(135,431,ls),
(135,375,o),
(153,345,o),
(196,332,c),
(196,329,l),
(153,314,o),
(135,286,o),
(135,230,cs),
(135,44,ls),
(135,-30,o),
(111,-47,o),
(58,-47,cs),
(40,-47,l)
);
}
);
width = 338;
}
);
note = braceright;
unicode = 125;
},
{
glyphname = asciitilde;
layers = (
{
hints = (
{
horizontal = 1;
place = (280, 127);
place = (280, 127);
type = Stem;
},
{
place = (45, 72);
place = (45, 72);
type = Stem;
},
{
place = (316, 71);
place = (316, 71);
type = Stem;
},
{
horizontal = 1;
place = (325, 84);
place = (325, 84);
type = Stem;
}
);
layerId = m01;
shapes = (
{
closed = 1;
nodes = (
(358,280,o),
(384,332,o),
(387,407,c),
(316,407,l),
(315,378,o),
(303,364,o),
(280,364,cs),
(263,364,o),
(250,370,o),
(223,385,cs),
(199,398,o),
(173,409,o),
(142,409,cs),
(85,409,o),
(48,361,o),
(45,281,c),
(117,281,l),
(118,310,o),
(129,325,o),
(148,325,cs),
(167,325,o),
(181,316,o),
(216,301,cs),
(240,290,o),
(264,280,o),
(291,280,cs)
);
}
);
width = 432;
}
);
note = asciitilde;
unicode = 126;
},
{
glyphname = exclamdown;
kernRight = exclamdown;
layers = (
{
hints = (
{
horizontal = 1;
place = (502, 110);
place = (502, 110);
type = Stem;
},
{
place = (82, 101);
place = (82, 101);
type = Stem;
},
{
place = (78, 109);
place = (78, 109);
type = Stem;
}
);
layerId = m01;
shapes = (
{
closed = 1;
nodes = (
(158,396,l),
(107,396,l),
(82,101,l),
(82,-132,l),
(183,-132,l),
(183,101,l)
);
},
{
closed = 1;
nodes = (
(187,612,l),
(78,612,l),
(78,502,l),
(187,502,l)
);
}
);
width = 264;
}
);
note = exclamdown;
unicode = 161;
},
{
glyphname = cent;
layers = (
{
hints = (
{
horizontal = 1;
place = (-13, 21);
target = up;
type = BottomGhost;
},
{
horizontal = 1;
place = (550, -20);
target = down;
type = TopGhost;
},
{
place = (35, 94);
place = (35, 94);
type = Stem;
},
{
place = (265, 59);
place = (265, 59);
type = Stem;
},
{
horizontal = 1;
place = (-14, 21);
target = up;
type = BottomGhost;
},
{
place = (439, 91);
place = (439, 91);
type = Stem;
},
{
horizontal = 1;
place = (549, -20);
target = down;
type = TopGhost;
}
);
layerId = m01;
shapes = (
{
closed = 1;
nodes = (
(265,-119,l),
(324,-119,l),
(324,-14,l),
(445,-3,o),
(519,69,o),
(530,190,c),
(439,190,l),
(432,118,o),
(392,72,o),
(324,63,c),
(324,474,l),
(387,465,o),
(425,423,o),
(437,362,c),
(530,362,l),
(511,469,o),
(439,539,o),
(324,550,c),
(324,635,l),
(265,635,l),
(265,549,l),
(124,533,o),
(35,412,o),
(35,268,cs),
(35,121,o),
(122,3,o),
(265,-13,c)
);
},
{
closed = 1;
nodes = (
(129,372,o),
(174,457,o),
(265,473,c),
(265,63,l),
(174,79,o),
(129,164,o),
(129,268,cs)
);
}
);
width = 561;
}
);
note = cent;
unicode = 162;
},
{
glyphname = sterling;
layers = (
{
hints = (
{
horizontal = 1;
place = (-12, 84);
place = (-12, 84);
type = Stem;
},
{
horizontal = 1;
place = (312, 70);
place = (312, 70);
type = Stem;
},
{
horizontal = 1;
place = (648, 80);
place = (648, 80);
type = Stem;
},
{
place = (77, 100);
place = (77, 100);
type = Stem;
},
{
place = (460, 95);
place = (460, 95);
type = Stem;
},
{
place = (149, 89);
place = (149, 89);
type = Stem;
},
{
horizontal = 1;
place = (-3, 21);
target = up;
type = BottomGhost;
},
{
horizontal = 1;
place = (42, 71);
place = (42, 71);
type = Stem;
}
);
layerId = m01;
shapes = (
{
closed = 1;
nodes = (
(49,312,l),
(137,312,l),
(144,288,o),
(149,264,o),
(149,239,cs),
(149,158,o),
(100,115,o),
(40,72,c),
(94,-3,l),
(123,18,o),
(156,42,o),
(197,42,cs),
(278,42,o),
(315,-12,o),
(411,-12,cs),
(478,-12,o),
(530,15,o),
(573,52,c),
(521,121,l),
(490,94,o),
(456,72,o),
(413,72,cs),
(353,72,o),
(315,113,o),
(240,113,cs),
(204,113,o),
(184,107,o),
(145,87,c),
(143,90,l),
(206,141,o),
(238,184,o),
(238,255,cs),
(238,275,o),
(235,293,o),
(232,312,c),
(359,312,l),
(359,382,l),
(212,382,l),
(195,430,o),
(177,475,o),
(177,522,cs),
(177,601,o),
(226,648,o),
(315,648,cs),
(397,648,o),
(457,604,o),
(460,494,c),
(555,494,l),
(554,577,o),
(525,634,o),
(481,673,cs),
(438,712,o),
(380,728,o),
(317,728,cs),
(168,728,o),
(77,641,o),
(77,524,cs),
(77,471,o),
(92,426,o),
(111,382,c),
(49,382,l)
);
}
);
width = 595;
}
);
note = sterling;
unicode = 163;
},
{
glyphname = currency;
layers = (
{
hints = (
{
horizontal = 1;
place = (157, 65);
place = (157, 65);
type = Stem;
},
{
horizontal = 1;
place = (509, 65);
place = (509, 65);
type = Stem;
},
{
place = (50, 83);
place = (50, 83);
type = Stem;
},
{
place = (372, 83);
place = (372, 83);
type = Stem;
}
);
layerId = m01;
shapes = (
{
closed = 1;
nodes = (
(177,222,o),
(133,283,o),
(133,365,cs),
(133,446,o),
(177,509,o),
(253,509,cs),
(329,509,o),
(372,446,o),
(372,365,cs),
(372,282,o),
(329,222,o),
(253,222,cs)
);
},
{
closed = 1;
nodes = (
(64,125,l),
(132,194,l),
(165,169,o),
(205,157,o),
(253,157,cs),
(301,157,o),
(341,169,o),
(374,194,c),
(442,125,l),
(487,168,l),
(417,240,l),
(441,275,o),
(455,318,o),
(455,365,cs),
(455,412,o),
(443,453,o),
(418,489,c),
(487,560,l),
(442,603,l),
(375,534,l),
(343,558,o),
(301,574,o),
(253,574,cs),
(204,574,o),
(163,558,o),
(131,534,c),
(64,603,l),
(19,560,l),
(88,489,l),
(63,454,o),
(50,412,o),
(50,365,cs),
(50,318,o),
(63,276,o),
(88,239,c),
(19,168,l)
);
}
);
width = 506;
}
);
note = currency;
unicode = 164;
},
{
glyphname = yen;
layers = (
{
hints = (
{
horizontal = 1;
place = (143, 57);
place = (143, 57);
type = Stem;
},
{
horizontal = 1;
place = (281, 57);
place = (281, 57);
type = Stem;
},
{
place = (262, 96);
place = (262, 96);
type = Stem;
},
{
horizontal = 1;
place = (0, 200);
place = (0, 200);
type = Stem;
}
);
layerId = m01;
shapes = (
{
closed = 1;
nodes = (
(76,281,l),
(262,281,l),
(262,200,l),
(76,200,l),
(76,143,l),
(262,143,l),
(262,0,l),
(358,0,l),
(358,143,l),
(544,143,l),
(544,200,l),
(358,200,l),
(358,281,l),
(544,281,l),
(544,338,l),
(372,338,l),
(595,712,l),
(491,712,l),
(403,553,ls),
(384,520,o),
(362,475,o),
(343,438,cs),
(332,416,o),
(322,394,o),
(311,371,c),
(309,371,l),
(298,394,o),
(288,416,o),
(277,438,cs),
(258,475,o),
(236,520,o),
(217,553,cs),
(129,712,l),
(21,712,l),
(246,338,l),
(76,338,l)
);
}
);
width = 611;
}
);
note = yen;
unicode = 165;
},
{
glyphname = brokenbar;
layers = (
{
hints = (
{
horizontal = 1;
place = (-125, 909);
place = (-125, 909);
type = Stem;
},
{
place = (87, 76);
place = (87, 76);
type = Stem;
}
);
layerId = m01;
shapes = (
{
closed = 1;
nodes = (
(87,375,l),
(163,375,l),
(163,784,l),
(87,784,l)
);
},
{
closed = 1;
nodes = (
(87,-125,l),
(163,-125,l),
(163,301,l),
(87,301,l)
);
}
);
width = 250;
}
);
note = brokenbar;
unicode = 166;
},
{
glyphname = section;
layers = (
{
hints = (
{
horizontal = 1;
place = (-192, 79);
place = (-192, 79);
type = Stem;
},
{
horizontal = 1;
place = (650, 80);
place = (650, 80);
type = Stem;
},
{
place = (38, 91);
place = (38, 91);
type = Stem;
},
{
place = (498, 92);
place = (498, 92);
type = Stem;
},
{
place = (91, 93);
place = (91, 93);
type = Stem;
},
{
place = (424, 95);
place = (424, 95);
type = Stem;
},
{
place = (114, 94);
place = (114, 94);
type = Stem;
},
{
place = (432, 93);
place = (432, 93);
type = Stem;
}
);
layerId = m01;
shapes = (
{
closed = 1;
nodes = (
(444,-192,o),
(519,-130,o),
(519,-37,cs),
(519,6,o),
(499,38,o),
(468,69,c),
(543,90,o),
(590,136,o),
(590,216,cs),
(590,326,o),
(488,377,o),
(369,441,cs),
(265,494,o),
(208,523,o),
(208,576,cs),
(208,619,o),
(241,650,o),
(313,650,cs),
(389,650,o),
(425,610,o),
(432,550,c),
(525,550,l),
(517,654,o),
(446,730,o),
(314,730,cs),
(193,730,o),
(114,669,o),
(114,573,cs),
(114,532,o),
(130,501,o),
(161,470,c),
(86,450,o),
(38,407,o),
(38,331,cs),
(38,234,o),
(114,186,o),
(238,117,cs),
(361,48,o),
(424,19,o),
(424,-38,cs),
(424,-81,o),
(391,-113,o),
(320,-113,cs),
(232,-113,o),
(189,-65,o),
(184,2,c),
(91,2,l),
(94,-103,o),
(178,-192,o),
(319,-192,cs)
);
},
{
closed = 1;
nodes = (
(446,296,o),
(498,270,o),
(498,210,cs),
(498,167,o),
(477,130,o),
(417,113,c),
(376,144,o),
(325,170,o),
(278,197,cs),
(166,261,o),
(129,286,o),
(129,341,cs),
(129,380,o),
(156,416,o),
(209,429,c),
(241,406,o),
(282,384,o),
(326,360,cs)
);
}
);
width = 628;
}
);
note = section;
unicode = 167;
},
{
glyphname = dieresis;
layers = (
{
hints = (
{
horizontal = 1;
place = (636, 108);
place = (636, 108);
type = Stem;
},
{
place = (105, 92);
place = (105, 92);
type = Stem;
},
{
place = (303, 92);
place = (303, 92);
type = Stem;
}
);
layerId = m01;
shapes = (
{
closed = 1;
nodes = (
(303,636,l),
(395,636,l),
(395,744,l),
(303,744,l)
);
},
{
closed = 1;
nodes = (
(105,636,l),
(197,636,l),
(197,744,l),
(105,744,l)
);
}
);
width = 500;
}
);
note = dieresis;
unicode = 168;
},
{
glyphname = copyright;
kernLeft = copyright;
kernRight = copyright;
layers = (
{
hints = (
{
horizontal = 1;
place = (-18, 42);
place = (-18, 42);
type = Stem;
},
{
horizontal = 1;
place = (143, 74);
place = (143, 74);
type = Stem;
},
{
horizontal = 1;
place = (527, 72);
place = (527, 72);
type = Stem;
},
{
horizontal = 1;
place = (716, 41);
place = (716, 41);
type = Stem;
},
{
place = (51, 48);
place = (51, 48);
type = Stem;
},
{
place = (227, 88);
place = (227, 88);
type = Stem;
},
{
place = (763, 50);
place = (763, 50);
type = Stem;
}
);
layerId = m01;
shapes = (
{
closed = 1;
nodes = (
(645,-18,o),
(813,147,o),
(813,369,cs),
(813,592,o),
(645,757,o),
(431,757,cs),
(218,757,o),
(51,592,o),
(51,369,cs),
(51,147,o),
(218,-18,o),
(431,-18,cs)
);
},
{
closed = 1;
nodes = (
(243,24,o),
(99,171,o),
(99,369,cs),
(99,569,o),
(243,716,o),
(431,716,cs),
(621,716,o),
(763,569,o),
(763,369,cs),
(763,171,o),
(621,24,o),
(431,24,cs)
);
},
{
closed = 1;
nodes = (
(497,143,o),
(538,160,o),
(570,191,cs),
(601,218,o),
(619,262,o),
(620,303,c),
(537,303,l),
(532,256,o),
(498,217,o),
(437,217,cs),
(361,217,o),
(315,278,o),
(315,369,cs),
(315,457,o),
(355,527,o),
(436,527,cs),
(493,527,o),
(525,494,o),
(532,453,c),
(618,453,l),
(611,496,o),
(593,531,o),
(561,558,cs),
(530,585,o),
(488,599,o),
(436,599,cs),
(309,599,o),
(227,500,o),
(227,369,cs),
(227,238,o),
(313,143,o),
(436,143,cs)
);
}
);
width = 863;
}
);
note = copyright;
unicode = 169;
},
{
glyphname = ordfeminine;
layers = (
{
hints = (
{
horizontal = 1;
place = (237, 64);
place = (237, 64);
type = Stem;
},
{
horizontal = 1;
place = (665, 64);
place = (665, 64);
type = Stem;
},
{
place = (49, 91);
place = (49, 91);
type = Stem;
},
{
place = (367, 81);
place = (367, 81);
type = Stem;
}
);
layerId = m01;
shapes = (
{
closed = 1;
nodes = (
(465,246,l),
(465,251,l),
(456,258,o),
(448,280,o),
(448,315,cs),
(448,577,ls),
(448,634,o),
(428,673,o),
(395,697,cs),
(364,720,o),
(320,729,o),
(268,729,cs),
(142,729,o),
(76,660,o),
(71,577,c),
(155,577,l),
(162,633,o),
(195,665,o),
(270,665,cs),
(334,665,o),
(366,640,o),
(366,589,cs),
(366,540,o),
(329,528,o),
(257,521,cs),
(138,510,o),
(49,482,o),
(49,372,cs),
(49,283,o),
(123,237,o),
(214,237,cs),
(293,237,o),
(335,272,o),
(362,311,c),
(364,311,l),
(365,272,o),
(370,255,o),
(378,246,c)
);
},
{
closed = 1;
nodes = (
(185,301,o),
(140,316,o),
(140,375,cs),
(140,435,o),
(184,452,o),
(263,463,cs),
(302,468,o),
(344,478,o),
(367,491,c),
(367,420,ls),
(367,366,o),
(325,301,o),
(232,301,cs)
);
}
);
width = 520;
}
);
note = ordfeminine;
unicode = 170;
},
{
glyphname = guillemotleft;
kernLeft = guillemotleft;
kernRight = guillemotleft;
layers = (
{
hints = (
{
horizontal = 1;
place = (82, 397);
place = (82, 397);
type = Stem;
},
{
place = (79, 150);
place = (79, 150);
type = Stem;
},
{
place = (287, 149);
place = (287, 149);
type = Stem;
}
);
layerId = m01;
shapes = (
{
closed = 1;
nodes = (
(436,82,l),
(436,182,l),
(337,280,l),
(337,282,l),
(436,379,l),
(436,479,l),
(287,329,l),
(287,232,l)
);
},
{
closed = 1;
nodes = (
(229,82,l),
(229,182,l),
(129,280,l),
(129,282,l),
(229,379,l),
(229,479,l),
(79,329,l),
(79,232,l)
);
}
);
width = 515;
}
);
note = guillemotleft;
unicode = 171;
},
{
glyphname = logicalnot;
layers = (
{
hints = (
{
horizontal = 1;
place = (362, 73);
place = (362, 73);
type = Stem;
},
{
place = (411, 77);
place = (411, 77);
type = Stem;
}
);
layerId = m01;
shapes = (
{
closed = 1;
nodes = (
(63,362,l),
(411,362,l),
(411,175,l),
(488,175,l),
(488,435,l),
(63,435,l)
);
}
);
width = 568;
}
);
note = logicalnot;
unicode = 172;
},
{
glyphname = uni00AD;
layers = (
{
hints = (
{
horizontal = 1;
place = (243, 84);
place = (243, 84);
type = Stem;
},
{
place = (48, 278);
place = (48, 278);
type = Stem;
}
);
layerId = m01;
shapes = (
{
closed = 1;
nodes = (
(48,243,l),
(326,243,l),
(326,327,l),
(48,327,l)
);
}
);
width = 374;
}
);
note = uni00AD;
unicode = 173;
},
{
glyphname = registered;
kernLeft = registered;
kernRight = registered;
layers = (
{
hints = (
{
horizontal = 1;
place = (172, 39);
place = (172, 39);
type = Stem;
},
{
horizontal = 1;
place = (436, 47);
place = (436, 47);
type = Stem;
},
{
horizontal = 1;
place = (572, 51);
place = (572, 51);
type = Stem;
},
{
horizontal = 1;
place = (719, 38);
place = (719, 38);
type = Stem;
},
{
place = (40, 46);
place = (40, 46);
type = Stem;
},
{
place = (214, 61);
place = (214, 61);
type = Stem;
},
{
place = (398, 61);
place = (398, 61);
type = Stem;
},
{
place = (571, 44);
place = (571, 44);
type = Stem;
}
);
layerId = m01;
shapes = (
{
closed = 1;
nodes = (
(488,172,o),
(615,296,o),
(615,464,cs),
(615,633,o),
(488,757,o),
(328,757,cs),
(168,757,o),
(40,633,o),
(40,464,cs),
(40,296,o),
(168,172,o),
(328,172,cs)
);
},
{
closed = 1;
nodes = (
(189,211,o),
(86,317,o),
(86,464,cs),
(86,612,o),
(189,719,o),
(328,719,cs),
(468,719,o),
(571,612,o),
(571,464,cs),
(571,317,o),
(468,211,o),
(328,211,cs)
);
},
{
closed = 1;
nodes = (
(214,310,l),
(275,310,l),
(275,436,l),
(331,436,ls),
(368,436,o),
(388,418,o),
(390,383,cs),
(393,347,o),
(394,314,o),
(403,310,c),
(463,310,l),
(463,315,l),
(452,319,o),
(453,351,o),
(448,394,cs),
(444,433,o),
(432,450,o),
(396,459,c),
(396,460,l),
(440,471,o),
(459,499,o),
(459,535,cs),
(459,588,o),
(416,623,o),
(359,623,cs),
(214,623,l)
);
},
{
closed = 1;
nodes = (
(275,572,l),
(346,572,ls),
(381,572,o),
(398,555,o),
(398,528,cs),
(398,501,o),
(380,483,o),
(345,483,cs),
(275,483,l)
);
}
);
width = 655;
}
);
note = registered;
unicode = 174;
},
{
glyphname = macron;
layers = (
{
hints = (
{
horizontal = 1;
place = (659, 75);
place = (659, 75);
type = Stem;
},
{
place = (114, 273);
place = (114, 273);
type = Stem;
}
);
layerId = m01;
shapes = (
{
closed = 1;
nodes = (
(114,659,l),
(387,659,l),
(387,734,l),
(114,734,l)
);
}
);
width = 500;
}
);
note = macron;
unicode = 175;
},
{
glyphname = degree;
layers = (
{
hints = (
{
horizontal = 1;
place = (430, 55);
place = (430, 55);
type = Stem;
},
{
horizontal = 1;
place = (673, 56);
place = (673, 56);
type = Stem;
},
{
place = (39, 66);
place = (39, 66);
type = Stem;
},
{
place = (277, 67);
place = (277, 67);
type = Stem;
}
);
layerId = m01;
shapes = (
{
closed = 1;
nodes = (
(276,430,o),
(344,496,o),
(344,579,cs),
(344,662,o),
(276,729,o),
(191,729,cs),
(107,729,o),
(39,662,o),
(39,579,cs),
(39,496,o),
(107,430,o),
(191,430,cs)
);
},
{
closed = 1;
nodes = (
(140,485,o),
(105,524,o),
(105,579,cs),
(105,632,o),
(140,673,o),
(191,673,cs),
(244,673,o),
(277,632,o),
(277,579,cs),
(277,524,o),
(244,485,o),
(191,485,cs)
);
}
);
width = 382;
}
);
note = degree;
unicode = 176;
},
{
glyphname = plusminus;
layers = (
{
hints = (
{
horizontal = 1;
place = (0, 73);
place = (0, 73);
type = Stem;
},
{
horizontal = 1;
place = (333, 73);
place = (333, 73);
type = Stem;
},
{
place = (262, 77);
place = (262, 77);
type = Stem;
}
);
layerId = m01;
shapes = (
{
closed = 1;
nodes = (
(63,333,l),
(262,333,l),
(262,156,l),
(339,156,l),
(339,333,l),
(538,333,l),
(538,406,l),
(339,406,l),
(339,582,l),
(262,582,l),
(262,406,l),
(63,406,l)
);
},
{
closed = 1;
nodes = (
(63,0,l),
(538,0,l),
(538,73,l),
(63,73,l)
);
}
);
width = 601;
}
);
note = plusminus;
unicode = 177;
},
{
glyphname = twosuperior;
layers = (
{
hints = (
{
horizontal = 1;
place = (286, 66);
place = (286, 66);
type = Stem;
},
{
horizontal = 1;
place = (687, 67);
place = (687, 67);
type = Stem;
},
{
place = (38, 77);
place = (38, 77);
type = Stem;
},
{
place = (280, 82);
place = (280, 82);
type = Stem;
}
);
layerId = m01;
shapes = (
{
closed = 1;
nodes = (
(361,286,l),
(361,352,l),
(126,352,l),
(139,392,o),
(196,424,o),
(237,448,cs),
(301,488,o),
(362,521,o),
(362,610,cs),
(362,689,o),
(301,754,o),
(205,754,cs),
(102,754,o),
(38,691,o),
(38,592,c),
(115,592,l),
(116,649,o),
(147,687,o),
(200,687,cs),
(249,687,o),
(280,657,o),
(280,609,cs),
(280,550,o),
(224,525,o),
(166,485,cs),
(103,443,o),
(31,388,o),
(28,286,c)
);
}
);
width = 394;
}
);
note = twosuperior;
unicode = 178;
},
{
glyphname = threesuperior;
layers = (
{
hints = (
{
horizontal = 1;
place = (277, 63);
place = (277, 63);
type = Stem;
},
{
horizontal = 1;
place = (499, 61);
place = (499, 61);
type = Stem;
},
{
horizontal = 1;
place = (695, 60);
place = (695, 60);
type = Stem;
},
{
place = (293, 81);
place = (293, 81);
type = Stem;
},
{
place = (280, 77);
place = (280, 77);
type = Stem;
},
{
place = (165, 111);
place = (165, 111);
type = Stem;
}
);
layerId = m01;
shapes = (
{
closed = 1;
nodes = (
(296,277,o),
(374,325,o),
(374,417,cs),
(374,479,o),
(341,517,o),
(276,532,c),
(276,534,l),
(327,549,o),
(357,578,o),
(357,629,cs),
(357,708,o),
(293,755,o),
(202,755,cs),
(97,755,o),
(37,693,o),
(34,608,c),
(110,608,l),
(113,659,o),
(142,695,o),
(201,695,cs),
(248,695,o),
(280,670,o),
(280,627,cs),
(280,584,o),
(249,560,o),
(193,560,cs),
(165,560,l),
(165,499,l),
(194,499,ls),
(258,499,o),
(293,472,o),
(293,423,cs),
(293,367,o),
(256,340,o),
(200,340,cs),
(131,340,o),
(98,378,o),
(95,435,c),
(20,435,l),
(21,339,o),
(90,277,o),
(203,277,cs)
);
}
);
width = 403;
}
);
note = threesuperior;
unicode = 179;
},
{
glyphname = acute;
layers = (
{
hints = (
{
horizontal = 1;
place = (625, 145);
place = (625, 145);
type = Stem;
},
{
place = (204, 167);
place = (204, 167);
type = Stem;
}
);
layerId = m01;
shapes = (
{
closed = 1;
nodes = (
(204,625,l),
(282,625,l),
(371,770,l),
(257,770,l)
);
}
);
width = 500;
}
);
note = acute;
unicode = 180;
},
{
glyphname = mu;
layers = (
{
hints = (
{
horizontal = 1;
place = (-12, 76);
place = (-12, 76);
type = Stem;
},
{
horizontal = 1;
place = (537, -20);
target = down;
type = TopGhost;
},
{
place = (65, 93);
place = (65, 93);
type = Stem;
},
{
place = (410, 93);
place = (410, 93);
type = Stem;
},
{
horizontal = 1;
place = (0, 64);
place = (0, 64);
type = Stem;
}
);
layerId = m01;
shapes = (
{
closed = 1;
nodes = (
(158,22,l),
(181,-3,o),
(209,-12,o),
(256,-12,cs),
(324,-12,o),
(370,22,o),
(409,75,c),
(411,75,l),
(411,0,l),
(503,0,l),
(503,537,l),
(410,537,l),
(410,210,ls),
(410,126,o),
(358,64,o),
(275,64,cs),
(200,64,o),
(158,104,o),
(158,172,cs),
(158,537,l),
(65,537,l),
(65,-182,l),
(158,-182,l),
(158,-77,ls),
(158,-46,o),
(157,-21,o),
(156,-4,cs),
(155,6,o),
(155,15,o),
(155,22,c)
);
}
);
width = 568;
}
);
note = mu;
unicode = 181;
},
{
glyphname = paragraph;
layers = (
{
hints = (
{
horizontal = 1;
place = (660, 84);
place = (660, 84);
type = Stem;
},
{
place = (276, 68);
place = (276, 68);
type = Stem;
},
{
place = (426, 68);
place = (426, 68);
type = Stem;
}
);
layerId = m01;
shapes = (
{
closed = 1;
nodes = (
(276,365,l),
(276,-140,l),
(344,-140,l),
(344,660,l),
(426,660,l),
(426,-140,l),
(494,-140,l),
(494,744,l),
(243,744,ls),
(176,744,o),
(125,728,o),
(92,693,cs),
(59,658,o),
(39,612,o),
(39,556,cs),
(39,437,o),
(110,365,o),
(247,365,cs)
);
}
);
width = 571;
}
);
note = paragraph;
unicode = 182;
},
{
glyphname = periodcentered;
kernLeft = periodcentered;
kernRight = periodcentered;
layers = (
{
hints = (
{
horizontal = 1;
place = (271, 110);
place = (271, 110);
type = Stem;
},
{
place = (63, 108);
place = (63, 108);
type = Stem;
}
);
layerId = m01;
shapes = (
{
closed = 1;
nodes = (
(63,271,l),
(171,271,l),
(171,381,l),
(63,381,l)
);
}
);
width = 234;
}
);
note = periodcentered;
unicode = 183;
},
{
glyphname = cedilla;
layers = (
{
hints = (
{
horizontal = 1;
place = (-208, 46);
place = (-208, 46);
type = Stem;
},
{
horizontal = 1;
place = (-94, 36);
place = (-94, 36);
type = Stem;
},
{
place = (270, 70);
place = (270, 70);
type = Stem;
}
);
layerId = m01;
shapes = (
{
closed = 1;
nodes = (
(294,-208,o),
(340,-180,o),
(340,-127,cs),
(340,-66,o),
(277,-53,o),
(237,-58,c),
(237,-56,l),
(301,0,l),
(242,0,l),
(169,-76,l),
(185,-101,l),
(197,-97,o),
(209,-94,o),
(228,-94,cs),
(252,-94,o),
(270,-103,o),
(270,-127,cs),
(270,-154,o),
(242,-162,o),
(207,-162,cs),
(180,-162,o),
(155,-157,o),
(132,-146,c),
(116,-177,l),
(141,-194,o),
(176,-208,o),
(227,-208,cs)
);
}
);
width = 500;
}
);
note = cedilla;
unicode = 184;
},
{
glyphname = onesuperior;
layers = (
{
hints = (
{
horizontal = 1;
place = (609, 139);
place = (609, 139);
type = Stem;
},
{
place = (141, 80);
place = (141, 80);
type = Stem;
},
{
horizontal = 1;
place = (609, 53);
place = (609, 53);
type = Stem;
}
);
layerId = m01;
shapes = (
{
closed = 1;
nodes = (
(141,286,l),
(221,286,l),
(221,748,l),
(152,748,l),
(144,685,o),
(93,663,o),
(30,662,c),
(30,609,l),
(141,609,l)
);
}
);
width = 283;
}
);
note = onesuperior;
unicode = 185;
},
{
glyphname = ordmasculine;
layers = (
{
hints = (
{
horizontal = 1;
place = (232, 69);
place = (232, 69);
type = Stem;
},
{
horizontal = 1;
place = (660, 69);
place = (660, 69);
type = Stem;
},
{
place = (44, 91);
place = (44, 91);
type = Stem;
},
{
place = (414, 90);
place = (414, 90);
type = Stem;
}
);
layerId = m01;
shapes = (
{
closed = 1;
nodes = (
(419,232,o),
(504,342,o),
(504,480,cs),
(504,618,o),
(419,729,o),
(275,729,cs),
(132,729,o),
(44,618,o),
(44,480,cs),
(44,342,o),
(132,232,o),
(275,232,cs)
);
},
{
closed = 1;
nodes = (
(181,301,o),
(135,378,o),
(135,480,cs),
(135,581,o),
(181,660,o),
(275,660,cs),
(368,660,o),
(414,581,o),
(414,480,cs),
(414,378,o),
(368,301,o),
(275,301,cs)
);
}
);
width = 548;
}
);
note = ordmasculine;
unicode = 186;
},
{
glyphname = guillemotright;
kernLeft = guillemotright;
kernRight = guillemotright;
layers = (
{
hints = (
{
horizontal = 1;
place = (82, 397);
place = (82, 397);
type = Stem;
},
{
place = (79, 150);
place = (79, 150);
type = Stem;
},
{
place = (287, 149);
place = (287, 149);
type = Stem;
}
);
layerId = m01;
shapes = (
{
closed = 1;
nodes = (
(79,479,l),
(79,379,l),
(179,281,l),
(179,279,l),
(79,182,l),
(79,82,l),
(229,232,l),
(229,329,l)
);
},
{
closed = 1;
nodes = (
(287,479,l),
(287,379,l),
(386,281,l),
(386,279,l),
(287,182,l),
(287,82,l),
(436,232,l),
(436,329,l)
);
}
);
width = 515;
}
);
note = guillemotright;
unicode = 187;
},
{
glyphname = onequarter;
layers = (
{
hints = (
{
horizontal = 1;
place = (-5, 61);
place = (-5, 61);
type = Stem;
},
{
horizontal = 1;
place = (268, 86);
place = (268, 86);
type = Stem;
},
{
horizontal = 1;
place = (609, 139);
place = (609, 139);
type = Stem;
},
{
place = (144, 80);
place = (144, 80);
type = Stem;
},
{
place = (438, 55);
place = (438, 55);
type = Stem;
},
{
place = (664, 77);
place = (664, 77);
type = Stem;
},
{
horizontal = 1;
place = (744, -20);
target = down;
type = TopGhost;
},
{
horizontal = 1;
place = (609, 53);
place = (609, 53);
type = Stem;
}
);
layerId = m01;
shapes = (
{
closed = 1;
nodes = (
(664,-110,l),
(741,-110,l),
(741,-5,l),
(814,-5,l),
(814,56,l),
(741,56,l),
(741,354,l),
(665,354,l),
(438,74,l),
(438,-5,l),
(664,-5,l)
);
},
{
closed = 1;
nodes = (
(33,-130,l),
(118,-130,l),
(768,744,l),
(682,744,l)
);
},
{
closed = 1;
nodes = (
(144,286,l),
(224,286,l),
(224,748,l),
(155,748,l),
(147,685,o),
(96,663,o),
(33,662,c),
(33,609,l),
(144,609,l)
);
},
{
closed = 1;
nodes = (
(493,54,l),
(500,61,o),
(506,68,o),
(513,75,cs),
(524,87,o),
(537,101,o),
(548,114,cs),
(615,194,ls),
(626,207,o),
(639,226,o),
(650,241,cs),
(668,268,l),
(671,268,l),
(670,258,o),
(668,248,o),
(667,238,cs),
(664,221,o),
(664,200,o),
(664,184,cs),
(664,56,l),
(564,56,ls),
(549,56,o),
(533,55,o),
(518,54,cs),
(510,53,o),
(502,53,o),
(493,52,c)
);
}
);
width = 835;
}
);
note = onequarter;
unicode = 188;
},
{
glyphname = onehalf;
layers = (
{
hints = (
{
horizontal = 1;
place = (-110, 66);
place = (-110, 66);
type = Stem;
},
{
horizontal = 1;
place = (291, 67);
place = (291, 67);
type = Stem;
},
{
horizontal = 1;
place = (609, 139);
place = (609, 139);
type = Stem;
},
{
place = (144, 80);
place = (144, 80);
type = Stem;
},
{
place = (533, 77);
place = (533, 77);
type = Stem;
},
{
place = (775, 82);
place = (775, 82);
type = Stem;
},
{
horizontal = 1;
place = (609, 53);
place = (609, 53);
type = Stem;
},
{
horizontal = 1;
place = (744, -20);
target = down;
type = TopGhost;
}
);
layerId = m01;
shapes = (
{
closed = 1;
nodes = (
(144,286,l),
(224,286,l),
(224,748,l),
(155,748,l),
(147,685,o),
(96,663,o),
(33,662,c),
(33,609,l),
(144,609,l)
);
},
{
closed = 1;
nodes = (
(34,-130,l),
(119,-130,l),
(769,744,l),
(683,744,l)
);
},
{
closed = 1;
nodes = (
(856,-110,l),
(856,-44,l),
(621,-44,l),
(634,-4,o),
(691,28,o),
(732,52,cs),
(796,92,o),
(857,125,o),
(857,214,cs),
(857,293,o),
(796,358,o),
(700,358,cs),
(597,358,o),
(533,295,o),
(533,196,c),
(610,196,l),
(611,253,o),
(642,291,o),
(695,291,cs),
(744,291,o),
(775,261,o),
(775,213,cs),
(775,154,o),
(719,129,o),
(661,89,cs),
(598,47,o),
(526,-8,o),
(523,-110,c)
);
}
);
width = 892;
}
);
note = onehalf;
unicode = 189;
},
{
glyphname = threequarters;
layers = (
{
hints = (
{
horizontal = 1;
place = (-5, 61);
place = (-5, 61);
type = Stem;
},
{
horizontal = 1;
place = (277, 63);
place = (277, 63);
type = Stem;
},
{
horizontal = 1;
place = (499, 61);
place = (499, 61);
type = Stem;
},
{
horizontal = 1;
place = (695, 60);
place = (695, 60);
type = Stem;
},
{
place = (296, 81);
place = (296, 81);
type = Stem;
},
{
place = (526, 55);
place = (526, 55);
type = Stem;
},
{
place = (752, 77);
place = (752, 77);
type = Stem;
},
{
horizontal = 1;
place = (268, 86);
place = (268, 86);
type = Stem;
},
{
place = (283, 77);
place = (283, 77);
type = Stem;
},
{
place = (168, 111);
place = (168, 111);
type = Stem;
},
{
horizontal = 1;
place = (744, -20);
target = down;
type = TopGhost;
}
);
layerId = m01;
shapes = (
{
closed = 1;
nodes = (
(752,-110,l),
(829,-110,l),
(829,-5,l),
(902,-5,l),
(902,56,l),
(829,56,l),
(829,354,l),
(753,354,l),
(526,74,l),
(526,-5,l),
(752,-5,l)
);
},
{
closed = 1;
nodes = (
(299,277,o),
(377,325,o),
(377,417,cs),
(377,479,o),
(344,517,o),
(279,532,c),
(279,534,l),
(330,549,o),
(360,578,o),
(360,629,cs),
(360,708,o),
(296,755,o),
(205,755,cs),
(100,755,o),
(40,693,o),
(37,608,c),
(113,608,l),
(116,659,o),
(145,695,o),
(204,695,cs),
(251,695,o),
(283,670,o),
(283,627,cs),
(283,584,o),
(252,560,o),
(196,560,cs),
(168,560,l),
(168,499,l),
(197,499,ls),
(261,499,o),
(296,472,o),
(296,423,cs),
(296,367,o),
(259,340,o),
(203,340,cs),
(134,340,o),
(101,378,o),
(98,435,c),
(23,435,l),
(24,339,o),
(93,277,o),
(206,277,cs)
);
},
{
closed = 1;
nodes = (
(122,-130,l),
(207,-130,l),
(857,744,l),
(771,744,l)
);
},
{
closed = 1;
nodes = (
(581,54,l),
(588,61,o),
(594,68,o),
(601,75,cs),
(612,87,o),
(625,101,o),
(636,114,cs),
(703,194,ls),
(714,207,o),
(727,226,o),
(738,241,cs),
(756,268,l),
(759,268,l),
(758,258,o),
(756,248,o),
(755,238,cs),
(752,221,o),
(752,200,o),
(752,184,cs),
(752,56,l),
(652,56,ls),
(637,56,o),
(621,55,o),
(606,54,cs),
(598,53,o),
(590,53,o),
(581,52,c)
);
}
);
width = 923;
}
);
note = threequarters;
unicode = 190;
},
{
glyphname = questiondown;
kernRight = questiondown;
layers = (
{
hints = (
{
horizontal = 1;
place = (-145, 82);
place = (-145, 82);
type = Stem;
},
{
horizontal = 1;
place = (502, 110);
place = (502, 110);
type = Stem;
},
{
place = (39, 98);
place = (39, 98);
type = Stem;
},
{
place = (234, 109);
place = (234, 109);
type = Stem;
},
{
place = (427, 93);
place = (427, 93);
type = Stem;
},
{
place = (245, 86);
place = (245, 86);
type = Stem;
}
);
layerId = m01;
shapes = (
{
closed = 1;
nodes = (
(343,612,l),
(234,612,l),
(234,502,l),
(343,502,l)
);
},
{
closed = 1;
nodes = (
(245,396,l),
(244,352,o),
(239,325,o),
(220,300,cs),
(203,276,o),
(176,252,o),
(132,216,cs),
(83,175,o),
(39,129,o),
(39,47,cs),
(39,-61,o),
(125,-145,o),
(267,-145,cs),
(439,-145,o),
(517,-25,o),
(520,96,c),
(427,96,l),
(422,5,o),
(372,-63,o),
(268,-63,cs),
(184,-63,o),
(137,-15,o),
(137,49,cs),
(137,113,o),
(179,146,o),
(225,186,cs),
(299,252,o),
(331,295,o),
(331,396,c)
);
}
);
width = 547;
}
);
note = questiondown;
unicode = 191;
},
{
glyphname = Agrave;
kernLeft = A;
kernRight = A;
layers = (
{
hints = (
{
horizontal = 1;
place = (0, 21);
target = up;
type = BottomGhost;
},
{
horizontal = 1;
place = (217, 80);
place = (217, 80);
type = Stem;
},
{
horizontal = 1;
place = (663, 81);
place = (663, 81);
type = Stem;
},
{
horizontal = 1;
place = (785, 125);
place = (785, 125);
type = Stem;
},
{
place = (19, 660);
place = (19, 660);
type = Stem;
}
);
layerId = m01;
shapes = (
{
closed = 1;
nodes = (
(19,0,l),
(124,0,l),
(200,217,l),
(493,217,l),
(567,0,l),
(679,0,l),
(405,744,l),
(291,744,l)
);
},
{
closed = 1;
nodes = (
(301,505,ls),
(313,540,o),
(324,579,o),
(333,610,cs),
(338,628,o),
(342,646,o),
(347,663,c),
(350,663,l),
(354,646,o),
(358,628,o),
(363,611,cs),
(371,580,o),
(382,541,o),
(395,505,cs),
(466,297,l),
(228,297,l)
);
},
{
closed = 1;
nodes = (
(311,785,l),
(389,785,l),
(336,910,l),
(222,910,l)
);
}
);
width = 698;
}
);
note = Agrave;
unicode = 192;
},
{
glyphname = Aacute;
kernLeft = A;
kernRight = A;
layers = (
{
hints = (
{
horizontal = 1;
place = (0, 21);
target = up;
type = BottomGhost;
},
{
horizontal = 1;
place = (217, 80);
place = (217, 80);
type = Stem;
},
{
horizontal = 1;
place = (663, 81);
place = (663, 81);
type = Stem;
},
{
horizontal = 1;
place = (785, 125);
place = (785, 125);
type = Stem;
},
{
place = (19, 660);
place = (19, 660);
type = Stem;
}
);
layerId = m01;
shapes = (
{
closed = 1;
nodes = (
(19,0,l),
(124,0,l),
(200,217,l),
(493,217,l),
(567,0,l),
(679,0,l),
(405,744,l),
(291,744,l)
);
},
{
closed = 1;
nodes = (
(301,505,ls),
(313,540,o),
(324,579,o),
(333,610,cs),
(338,628,o),
(342,646,o),
(347,663,c),
(350,663,l),
(354,646,o),
(358,628,o),
(363,611,cs),
(371,580,o),
(382,541,o),
(395,505,cs),
(466,297,l),
(228,297,l)
);
},
{
closed = 1;
nodes = (
(306,785,l),
(384,785,l),
(473,910,l),
(359,910,l)
);
}
);
width = 698;
}
);
note = Aacute;
unicode = 193;
},
{
glyphname = Acircumflex;
kernLeft = A;
kernRight = A;
layers = (
{
hints = (
{
horizontal = 1;
place = (0, 21);
target = up;
type = BottomGhost;
},
{
horizontal = 1;
place = (217, 80);
place = (217, 80);
type = Stem;
},
{
horizontal = 1;
place = (663, 81);
place = (663, 81);
type = Stem;
},
{
horizontal = 1;
place = (785, 113);
place = (785, 113);
type = Stem;
},
{
place = (19, 660);
place = (19, 660);
type = Stem;
}
);
layerId = m01;
shapes = (
{
closed = 1;
nodes = (
(19,0,l),
(124,0,l),
(200,217,l),
(493,217,l),
(567,0,l),
(679,0,l),
(405,744,l),
(291,744,l)
);
},
{
closed = 1;
nodes = (
(301,505,ls),
(313,540,o),
(324,579,o),
(333,610,cs),
(338,628,o),
(342,646,o),
(347,663,c),
(350,663,l),
(354,646,o),
(358,628,o),
(363,611,cs),
(371,580,o),
(382,541,o),
(395,505,cs),
(466,297,l),
(228,297,l)
);
},
{
closed = 1;
nodes = (
(198,785,l),
(292,785,l),
(348,846,l),
(350,846,l),
(404,785,l),
(500,785,l),
(402,898,l),
(299,898,l)
);
}
);
width = 698;
}
);
note = Acircumflex;
unicode = 194;
},
{
glyphname = Atilde;
kernLeft = A;
kernRight = A;
layers = (
{
hints = (
{
horizontal = 1;
place = (0, 21);
target = up;
type = BottomGhost;
},
{
horizontal = 1;
place = (217, 80);
place = (217, 80);
type = Stem;
},
{
horizontal = 1;
place = (663, 81);
place = (663, 81);
type = Stem;
},
{
horizontal = 1;
place = (786, 69);
place = (786, 69);
type = Stem;
},
{
place = (200, 64);
place = (200, 64);
type = Stem;
},
{
place = (435, 64);
place = (435, 64);
type = Stem;
},
{
horizontal = 1;
place = (825, 69);
place = (825, 69);
type = Stem;
}
);
layerId = m01;
shapes = (
{
closed = 1;
nodes = (
(19,0,l),
(124,0,l),
(200,217,l),
(493,217,l),
(567,0,l),
(679,0,l),
(405,744,l),
(291,744,l)
);
},
{
closed = 1;
nodes = (
(301,505,ls),
(313,540,o),
(324,579,o),
(333,610,cs),
(338,628,o),
(342,646,o),
(347,663,c),
(350,663,l),
(354,646,o),
(358,628,o),
(363,611,cs),
(371,580,o),
(382,541,o),
(395,505,cs),
(466,297,l),
(228,297,l)
);
},
{
closed = 1;
nodes = (
(472,786,o),
(496,825,o),
(499,892,c),
(435,892,l),
(432,873,o),
(427,855,o),
(407,855,cs),
(370,855,o),
(340,894,o),
(284,894,cs),
(233,894,o),
(203,856,o),
(200,787,c),
(264,787,l),
(267,807,o),
(277,825,o),
(293,825,cs),
(321,825,o),
(364,786,o),
(416,786,cs)
);
}
);
width = 698;
}
);
note = Atilde;
unicode = 195;
},
{
glyphname = Adieresis;
kernLeft = A;
kernRight = A;
layers = (
{
hints = (
{
horizontal = 1;
place = (0, 21);
target = up;
type = BottomGhost;
},
{
horizontal = 1;
place = (217, 80);
place = (217, 80);
type = Stem;
},
{
horizontal = 1;
place = (663, 81);
place = (663, 81);
type = Stem;
},
{
horizontal = 1;
place = (785, 108);
place = (785, 108);
type = Stem;
},
{
place = (201, 94);
place = (201, 94);
type = Stem;
},
{
place = (403, 94);
place = (403, 94);
type = Stem;
}
);
layerId = m01;
shapes = (
{
closed = 1;
nodes = (
(19,0,l),
(124,0,l),
(200,217,l),
(493,217,l),
(567,0,l),
(679,0,l),
(405,744,l),
(291,744,l)
);
},
{
closed = 1;
nodes = (
(301,505,ls),
(313,540,o),
(324,579,o),
(333,610,cs),
(338,628,o),
(342,646,o),
(347,663,c),
(350,663,l),
(354,646,o),
(358,628,o),
(363,611,cs),
(371,580,o),
(382,541,o),
(395,505,cs),
(466,297,l),
(228,297,l)
);
},
{
closed = 1;
nodes = (
(403,785,l),
(497,785,l),
(497,893,l),
(403,893,l)
);
},
{
closed = 1;
nodes = (
(201,785,l),
(295,785,l),
(295,893,l),
(201,893,l)
);
}
);
width = 698;
}
);
note = Adieresis;
unicode = 196;
},
{
glyphname = Aring;
kernLeft = A;
kernRight = A;
layers = (
{
hints = (
{
horizontal = 1;
place = (0, 21);
target = up;
type = BottomGhost;
},
{
horizontal = 1;
place = (217, 80);
place = (217, 80);
type = Stem;
},
{
horizontal = 1;
place = (663, 81);
place = (663, 81);
type = Stem;
},
{
horizontal = 1;
place = (778, 42);
place = (778, 42);
type = Stem;
},
{
horizontal = 1;
place = (937, 41);
place = (937, 41);
type = Stem;
},
{
place = (247, 47);
place = (247, 47);
type = Stem;
},
{
place = (405, 47);
place = (405, 47);
type = Stem;
}
);
layerId = m01;
shapes = (
{
closed = 1;
nodes = (
(19,0,l),
(124,0,l),
(200,217,l),
(493,217,l),
(567,0,l),
(679,0,l),
(405,744,l),
(291,744,l)
);
},
{
closed = 1;
nodes = (
(301,505,ls),
(313,540,o),
(324,579,o),
(333,610,cs),
(338,628,o),
(342,646,o),
(347,663,c),
(350,663,l),
(354,646,o),
(358,628,o),
(363,611,cs),
(371,580,o),
(382,541,o),
(395,505,cs),
(466,297,l),
(228,297,l)
);
},
{
closed = 1;
nodes = (
(406,778,o),
(452,823,o),
(452,879,cs),
(452,935,o),
(406,978,o),
(350,978,cs),
(293,978,o),
(247,935,o),
(247,879,cs),
(247,823,o),
(293,778,o),
(350,778,cs)
);
},
{
closed = 1;
nodes = (
(317,820,o),
(294,844,o),
(294,879,cs),
(294,912,o),
(317,937,o),
(350,937,cs),
(382,937,o),
(405,912,o),
(405,879,cs),
(405,844,o),
(382,820,o),
(350,820,cs)
);
}
);
width = 698;
}
);
note = Aring;
unicode = 197;
},
{
glyphname = AE;
kernRight = E;
layers = (
{
hints = (
{
horizontal = 1;
place = (0, 94);
place = (0, 94);
type = Stem;
},
{
horizontal = 1;
place = (217, 82);
place = (217, 82);
type = Stem;
},
{
horizontal = 1;
place = (344, 85);
place = (344, 85);
type = Stem;
},
{
horizontal = 1;
place = (654, 90);
place = (654, 90);
type = Stem;
},
{
place = (463, 103);
place = (463, 103);
type = Stem;
}
);
layerId = m01;
shapes = (
{
closed = 1;
nodes = (
(949,744,l),
(293,744,l),
(24,0,l),
(127,0,l),
(203,217,l),
(463,217,l),
(463,0,l),
(961,0,l),
(961,94,l),
(566,94,l),
(566,344,l),
(908,344,l),
(908,429,l),
(566,429,l),
(566,654,l),
(949,654,l)
);
},
{
closed = 1;
nodes = (
(358,654,l),
(463,654,l),
(463,299,l),
(232,299,l)
);
}
);
width = 1010;
}
);
note = AE;
unicode = 198;
},
{
glyphname = Ccedilla;
kernLeft = C;
kernRight = C;
layers = (
{
hints = (
{
horizontal = 1;
place = (-208, 46);
place = (-208, 46);
type = Stem;
},
{
horizontal = 1;
place = (-94, 36);
place = (-94, 36);
type = Stem;
},
{
horizontal = 1;
place = (-13, 21);
target = up;
type = BottomGhost;
},
{
horizontal = 1;
place = (671, 89);
place = (671, 89);
type = Stem;
},
{
place = (49, 104);
place = (49, 104);
type = Stem;
},
{
place = (402, 70);
place = (402, 70);
type = Stem;
},
{
horizontal = 1;
place = (-13, 87);
place = (-13, 87);
type = Stem;
}
);
layerId = m01;
shapes = (
{
closed = 1;
nodes = (
(426,-208,o),
(472,-180,o),
(472,-127,cs),
(472,-66,o),
(409,-53,o),
(369,-58,c),
(369,-56,l),
(416,-15,l),
(505,-12,o),
(574,15,o),
(623,64,cs),
(676,114,o),
(712,198,o),
(712,271,c),
(610,271,l),
(602,165,o),
(535,74,o),
(401,74,cs),
(251,74,o),
(153,193,o),
(153,372,cs),
(153,544,o),
(243,671,o),
(400,671,cs),
(515,671,o),
(585,611,o),
(602,519,c),
(704,519,l),
(693,591,o),
(662,651,o),
(609,694,cs),
(558,735,o),
(490,760,o),
(402,760,cs),
(181,760,o),
(49,591,o),
(49,372,cs),
(49,161,o),
(170,6,o),
(361,-13,c),
(301,-76,l),
(317,-101,l),
(329,-97,o),
(341,-94,o),
(360,-94,cs),
(384,-94,o),
(402,-103,o),
(402,-127,cs),
(402,-154,o),
(374,-162,o),
(339,-162,cs),
(312,-162,o),
(287,-157,o),
(264,-146,c),
(248,-177,l),
(273,-194,o),
(308,-208,o),
(359,-208,cs)
);
}
);
width = 756;
}
);
note = Ccedilla;
unicode = 199;
},
{
glyphname = Egrave;
kernRight = E;
layers = (
{
hints = (
{
horizontal = 1;
place = (0, 93);
place = (0, 93);
type = Stem;
},
{
horizontal = 1;
place = (344, 85);
place = (344, 85);
type = Stem;
},
{
horizontal = 1;
place = (654, 90);
place = (654, 90);
type = Stem;
},
{
horizontal = 1;
place = (785, 125);
place = (785, 125);
type = Stem;
},
{
place = (77, 102);
place = (77, 102);
type = Stem;
}
);
layerId = m01;
shapes = (
{
closed = 1;
nodes = (
(77,0,l),
(617,0,l),
(617,93,l),
(179,93,l),
(179,344,l),
(565,344,l),
(565,429,l),
(179,429,l),
(179,654,l),
(606,654,l),
(606,744,l),
(77,744,l)
);
},
{
closed = 1;
nodes = (
(315,785,l),
(393,785,l),
(340,910,l),
(226,910,l)
);
}
);
width = 666;
}
);
note = Egrave;
unicode = 200;
},
{
glyphname = Eacute;
kernRight = E;
layers = (
{
hints = (
{
horizontal = 1;
place = (0, 93);
place = (0, 93);
type = Stem;
},
{
horizontal = 1;
place = (344, 85);
place = (344, 85);
type = Stem;
},
{
horizontal = 1;
place = (654, 90);
place = (654, 90);
type = Stem;
},
{
horizontal = 1;
place = (785, 125);
place = (785, 125);
type = Stem;
},
{
place = (77, 102);
place = (77, 102);
type = Stem;
}
);
layerId = m01;
shapes = (
{
closed = 1;
nodes = (
(77,0,l),
(617,0,l),
(617,93,l),
(179,93,l),
(179,344,l),
(565,344,l),
(565,429,l),
(179,429,l),
(179,654,l),
(606,654,l),
(606,744,l),
(77,744,l)
);
},
{
closed = 1;
nodes = (
(310,785,l),
(388,785,l),
(477,910,l),
(363,910,l)
);
}
);
width = 666;
}
);
note = Eacute;
unicode = 201;
},
{
glyphname = Ecircumflex;
kernRight = E;
layers = (
{
hints = (
{
horizontal = 1;
place = (0, 93);
place = (0, 93);
type = Stem;
},
{
horizontal = 1;
place = (344, 85);
place = (344, 85);
type = Stem;
},
{
horizontal = 1;
place = (654, 90);
place = (654, 90);
type = Stem;
},
{
horizontal = 1;
place = (785, 113);
place = (785, 113);
type = Stem;
},
{
place = (77, 102);
place = (77, 102);
type = Stem;
}
);
layerId = m01;
shapes = (
{
closed = 1;
nodes = (
(77,0,l),
(617,0,l),
(617,93,l),
(179,93,l),
(179,344,l),
(565,344,l),
(565,429,l),
(179,429,l),
(179,654,l),
(606,654,l),
(606,744,l),
(77,744,l)
);
},
{
closed = 1;
nodes = (
(202,785,l),
(296,785,l),
(352,846,l),
(354,846,l),
(408,785,l),
(504,785,l),
(406,898,l),
(303,898,l)
);
}
);
width = 666;
}
);
note = Ecircumflex;
unicode = 202;
},
{
glyphname = Edieresis;
kernRight = E;
layers = (
{
hints = (
{
horizontal = 1;
place = (0, 93);
place = (0, 93);
type = Stem;
},
{
horizontal = 1;
place = (344, 85);
place = (344, 85);
type = Stem;
},
{
horizontal = 1;
place = (654, 90);
place = (654, 90);
type = Stem;
},
{
horizontal = 1;
place = (785, 108);
place = (785, 108);
type = Stem;
},
{
place = (77, 102);
place = (77, 102);
type = Stem;
},
{
place = (407, 94);
place = (407, 94);
type = Stem;
},
{
place = (205, 94);
place = (205, 94);
type = Stem;
}
);
layerId = m01;
shapes = (
{
closed = 1;
nodes = (
(77,0,l),
(617,0,l),
(617,93,l),
(179,93,l),
(179,344,l),
(565,344,l),
(565,429,l),
(179,429,l),
(179,654,l),
(606,654,l),
(606,744,l),
(77,744,l)
);
},
{
closed = 1;
nodes = (
(205,785,l),
(299,785,l),
(299,893,l),
(205,893,l)
);
},
{
closed = 1;
nodes = (
(407,785,l),
(501,785,l),
(501,893,l),
(407,893,l)
);
}
);
width = 666;
}
);
note = Edieresis;
unicode = 203;
},
{
glyphname = Igrave;
layers = (
{
hints = (
{
horizontal = 1;
place = (0, 21);
target = up;
type = BottomGhost;
},
{
horizontal = 1;
place = (744, -20);
target = down;
type = TopGhost;
},
{
horizontal = 1;
place = (785, 125);
place = (785, 125);
type = Stem;
},
{
place = (79, 102);
place = (79, 102);
type = Stem;
}
);
layerId = m01;
shapes = (
{
closed = 1;
nodes = (
(79,0,l),
(181,0,l),
(181,744,l),
(79,744,l)
);
},
{
closed = 1;
nodes = (
(92,785,l),
(170,785,l),
(117,910,l),
(3,910,l)
);
}
);
width = 260;
}
);
note = Igrave;
unicode = 204;
},
{
glyphname = Iacute;
layers = (
{
hints = (
{
horizontal = 1;
place = (0, 21);
target = up;
type = BottomGhost;
},
{
horizontal = 1;
place = (744, -20);
target = down;
type = TopGhost;
},
{
horizontal = 1;
place = (785, 125);
place = (785, 125);
type = Stem;
},
{
place = (79, 102);
place = (79, 102);
type = Stem;
}
);
layerId = m01;
shapes = (
{
closed = 1;
nodes = (
(79,0,l),
(181,0,l),
(181,744,l),
(79,744,l)
);
},
{
closed = 1;
nodes = (
(87,785,l),
(165,785,l),
(254,910,l),
(140,910,l)
);
}
);
width = 260;
}
);
note = Iacute;
unicode = 205;
},
{
glyphname = Icircumflex;
layers = (
{
hints = (
{
horizontal = 1;
place = (0, 21);
target = up;
type = BottomGhost;
},
{
horizontal = 1;
place = (744, -20);
target = down;
type = TopGhost;
},
{
horizontal = 1;
place = (785, 113);
place = (785, 113);
type = Stem;
},
{
place = (79, 102);
place = (79, 102);
type = Stem;
}
);
layerId = m01;
shapes = (
{
closed = 1;
nodes = (
(79,0,l),
(181,0,l),
(181,744,l),
(79,744,l)
);
},
{
closed = 1;
nodes = (
(-21,785,l),
(73,785,l),
(129,846,l),
(131,846,l),
(185,785,l),
(281,785,l),
(183,898,l),
(80,898,l)
);
}
);
width = 260;
}
);
note = Icircumflex;
unicode = 206;
},
{
glyphname = Idieresis;
layers = (
{
hints = (
{
horizontal = 1;
place = (0, 21);
target = up;
type = BottomGhost;
},
{
horizontal = 1;
place = (744, -20);
target = down;
type = TopGhost;
},
{
horizontal = 1;
place = (785, 108);
place = (785, 108);
type = Stem;
},
{
place = (79, 102);
place = (79, 102);
type = Stem;
},
{
place = (174, 94);
place = (174, 94);
type = Stem;
},
{
place = (-8, 94);
place = (-8, 94);
type = Stem;
}
);
layerId = m01;
shapes = (
{
closed = 1;
nodes = (
(79,0,l),
(181,0,l),
(181,744,l),
(79,744,l)
);
},
{
closed = 1;
nodes = (
(174,785,l),
(268,785,l),
(268,893,l),
(174,893,l)
);
},
{
closed = 1;
nodes = (
(-8,785,l),
(86,785,l),
(86,893,l),
(-8,893,l)
);
}
);
width = 260;
}
);
note = Idieresis;
unicode = 207;
},
{
glyphname = Eth;
kernLeft = Eth;
kernRight = D;
layers = (
{
hints = (
{
horizontal = 1;
place = (0, 89);
place = (0, 89);
type = Stem;
},
{
horizontal = 1;
place = (331, 86);
place = (331, 86);
type = Stem;
},
{
horizontal = 1;
place = (655, 89);
place = (655, 89);
type = Stem;
},
{
place = (87, 103);
place = (87, 103);
type = Stem;
},
{
place = (589, 105);
place = (589, 105);
type = Stem;
}
);
layerId = m01;
shapes = (
{
closed = 1;
nodes = (
(13,331,l),
(87,331,l),
(87,0,l),
(355,0,ls),
(579,0,o),
(694,148,o),
(694,369,cs),
(694,593,o),
(585,744,o),
(362,744,cs),
(87,744,l),
(87,417,l),
(13,417,l)
);
},
{
closed = 1;
nodes = (
(190,89,l),
(190,331,l),
(400,331,l),
(400,417,l),
(190,417,l),
(190,655,l),
(357,655,ls),
(526,655,o),
(589,541,o),
(589,369,cs),
(589,197,o),
(519,89,o),
(351,89,cs)
);
}
);
width = 742;
}
);
note = Eth;
unicode = 208;
},
{
glyphname = Ntilde;
layers = (
{
hints = (
{
horizontal = 1;
place = (0, 21);
target = up;
type = BottomGhost;
},
{
horizontal = 1;
place = (744, -20);
target = down;
type = TopGhost;
},
{
horizontal = 1;
place = (786, 69);
place = (786, 69);
type = Stem;
},
{
place = (77, 96);
place = (77, 96);
type = Stem;
},
{
place = (568, 96);
place = (568, 96);
type = Stem;
},
{
horizontal = 1;
place = (613, 131);
place = (613, 131);
type = Stem;
},
{
horizontal = 1;
place = (0, 130);
place = (0, 130);
type = Stem;
},
{
place = (464, 64);
place = (464, 64);
type = Stem;
},
{
horizontal = 1;
place = (825, 69);
place = (825, 69);
type = Stem;
},
{
place = (229, 64);
place = (229, 64);
type = Stem;
}
);
layerId = m01;
shapes = (
{
closed = 1;
nodes = (
(77,0,l),
(173,0,l),
(173,456,ls),
(173,487,o),
(171,525,o),
(170,557,cs),
(169,576,o),
(168,594,o),
(167,613,c),
(169,613,l),
(178,595,o),
(188,577,o),
(198,560,cs),
(215,529,o),
(235,494,o),
(254,466,cs),
(558,0,l),
(664,0,l),
(664,744,l),
(568,744,l),
(568,289,ls),
(568,258,o),
(568,218,o),
(571,186,cs),
(572,167,o),
(574,149,o),
(575,130,c),
(572,130,l),
(563,148,o),
(553,166,o),
(544,183,cs),
(528,214,o),
(508,250,o),
(489,278,cs),
(184,744,l),
(77,744,l)
);
},
{
closed = 1;
nodes = (
(501,786,o),
(525,825,o),
(528,892,c),
(464,892,l),
(461,873,o),
(456,855,o),
(436,855,cs),
(399,855,o),
(369,894,o),
(313,894,cs),
(262,894,o),
(232,856,o),
(229,787,c),
(293,787,l),
(296,807,o),
(306,825,o),
(322,825,cs),
(350,825,o),
(393,786,o),
(445,786,cs)
);
}
);
width = 741;
}
);
note = Ntilde;
unicode = 209;
},
{
glyphname = Ograve;
kernLeft = C;
kernRight = O;
layers = (
{
hints = (
{
horizontal = 1;
place = (-16, 90);
place = (-16, 90);
type = Stem;
},
{
horizontal = 1;
place = (672, 88);
place = (672, 88);
type = Stem;
},
{
place = (49, 104);
place = (49, 104);
type = Stem;
},
{
place = (672, 106);
place = (672, 106);
type = Stem;
},
{
horizontal = 1;
place = (785, 125);
place = (785, 125);
type = Stem;
}
);
layerId = m01;
shapes = (
{
closed = 1;
nodes = (
(637,-16,o),
(778,151,o),
(778,372,cs),
(778,595,o),
(637,760,o),
(413,760,cs),
(188,760,o),
(49,595,o),
(49,372,cs),
(49,151,o),
(188,-16,o),
(413,-16,cs)
);
},
{
closed = 1;
nodes = (
(245,74,o),
(153,201,o),
(153,372,cs),
(153,543,o),
(245,672,o),
(413,672,cs),
(582,672,o),
(672,543,o),
(672,372,cs),
(672,201,o),
(582,74,o),
(413,74,cs)
);
},
{
closed = 1;
nodes = (
(375,785,l),
(453,785,l),
(400,910,l),
(286,910,l)
);
}
);
width = 826;
}
);
note = Ograve;
unicode = 210;
},
{
glyphname = Oacute;
kernLeft = C;
kernRight = O;
layers = (
{
hints = (
{
horizontal = 1;
place = (-16, 90);
place = (-16, 90);
type = Stem;
},
{
horizontal = 1;
place = (672, 88);
place = (672, 88);
type = Stem;
},
{
place = (49, 104);
place = (49, 104);
type = Stem;
},
{
place = (672, 106);
place = (672, 106);
type = Stem;
},
{
horizontal = 1;
place = (785, 125);
place = (785, 125);
type = Stem;
}
);
layerId = m01;
shapes = (
{
closed = 1;
nodes = (
(637,-16,o),
(778,151,o),
(778,372,cs),
(778,595,o),
(637,760,o),
(413,760,cs),
(188,760,o),
(49,595,o),
(49,372,cs),
(49,151,o),
(188,-16,o),
(413,-16,cs)
);
},
{
closed = 1;
nodes = (
(245,74,o),
(153,201,o),
(153,372,cs),
(153,543,o),
(245,672,o),
(413,672,cs),
(582,672,o),
(672,543,o),
(672,372,cs),
(672,201,o),
(582,74,o),
(413,74,cs)
);
},
{
closed = 1;
nodes = (
(370,785,l),
(448,785,l),
(537,910,l),
(423,910,l)
);
}
);
width = 826;
}
);
note = Oacute;
unicode = 211;
},
{
glyphname = Ocircumflex;
kernLeft = C;
kernRight = O;
layers = (
{
hints = (
{
horizontal = 1;
place = (-16, 90);
place = (-16, 90);
type = Stem;
},
{
horizontal = 1;
place = (672, 88);
place = (672, 88);
type = Stem;
},
{
place = (49, 104);
place = (49, 104);
type = Stem;
},
{
place = (672, 106);
place = (672, 106);
type = Stem;
},
{
horizontal = 1;
place = (785, 113);
place = (785, 113);
type = Stem;
}
);
layerId = m01;
shapes = (
{
closed = 1;
nodes = (
(637,-16,o),
(778,151,o),
(778,372,cs),
(778,595,o),
(637,760,o),
(413,760,cs),
(188,760,o),
(49,595,o),
(49,372,cs),
(49,151,o),
(188,-16,o),
(413,-16,cs)
);
},
{
closed = 1;
nodes = (
(245,74,o),
(153,201,o),
(153,372,cs),
(153,543,o),
(245,672,o),
(413,672,cs),
(582,672,o),
(672,543,o),
(672,372,cs),
(672,201,o),
(582,74,o),
(413,74,cs)
);
},
{
closed = 1;
nodes = (
(262,785,l),
(356,785,l),
(412,846,l),
(414,846,l),
(468,785,l),
(564,785,l),
(466,898,l),
(363,898,l)
);
}
);
width = 826;
}
);
note = Ocircumflex;
unicode = 212;
},
{
glyphname = Otilde;
kernLeft = C;
kernRight = O;
layers = (
{
hints = (
{
horizontal = 1;
place = (-16, 90);
place = (-16, 90);
type = Stem;
},
{
horizontal = 1;
place = (672, 88);
place = (672, 88);
type = Stem;
},
{
place = (49, 104);
place = (49, 104);
type = Stem;
},
{
place = (672, 106);
place = (672, 106);
type = Stem;
},
{
horizontal = 1;
place = (786, 69);
place = (786, 69);
type = Stem;
},
{
place = (499, 64);
place = (499, 64);
type = Stem;
},
{
horizontal = 1;
place = (825, 69);
place = (825, 69);
type = Stem;
},
{
place = (264, 64);
place = (264, 64);
type = Stem;
}
);
layerId = m01;
shapes = (
{
closed = 1;
nodes = (
(637,-16,o),
(778,151,o),
(778,372,cs),
(778,595,o),
(637,760,o),
(413,760,cs),
(188,760,o),
(49,595,o),
(49,372,cs),
(49,151,o),
(188,-16,o),
(413,-16,cs)
);
},
{
closed = 1;
nodes = (
(245,74,o),
(153,201,o),
(153,372,cs),
(153,543,o),
(245,672,o),
(413,672,cs),
(582,672,o),
(672,543,o),
(672,372,cs),
(672,201,o),
(582,74,o),
(413,74,cs)
);
},
{
closed = 1;
nodes = (
(536,786,o),
(560,825,o),
(563,892,c),
(499,892,l),
(496,873,o),
(491,855,o),
(471,855,cs),
(434,855,o),
(404,894,o),
(348,894,cs),
(297,894,o),
(267,856,o),
(264,787,c),
(328,787,l),
(331,807,o),
(341,825,o),
(357,825,cs),
(385,825,o),
(428,786,o),
(480,786,cs)
);
}
);
width = 826;
}
);
note = Otilde;
unicode = 213;
},
{
glyphname = Odieresis;
kernLeft = C;
kernRight = O;
layers = (
{
hints = (
{
horizontal = 1;
place = (-16, 90);
place = (-16, 90);
type = Stem;
},
{
horizontal = 1;
place = (672, 88);
place = (672, 88);
type = Stem;
},
{
place = (49, 104);
place = (49, 104);
type = Stem;
},
{
place = (265, 94);
place = (265, 94);
type = Stem;
},
{
place = (467, 94);
place = (467, 94);
type = Stem;
},
{
place = (672, 106);
place = (672, 106);
type = Stem;
},
{
horizontal = 1;
place = (785, 108);
place = (785, 108);
type = Stem;
}
);
layerId = m01;
shapes = (
{
closed = 1;
nodes = (
(637,-16,o),
(778,151,o),
(778,372,cs),
(778,595,o),
(637,760,o),
(413,760,cs),
(188,760,o),
(49,595,o),
(49,372,cs),
(49,151,o),
(188,-16,o),
(413,-16,cs)
);
},
{
closed = 1;
nodes = (
(245,74,o),
(153,201,o),
(153,372,cs),
(153,543,o),
(245,672,o),
(413,672,cs),
(582,672,o),
(672,543,o),
(672,372,cs),
(672,201,o),
(582,74,o),
(413,74,cs)
);
},
{
closed = 1;
nodes = (
(467,785,l),
(561,785,l),
(561,893,l),
(467,893,l)
);
},
{
closed = 1;
nodes = (
(265,785,l),
(359,785,l),
(359,893,l),
(265,893,l)
);
}
);
width = 826;
}
);
note = Odieresis;
unicode = 214;
},
{
glyphname = multiply;
layers = (
{
hints = (
{
horizontal = 1;
place = (118, 442);
place = (118, 442);
type = Stem;
},
{
place = (81, 440);
place = (81, 440);
type = Stem;
}
);
layerId = m01;
shapes = (
{
closed = 1;
nodes = (
(132,118,l),
(300,288,l),
(469,118,l),
(521,168,l),
(351,339,l),
(521,510,l),
(469,560,l),
(301,390,l),
(132,560,l),
(81,510,l),
(250,338,l),
(81,167,l)
);
}
);
width = 601;
}
);
note = multiply;
unicode = 215;
},
{
glyphname = Oslash;
kernLeft = C;
kernRight = O;
layers = (
{
hints = (
{
horizontal = 1;
place = (-16, 90);
place = (-16, 90);
type = Stem;
},
{
horizontal = 1;
place = (672, 88);
place = (672, 88);
type = Stem;
},
{
place = (49, 104);
place = (49, 104);
type = Stem;
},
{
place = (672, 106);
place = (672, 106);
type = Stem;
},
{
horizontal = 1;
place = (1, 21);
target = up;
type = BottomGhost;
}
);
layerId = m01;
shapes = (
{
closed = 1;
nodes = (
(70,-38,l),
(171,70,l),
(232,15,o),
(313,-16,o),
(413,-16,cs),
(637,-16,o),
(778,151,o),
(778,372,cs),
(778,475,o),
(748,563,o),
(695,631,c),
(789,732,l),
(747,769,l),
(656,672,l),
(595,728,o),
(513,760,o),
(413,760,cs),
(188,760,o),
(49,595,o),
(49,372,cs),
(49,269,o),
(77,180,o),
(132,112,c),
(28,1,l)
);
},
{
closed = 1;
nodes = (
(153,543,o),
(245,672,o),
(413,672,cs),
(489,672,o),
(548,646,o),
(591,602,c),
(200,185,l),
(169,236,o),
(153,300,o),
(153,372,cs)
);
},
{
closed = 1;
nodes = (
(337,74,o),
(280,99,o),
(237,140,c),
(626,557,l),
(657,506,o),
(672,444,o),
(672,372,cs),
(672,201,o),
(582,74,o),
(413,74,cs)
);
}
);
width = 826;
}
);
note = Oslash;
unicode = 216;
},
{
glyphname = Ugrave;
kernLeft = U;
kernRight = U;
layers = (
{
hints = (
{
horizontal = 1;
place = (-11, 87);
place = (-11, 87);
type = Stem;
},
{
horizontal = 1;
place = (744, -20);
target = down;
type = TopGhost;
},
{
horizontal = 1;
place = (785, 125);
place = (785, 125);
type = Stem;
},
{
place = (65, 102);
place = (65, 102);
type = Stem;
},
{
place = (537, 102);
place = (537, 102);
type = Stem;
}
);
layerId = m01;
shapes = (
{
closed = 1;
nodes = (
(515,-11,o),
(639,63,o),
(639,242,cs),
(639,744,l),
(537,744,l),
(537,251,ls),
(537,128,o),
(470,76,o),
(354,76,cs),
(234,76,o),
(167,128,o),
(167,251,cs),
(167,744,l),
(65,744,l),
(65,242,ls),
(65,63,o),
(185,-11,o),
(352,-11,cs)
);
},
{
closed = 1;
nodes = (
(314,785,l),
(392,785,l),
(339,910,l),
(225,910,l)
);
}
);
width = 704;
}
);
note = Ugrave;
unicode = 217;
},
{
glyphname = Uacute;
kernLeft = U;
kernRight = U;
layers = (
{
hints = (
{
horizontal = 1;
place = (-11, 87);
place = (-11, 87);
type = Stem;
},
{
horizontal = 1;
place = (744, -20);
target = down;
type = TopGhost;
},
{
horizontal = 1;
place = (785, 125);
place = (785, 125);
type = Stem;
},
{
place = (65, 102);
place = (65, 102);
type = Stem;
},
{
place = (537, 102);
place = (537, 102);
type = Stem;
}
);
layerId = m01;
shapes = (
{
closed = 1;
nodes = (
(515,-11,o),
(639,63,o),
(639,242,cs),
(639,744,l),
(537,744,l),
(537,251,ls),
(537,128,o),
(470,76,o),
(354,76,cs),
(234,76,o),
(167,128,o),
(167,251,cs),
(167,744,l),
(65,744,l),
(65,242,ls),
(65,63,o),
(185,-11,o),
(352,-11,cs)
);
},
{
closed = 1;
nodes = (
(309,785,l),
(387,785,l),
(476,910,l),
(362,910,l)
);
}
);
width = 704;
}
);
note = Uacute;
unicode = 218;
},
{
glyphname = Ucircumflex;
kernLeft = U;
kernRight = U;
layers = (
{
hints = (
{
horizontal = 1;
place = (-11, 87);
place = (-11, 87);
type = Stem;
},
{
horizontal = 1;
place = (744, -20);
target = down;
type = TopGhost;
},
{
horizontal = 1;
place = (785, 113);
place = (785, 113);
type = Stem;
},
{
place = (65, 102);
place = (65, 102);
type = Stem;
},
{
place = (537, 102);
place = (537, 102);
type = Stem;
}
);
layerId = m01;
shapes = (
{
closed = 1;
nodes = (
(515,-11,o),
(639,63,o),
(639,242,cs),
(639,744,l),
(537,744,l),
(537,251,ls),
(537,128,o),
(470,76,o),
(354,76,cs),
(234,76,o),
(167,128,o),
(167,251,cs),
(167,744,l),
(65,744,l),
(65,242,ls),
(65,63,o),
(185,-11,o),
(352,-11,cs)
);
},
{
closed = 1;
nodes = (
(201,785,l),
(295,785,l),
(351,846,l),
(353,846,l),
(407,785,l),
(503,785,l),
(405,898,l),
(302,898,l)
);
}
);
width = 704;
}
);
note = Ucircumflex;
unicode = 219;
},
{
glyphname = Udieresis;
kernLeft = U;
kernRight = U;
layers = (
{
hints = (
{
horizontal = 1;
place = (-11, 87);
place = (-11, 87);
type = Stem;
},
{
horizontal = 1;
place = (744, -20);
target = down;
type = TopGhost;
},
{
horizontal = 1;
place = (785, 108);
place = (785, 108);
type = Stem;
},
{
place = (65, 102);
place = (65, 102);
type = Stem;
},
{
place = (204, 94);
place = (204, 94);
type = Stem;
},
{
place = (406, 94);
place = (406, 94);
type = Stem;
},
{
place = (537, 102);
place = (537, 102);
type = Stem;
}
);
layerId = m01;
shapes = (
{
closed = 1;
nodes = (
(515,-11,o),
(639,63,o),
(639,242,cs),
(639,744,l),
(537,744,l),
(537,251,ls),
(537,128,o),
(470,76,o),
(354,76,cs),
(234,76,o),
(167,128,o),
(167,251,cs),
(167,744,l),
(65,744,l),
(65,242,ls),
(65,63,o),
(185,-11,o),
(352,-11,cs)
);
},
{
closed = 1;
nodes = (
(406,785,l),
(500,785,l),
(500,893,l),
(406,893,l)
);
},
{
closed = 1;
nodes = (
(204,785,l),
(298,785,l),
(298,893,l),
(204,893,l)
);
}
);
width = 704;
}
);
note = Udieresis;
unicode = 220;
},
{
glyphname = Yacute;
kernLeft = Y;
kernRight = Y;
layers = (
{
hints = (
{
horizontal = 1;
place = (0, 21);
target = up;
type = BottomGhost;
},
{
horizontal = 1;
place = (744, -20);
target = down;
type = TopGhost;
},
{
horizontal = 1;
place = (785, 125);
place = (785, 125);
type = Stem;
},
{
place = (286, 102);
place = (286, 102);
type = Stem;
}
);
layerId = m01;
shapes = (
{
closed = 1;
nodes = (
(286,0,l),
(388,0,l),
(388,307,l),
(659,744,l),
(550,744,l),
(415,520,ls),
(399,493,o),
(381,459,o),
(366,431,cs),
(357,414,o),
(349,398,o),
(341,381,c),
(339,381,l),
(314,431,ls),
(299,459,o),
(281,493,o),
(266,520,cs),
(132,744,l),
(18,744,l),
(286,312,l)
);
},
{
closed = 1;
nodes = (
(298,785,l),
(376,785,l),
(465,910,l),
(351,910,l)
);
}
);
width = 678;
}
);
note = Yacute;
unicode = 221;
},
{
glyphname = Thorn;
layers = (
{
hints = (
{
horizontal = 1;
place = (0, 21);
target = up;
type = BottomGhost;
},
{
horizontal = 1;
place = (176, 83);
place = (176, 83);
type = Stem;
},
{
horizontal = 1;
place = (525, 90);
place = (525, 90);
type = Stem;
},
{
horizontal = 1;
place = (744, -20);
target = down;
type = TopGhost;
},
{
place = (77, 103);
place = (77, 103);
type = Stem;
},
{
place = (519, 102);
place = (519, 102);
type = Stem;
}
);
layerId = m01;
shapes = (
{
closed = 1;
nodes = (
(77,0,l),
(180,0,l),
(180,176,l),
(380,176,ls),
(541,176,o),
(621,260,o),
(621,397,cs),
(621,456,o),
(601,504,o),
(568,543,cs),
(529,590,o),
(470,615,o),
(390,615,cs),
(180,615,l),
(180,744,l),
(77,744,l)
);
},
{
closed = 1;
nodes = (
(374,525,ls),
(466,525,o),
(519,481,o),
(519,393,cs),
(519,310,o),
(471,259,o),
(370,259,cs),
(180,259,l),
(180,525,l)
);
}
);
width = 647;
}
);
note = Thorn;
unicode = 222;
},
{
glyphname = germandbls;
kernLeft = germandbls;
kernRight = germandbls;
layers = (
{
hints = (
{
horizontal = 1;
place = (-11, 75);
place = (-11, 75);
type = Stem;
},
{
horizontal = 1;
place = (380, 67);
place = (380, 67);
type = Stem;
},
{
horizontal = 1;
place = (678, 75);
place = (678, 75);
type = Stem;
},
{
place = (64, 93);
place = (64, 93);
type = Stem;
},
{
place = (234, 126);
place = (234, 126);
type = Stem;
},
{
place = (420, 94);
place = (420, 94);
type = Stem;
},
{
horizontal = 1;
place = (0, 64);
place = (0, 64);
type = Stem;
},
{
place = (391, 91);
place = (391, 91);
type = Stem;
},
{
horizontal = 1;
place = (-5, 21);
target = up;
type = BottomGhost;
}
);
layerId = m01;
shapes = (
{
closed = 1;
nodes = (
(426,-11,o),
(514,79,o),
(514,223,cs),
(514,332,o),
(453,396,o),
(360,419,c),
(360,421,l),
(441,446,o),
(482,497,o),
(482,573,cs),
(482,681,o),
(394,753,o),
(279,753,cs),
(145,753,o),
(64,675,o),
(64,563,cs),
(64,0,l),
(157,0,l),
(157,558,ls),
(157,630,o),
(199,678,o),
(276,678,cs),
(349,678,o),
(391,634,o),
(391,569,cs),
(391,496,o),
(339,447,o),
(263,447,cs),
(234,447,l),
(234,380,l),
(262,380,ls),
(365,380,o),
(420,321,o),
(420,221,cs),
(420,107,o),
(338,47,o),
(229,68,c),
(227,68,l),
(227,-5,l),
(244,-9,o),
(265,-11,o),
(282,-11,cs)
);
}
);
width = 549;
}
);
note = germandbls;
unicode = 223;
},
{
glyphname = agrave;
kernLeft = a;
kernRight = a;
layers = (
{
hints = (
{
horizontal = 1;
place = (-11, 68);
place = (-11, 68);
type = Stem;
},
{
horizontal = 1;
place = (482, 68);
place = (482, 68);
type = Stem;
},
{
horizontal = 1;
place = (625, 145);
place = (625, 145);
type = Stem;
},
{
place = (42, 98);
place = (42, 98);
type = Stem;
},
{
place = (404, 85);
place = (404, 85);
type = Stem;
},
{
horizontal = 1;
place = (-5, 70);
place = (-5, 70);
type = Stem;
}
);
layerId = m01;
shapes = (
{
closed = 1;
nodes = (
(314,-11,o),
(370,32,o),
(404,79,c),
(405,79,l),
(416,22,o),
(443,-5,o),
(500,-5,cs),
(523,-5,o),
(537,-1,o),
(550,3,c),
(550,68,l),
(546,68,l),
(499,57,o),
(489,81,o),
(489,124,cs),
(489,375,ls),
(489,447,o),
(462,494,o),
(417,521,cs),
(382,541,o),
(338,550,o),
(287,550,cs),
(143,550,o),
(72,469,o),
(69,378,c),
(159,378,l),
(162,442,o),
(203,482,o),
(288,482,cs),
(363,482,o),
(403,447,o),
(403,388,cs),
(403,334,o),
(353,319,o),
(273,311,cs),
(134,295,o),
(42,267,o),
(42,142,cs),
(42,39,o),
(122,-11,o),
(224,-11,cs)
);
},
{
closed = 1;
nodes = (
(193,57,o),
(140,74,o),
(140,143,cs),
(140,218,o),
(198,232,o),
(286,248,cs),
(330,256,o),
(377,269,o),
(404,286,c),
(404,198,ls),
(404,137,o),
(354,57,o),
(247,57,cs)
);
},
{
closed = 1;
nodes = (
(248,625,l),
(326,625,l),
(273,770,l),
(159,770,l)
);
}
);
width = 562;
}
);
note = agrave;
unicode = 224;
},
{
glyphname = aacute;
kernLeft = a;
kernRight = a;
layers = (
{
hints = (
{
horizontal = 1;
place = (-11, 68);
place = (-11, 68);
type = Stem;
},
{
horizontal = 1;
place = (482, 68);
place = (482, 68);
type = Stem;
},
{
horizontal = 1;
place = (625, 145);
place = (625, 145);
type = Stem;
},
{
place = (42, 98);
place = (42, 98);
type = Stem;
},
{
place = (404, 85);
place = (404, 85);
type = Stem;
},
{
horizontal = 1;
place = (-5, 70);
place = (-5, 70);
type = Stem;
}
);
layerId = m01;
shapes = (
{
closed = 1;
nodes = (
(314,-11,o),
(370,32,o),
(404,79,c),
(405,79,l),
(416,22,o),
(443,-5,o),
(500,-5,cs),
(523,-5,o),
(537,-1,o),
(550,3,c),
(550,68,l),
(546,68,l),
(499,57,o),
(489,81,o),
(489,124,cs),
(489,375,ls),
(489,447,o),
(462,494,o),
(417,521,cs),
(382,541,o),
(338,550,o),
(287,550,cs),
(143,550,o),
(72,469,o),
(69,378,c),
(159,378,l),
(162,442,o),
(203,482,o),
(288,482,cs),
(363,482,o),
(403,447,o),
(403,388,cs),
(403,334,o),
(353,319,o),
(273,311,cs),
(134,295,o),
(42,267,o),
(42,142,cs),
(42,39,o),
(122,-11,o),
(224,-11,cs)
);
},
{
closed = 1;
nodes = (
(193,57,o),
(140,74,o),
(140,143,cs),
(140,218,o),
(198,232,o),
(286,248,cs),
(330,256,o),
(377,269,o),
(404,286,c),
(404,198,ls),
(404,137,o),
(354,57,o),
(247,57,cs)
);
},
{
closed = 1;
nodes = (
(239,625,l),
(317,625,l),
(406,770,l),
(292,770,l)
);
}
);
width = 562;
}
);
note = aacute;
unicode = 225;
},
{
glyphname = acircumflex;
kernLeft = a;
kernRight = a;
layers = (
{
hints = (
{
horizontal = 1;
place = (-11, 68);
place = (-11, 68);
type = Stem;
},
{
horizontal = 1;
place = (482, 68);
place = (482, 68);
type = Stem;
},
{
horizontal = 1;
place = (629, 123);
place = (629, 123);
type = Stem;
},
{
place = (42, 98);
place = (42, 98);
type = Stem;
},
{
place = (404, 85);
place = (404, 85);
type = Stem;
},
{
horizontal = 1;
place = (-5, 70);
place = (-5, 70);
type = Stem;
},
{
horizontal = 1;
place = (704, 48);
place = (704, 48);
type = Stem;
}
);
layerId = m01;
shapes = (
{
closed = 1;
nodes = (
(314,-11,o),
(370,32,o),
(404,79,c),
(405,79,l),
(416,22,o),
(443,-5,o),
(500,-5,cs),
(523,-5,o),
(537,-1,o),
(550,3,c),
(550,68,l),
(546,68,l),
(499,57,o),
(489,81,o),
(489,124,cs),
(489,375,ls),
(489,447,o),
(462,494,o),
(417,521,cs),
(382,541,o),
(338,550,o),
(287,550,cs),
(143,550,o),
(72,469,o),
(69,378,c),
(159,378,l),
(162,442,o),
(203,482,o),
(288,482,cs),
(363,482,o),
(403,447,o),
(403,388,cs),
(403,334,o),
(353,319,o),
(273,311,cs),
(134,295,o),
(42,267,o),
(42,142,cs),
(42,39,o),
(122,-11,o),
(224,-11,cs)
);
},
{
closed = 1;
nodes = (
(193,57,o),
(140,74,o),
(140,143,cs),
(140,218,o),
(198,232,o),
(286,248,cs),
(330,256,o),
(377,269,o),
(404,286,c),
(404,198,ls),
(404,137,o),
(354,57,o),
(247,57,cs)
);
},
{
closed = 1;
nodes = (
(135,629,l),
(227,629,l),
(281,704,l),
(283,704,l),
(335,629,l),
(429,629,l),
(335,752,l),
(232,752,l)
);
}
);
width = 562;
}
);
note = acircumflex;
unicode = 226;
},
{
glyphname = atilde;
kernLeft = a;
kernRight = a;
layers = (
{
hints = (
{
horizontal = 1;
place = (-11, 68);
place = (-11, 68);
type = Stem;
},
{
horizontal = 1;
place = (482, 68);
place = (482, 68);
type = Stem;
},
{
horizontal = 1;
place = (631, 69);
place = (631, 69);
type = Stem;
},
{
place = (42, 98);
place = (42, 98);
type = Stem;
},
{
place = (404, 85);
place = (404, 85);
type = Stem;
},
{
horizontal = 1;
place = (-5, 70);
place = (-5, 70);
type = Stem;
},
{
place = (368, 64);
place = (368, 64);
type = Stem;
},
{
horizontal = 1;
place = (670, 69);
place = (670, 69);
type = Stem;
},
{
place = (133, 64);
place = (133, 64);
type = Stem;
}
);
layerId = m01;
shapes = (
{
closed = 1;
nodes = (
(314,-11,o),
(370,32,o),
(404,79,c),
(405,79,l),
(416,22,o),
(443,-5,o),
(500,-5,cs),
(523,-5,o),
(537,-1,o),
(550,3,c),
(550,68,l),
(546,68,l),
(499,57,o),
(489,81,o),
(489,124,cs),
(489,375,ls),
(489,447,o),
(462,494,o),
(417,521,cs),
(382,541,o),
(338,550,o),
(287,550,cs),
(143,550,o),
(72,469,o),
(69,378,c),
(159,378,l),
(162,442,o),
(203,482,o),
(288,482,cs),
(363,482,o),
(403,447,o),
(403,388,cs),
(403,334,o),
(353,319,o),
(273,311,cs),
(134,295,o),
(42,267,o),
(42,142,cs),
(42,39,o),
(122,-11,o),
(224,-11,cs)
);
},
{
closed = 1;
nodes = (
(193,57,o),
(140,74,o),
(140,143,cs),
(140,218,o),
(198,232,o),
(286,248,cs),
(330,256,o),
(377,269,o),
(404,286,c),
(404,198,ls),
(404,137,o),
(354,57,o),
(247,57,cs)
);
},
{
closed = 1;
nodes = (
(405,631,o),
(429,670,o),
(432,737,c),
(368,737,l),
(365,718,o),
(360,700,o),
(340,700,cs),
(303,700,o),
(273,739,o),
(217,739,cs),
(166,739,o),
(136,701,o),
(133,632,c),
(197,632,l),
(200,652,o),
(210,670,o),
(226,670,cs),
(254,670,o),
(297,631,o),
(349,631,cs)
);
}
);
width = 562;
}
);
note = atilde;
unicode = 227;
},
{
glyphname = adieresis;
kernLeft = a;
kernRight = a;
layers = (
{
hints = (
{
horizontal = 1;
place = (-11, 68);
place = (-11, 68);
type = Stem;
},
{
horizontal = 1;
place = (482, 68);
place = (482, 68);
type = Stem;
},
{
horizontal = 1;
place = (636, 108);
place = (636, 108);
type = Stem;
},
{
place = (137, 92);
place = (137, 92);
type = Stem;
},
{
place = (404, 85);
place = (404, 85);
type = Stem;
},
{
place = (42, 98);
place = (42, 98);
type = Stem;
},
{
horizontal = 1;
place = (-5, 70);
place = (-5, 70);
type = Stem;
},
{
place = (335, 92);
place = (335, 92);
type = Stem;
}
);
layerId = m01;
shapes = (
{
closed = 1;
nodes = (
(314,-11,o),
(370,32,o),
(404,79,c),
(405,79,l),
(416,22,o),
(443,-5,o),
(500,-5,cs),
(523,-5,o),
(537,-1,o),
(550,3,c),
(550,68,l),
(546,68,l),
(499,57,o),
(489,81,o),
(489,124,cs),
(489,375,ls),
(489,447,o),
(462,494,o),
(417,521,cs),
(382,541,o),
(338,550,o),
(287,550,cs),
(143,550,o),
(72,469,o),
(69,378,c),
(159,378,l),
(162,442,o),
(203,482,o),
(288,482,cs),
(363,482,o),
(403,447,o),
(403,388,cs),
(403,334,o),
(353,319,o),
(273,311,cs),
(134,295,o),
(42,267,o),
(42,142,cs),
(42,39,o),
(122,-11,o),
(224,-11,cs)
);
},
{
closed = 1;
nodes = (
(193,57,o),
(140,74,o),
(140,143,cs),
(140,218,o),
(198,232,o),
(286,248,cs),
(330,256,o),
(377,269,o),
(404,286,c),
(404,198,ls),
(404,137,o),
(354,57,o),
(247,57,cs)
);
},
{
closed = 1;
nodes = (
(335,636,l),
(427,636,l),
(427,744,l),
(335,744,l)
);
},
{
closed = 1;
nodes = (
(137,636,l),
(229,636,l),
(229,744,l),
(137,744,l)
);
}
);
width = 562;
}
);
note = adieresis;
unicode = 228;
},
{
glyphname = aring;
kernLeft = a;
kernRight = a;
layers = (
{
hints = (
{
horizontal = 1;
place = (-11, 68);
place = (-11, 68);
type = Stem;
},
{
horizontal = 1;
place = (482, 68);
place = (482, 68);
type = Stem;
},
{
horizontal = 1;
place = (599, 42);
place = (599, 42);
type = Stem;
},
{
horizontal = 1;
place = (758, 41);
place = (758, 41);
type = Stem;
},
{
place = (42, 98);
place = (42, 98);
type = Stem;
},
{
place = (180, 47);
place = (180, 47);
type = Stem;
},
{
place = (404, 85);
place = (404, 85);
type = Stem;
},
{
horizontal = 1;
place = (-5, 70);
place = (-5, 70);
type = Stem;
},
{
place = (338, 47);
place = (338, 47);
type = Stem;
}
);
layerId = m01;
shapes = (
{
closed = 1;
nodes = (
(314,-11,o),
(370,32,o),
(404,79,c),
(405,79,l),
(416,22,o),
(443,-5,o),
(500,-5,cs),
(523,-5,o),
(537,-1,o),
(550,3,c),
(550,68,l),
(546,68,l),
(499,57,o),
(489,81,o),
(489,124,cs),
(489,375,ls),
(489,447,o),
(462,494,o),
(417,521,cs),
(382,541,o),
(338,550,o),
(287,550,cs),
(143,550,o),
(72,469,o),
(69,378,c),
(159,378,l),
(162,442,o),
(203,482,o),
(288,482,cs),
(363,482,o),
(403,447,o),
(403,388,cs),
(403,334,o),
(353,319,o),
(273,311,cs),
(134,295,o),
(42,267,o),
(42,142,cs),
(42,39,o),
(122,-11,o),
(224,-11,cs)
);
},
{
closed = 1;
nodes = (
(193,57,o),
(140,74,o),
(140,143,cs),
(140,218,o),
(198,232,o),
(286,248,cs),
(330,256,o),
(377,269,o),
(404,286,c),
(404,198,ls),
(404,137,o),
(354,57,o),
(247,57,cs)
);
},
{
closed = 1;
nodes = (
(339,599,o),
(385,644,o),
(385,700,cs),
(385,756,o),
(339,799,o),
(283,799,cs),
(226,799,o),
(180,756,o),
(180,700,cs),
(180,644,o),
(226,599,o),
(283,599,cs)
);
},
{
closed = 1;
nodes = (
(250,641,o),
(227,665,o),
(227,700,cs),
(227,733,o),
(250,758,o),
(283,758,cs),
(315,758,o),
(338,733,o),
(338,700,cs),
(338,665,o),
(315,641,o),
(283,641,cs)
);
}
);
width = 562;
}
);
note = aring;
unicode = 229;
},
{
glyphname = ae;
kernLeft = a;
kernRight = e;
layers = (
{
hints = (
{
horizontal = 1;
place = (-15, 76);
place = (-15, 76);
type = Stem;
},
{
horizontal = 1;
place = (246, 67);
place = (246, 67);
type = Stem;
},
{
horizontal = 1;
place = (482, 68);
place = (482, 68);
type = Stem;
},
{
place = (42, 98);
place = (42, 98);
type = Stem;
},
{
place = (404, 88);
place = (404, 88);
type = Stem;
},
{
place = (785, 98);
place = (785, 98);
type = Stem;
},
{
horizontal = 1;
place = (-12, 69);
place = (-12, 69);
type = Stem;
},
{
horizontal = 1;
place = (478, 72);
place = (478, 72);
type = Stem;
}
);
layerId = m01;
shapes = (
{
closed = 1;
nodes = (
(321,-12,o),
(391,18,o),
(446,103,c),
(448,103,l),
(485,31,o),
(551,-15,o),
(654,-15,cs),
(769,-15,o),
(854,49,o),
(875,153,c),
(784,153,l),
(769,97,o),
(722,61,o),
(654,61,cs),
(548,61,o),
(497,141,o),
(492,246,c),
(883,246,l),
(883,335,o),
(864,412,o),
(821,467,cs),
(780,519,o),
(722,550,o),
(642,550,cs),
(562,550,o),
(504,515,o),
(465,459,c),
(437,524,o),
(374,550,o),
(287,550,cs),
(143,550,o),
(72,469,o),
(69,378,c),
(159,378,l),
(162,442,o),
(203,482,o),
(288,482,cs),
(363,482,o),
(403,447,o),
(403,388,cs),
(403,334,o),
(353,319,o),
(273,311,cs),
(134,295,o),
(42,267,o),
(42,142,cs),
(42,39,o),
(120,-12,o),
(236,-12,cs)
);
},
{
closed = 1;
nodes = (
(193,57,o),
(140,74,o),
(140,143,cs),
(140,218,o),
(198,232,o),
(286,248,cs),
(330,256,o),
(377,269,o),
(404,286,c),
(404,198,ls),
(404,137,o),
(354,57,o),
(247,57,cs)
);
},
{
closed = 1;
nodes = (
(726,478,o),
(782,417,o),
(785,313,c),
(493,313,l),
(504,408,o),
(551,478,o),
(642,478,cs)
);
}
);
width = 918;
}
);
note = ae;
unicode = 230;
},
{
glyphname = ccedilla;
kernLeft = c;
kernRight = c;
layers = (
{
hints = (
{
horizontal = 1;
place = (-208, 46);
place = (-208, 46);
type = Stem;
},
{
horizontal = 1;
place = (-94, 36);
place = (-94, 36);
type = Stem;
},
{
horizontal = 1;
place = (-13, 21);
target = up;
type = BottomGhost;
},
{
horizontal = 1;
place = (475, 75);
place = (475, 75);
type = Stem;
},
{
place = (35, 95);
place = (35, 95);
type = Stem;
},
{
place = (304, 70);
place = (304, 70);
type = Stem;
},
{
horizontal = 1;
place = (-13, 74);
place = (-13, 74);
type = Stem;
}
);
layerId = m01;
shapes = (
{
closed = 1;
nodes = (
(328,-208,o),
(374,-180,o),
(374,-127,cs),
(374,-66,o),
(311,-53,o),
(271,-58,c),
(271,-56,l),
(318,-14,l),
(443,-6,o),
(518,69,o),
(530,190,c),
(438,190,l),
(431,110,o),
(381,61,o),
(297,61,cs),
(187,61,o),
(130,152,o),
(130,268,cs),
(130,384,o),
(187,475,o),
(297,475,cs),
(376,475,o),
(423,433,o),
(436,362,c),
(529,362,l),
(510,478,o),
(426,550,o),
(297,550,cs),
(137,550,o),
(35,424,o),
(35,268,cs),
(35,121,o),
(123,3,o),
(263,-13,c),
(203,-76,l),
(219,-101,l),
(231,-97,o),
(243,-94,o),
(262,-94,cs),
(286,-94,o),
(304,-103,o),
(304,-127,cs),
(304,-154,o),
(276,-162,o),
(241,-162,cs),
(214,-162,o),
(189,-157,o),
(166,-146,c),
(150,-177,l),
(175,-194,o),
(210,-208,o),
(261,-208,cs)
);
}
);
width = 560;
}
);
note = ccedilla;
unicode = 231;
},
{
glyphname = egrave;
kernLeft = c;
kernRight = e;
layers = (
{
hints = (
{
horizontal = 1;
place = (-15, 76);
place = (-15, 76);
type = Stem;
},
{
horizontal = 1;
place = (246, 67);
place = (246, 67);
type = Stem;
},
{
horizontal = 1;
place = (478, 72);
place = (478, 72);
type = Stem;
},
{
horizontal = 1;
place = (625, 145);
place = (625, 145);
type = Stem;
},
{
place = (35, 97);
place = (35, 97);
type = Stem;
},
{
place = (443, 99);
place = (443, 99);
type = Stem;
}
);
layerId = m01;
shapes = (
{
closed = 1;
nodes = (
(421,-15,o),
(507,53,o),
(531,153,c),
(440,153,l),
(423,96,o),
(373,61,o),
(298,61,cs),
(194,61,o),
(138,141,o),
(130,246,c),
(542,246,l),
(542,338,o),
(520,414,o),
(476,467,cs),
(433,519,o),
(372,550,o),
(292,550,cs),
(137,550,o),
(35,424,o),
(35,268,cs),
(35,111,o),
(132,-15,o),
(297,-15,cs)
);
},
{
closed = 1;
nodes = (
(385,478,o),
(438,417,o),
(443,313,c),
(132,313,l),
(143,408,o),
(196,478,o),
(292,478,cs)
);
},
{
closed = 1;
nodes = (
(259,625,l),
(337,625,l),
(284,770,l),
(170,770,l)
);
}
);
width = 577;
}
);
note = egrave;
unicode = 232;
},
{
glyphname = eacute;
kernLeft = c;
kernRight = e;
layers = (
{
hints = (
{
horizontal = 1;
place = (-15, 76);
place = (-15, 76);
type = Stem;
},
{
horizontal = 1;
place = (246, 67);
place = (246, 67);
type = Stem;
},
{
horizontal = 1;
place = (478, 72);
place = (478, 72);
type = Stem;
},
{
horizontal = 1;
place = (625, 145);
place = (625, 145);
type = Stem;
},
{
place = (35, 97);
place = (35, 97);
type = Stem;
},
{
place = (443, 99);
place = (443, 99);
type = Stem;
}
);
layerId = m01;
shapes = (
{
closed = 1;
nodes = (
(421,-15,o),
(507,53,o),
(531,153,c),
(440,153,l),
(423,96,o),
(373,61,o),
(298,61,cs),
(194,61,o),
(138,141,o),
(130,246,c),
(542,246,l),
(542,338,o),
(520,414,o),
(476,467,cs),
(433,519,o),
(372,550,o),
(292,550,cs),
(137,550,o),
(35,424,o),
(35,268,cs),
(35,111,o),
(132,-15,o),
(297,-15,cs)
);
},
{
closed = 1;
nodes = (
(385,478,o),
(438,417,o),
(443,313,c),
(132,313,l),
(143,408,o),
(196,478,o),
(292,478,cs)
);
},
{
closed = 1;
nodes = (
(250,625,l),
(328,625,l),
(417,770,l),
(303,770,l)
);
}
);
width = 577;
}
);
note = eacute;
unicode = 233;
},
{
glyphname = ecircumflex;
kernLeft = c;
kernRight = e;
layers = (
{
hints = (
{
horizontal = 1;
place = (-15, 76);
place = (-15, 76);
type = Stem;
},
{
horizontal = 1;
place = (246, 67);
place = (246, 67);
type = Stem;
},
{
horizontal = 1;
place = (478, 72);
place = (478, 72);
type = Stem;
},
{
horizontal = 1;
place = (629, 123);
place = (629, 123);
type = Stem;
},
{
place = (35, 97);
place = (35, 97);
type = Stem;
},
{
place = (443, 99);
place = (443, 99);
type = Stem;
},
{
horizontal = 1;
place = (704, 48);
place = (704, 48);
type = Stem;
}
);
layerId = m01;
shapes = (
{
closed = 1;
nodes = (
(421,-15,o),
(507,53,o),
(531,153,c),
(440,153,l),
(423,96,o),
(373,61,o),
(298,61,cs),
(194,61,o),
(138,141,o),
(130,246,c),
(542,246,l),
(542,338,o),
(520,414,o),
(476,467,cs),
(433,519,o),
(372,550,o),
(292,550,cs),
(137,550,o),
(35,424,o),
(35,268,cs),
(35,111,o),
(132,-15,o),
(297,-15,cs)
);
},
{
closed = 1;
nodes = (
(385,478,o),
(438,417,o),
(443,313,c),
(132,313,l),
(143,408,o),
(196,478,o),
(292,478,cs)
);
},
{
closed = 1;
nodes = (
(146,629,l),
(238,629,l),
(292,704,l),
(294,704,l),
(346,629,l),
(440,629,l),
(346,752,l),
(243,752,l)
);
}
);
width = 577;
}
);
note = ecircumflex;
unicode = 234;
},
{
glyphname = edieresis;
kernLeft = c;
kernRight = e;
layers = (
{
hints = (
{
horizontal = 1;
place = (-15, 76);
place = (-15, 76);
type = Stem;
},
{
horizontal = 1;
place = (246, 67);
place = (246, 67);
type = Stem;
},
{
horizontal = 1;
place = (478, 72);
place = (478, 72);
type = Stem;
},
{
horizontal = 1;
place = (636, 108);
place = (636, 108);
type = Stem;
},
{
place = (148, 92);
place = (148, 92);
type = Stem;
},
{
place = (346, 92);
place = (346, 92);
type = Stem;
},
{
place = (35, 97);
place = (35, 97);
type = Stem;
},
{
place = (443, 99);
place = (443, 99);
type = Stem;
}
);
layerId = m01;
shapes = (
{
closed = 1;
nodes = (
(421,-15,o),
(507,53,o),
(531,153,c),
(440,153,l),
(423,96,o),
(373,61,o),
(298,61,cs),
(194,61,o),
(138,141,o),
(130,246,c),
(542,246,l),
(542,338,o),
(520,414,o),
(476,467,cs),
(433,519,o),
(372,550,o),
(292,550,cs),
(137,550,o),
(35,424,o),
(35,268,cs),
(35,111,o),
(132,-15,o),
(297,-15,cs)
);
},
{
closed = 1;
nodes = (
(385,478,o),
(438,417,o),
(443,313,c),
(132,313,l),
(143,408,o),
(196,478,o),
(292,478,cs)
);
},
{
closed = 1;
nodes = (
(346,636,l),
(438,636,l),
(438,744,l),
(346,744,l)
);
},
{
closed = 1;
nodes = (
(148,636,l),
(240,636,l),
(240,744,l),
(148,744,l)
);
}
);
width = 577;
}
);
note = edieresis;
unicode = 235;
},
{
glyphname = igrave;
kernLeft = b;
kernRight = d;
layers = (
{
hints = (
{
horizontal = 1;
place = (0, 21);
target = up;
type = BottomGhost;
},
{
horizontal = 1;
place = (537, -20);
target = down;
type = TopGhost;
},
{
horizontal = 1;
place = (625, 145);
place = (625, 145);
type = Stem;
},
{
place = (64, 93);
place = (64, 93);
type = Stem;
}
);
layerId = m01;
shapes = (
{
closed = 1;
nodes = (
(64,0,l),
(157,0,l),
(157,537,l),
(64,537,l)
);
},
{
closed = 1;
nodes = (
(76,625,l),
(154,625,l),
(101,770,l),
(-13,770,l)
);
}
);
width = 221;
}
);
note = igrave;
unicode = 236;
},
{
glyphname = iacute;
kernLeft = b;
kernRight = d;
layers = (
{
hints = (
{
horizontal = 1;
place = (0, 21);
target = up;
type = BottomGhost;
},
{
horizontal = 1;
place = (537, -20);
target = down;
type = TopGhost;
},
{
horizontal = 1;
place = (625, 145);
place = (625, 145);
type = Stem;
},
{
place = (64, 93);
place = (64, 93);
type = Stem;
}
);
layerId = m01;
shapes = (
{
closed = 1;
nodes = (
(64,0,l),
(157,0,l),
(157,537,l),
(64,537,l)
);
},
{
closed = 1;
nodes = (
(67,625,l),
(145,625,l),
(234,770,l),
(120,770,l)
);
}
);
width = 221;
}
);
note = iacute;
unicode = 237;
},
{
glyphname = icircumflex;
kernLeft = b;
kernRight = d;
layers = (
{
hints = (
{
horizontal = 1;
place = (0, 21);
target = up;
type = BottomGhost;
},
{
horizontal = 1;
place = (537, -20);
target = down;
type = TopGhost;
},
{
horizontal = 1;
place = (629, 123);
place = (629, 123);
type = Stem;
},
{
place = (64, 93);
place = (64, 93);
type = Stem;
},
{
horizontal = 1;
place = (704, 48);
place = (704, 48);
type = Stem;
}
);
layerId = m01;
shapes = (
{
closed = 1;
nodes = (
(64,0,l),
(157,0,l),
(157,537,l),
(64,537,l)
);
},
{
closed = 1;
nodes = (
(-37,629,l),
(55,629,l),
(109,704,l),
(111,704,l),
(163,629,l),
(257,629,l),
(163,752,l),
(60,752,l)
);
}
);
width = 221;
}
);
note = icircumflex;
unicode = 238;
},
{
glyphname = idieresis;
kernLeft = b;
kernRight = d;
layers = (
{
hints = (
{
horizontal = 1;
place = (0, 21);
target = up;
type = BottomGhost;
},
{
horizontal = 1;
place = (537, -20);
target = down;
type = TopGhost;
},
{
horizontal = 1;
place = (636, 108);
place = (636, 108);
type = Stem;
},
{
place = (64, 93);
place = (64, 93);
type = Stem;
},
{
place = (-15, 92);
place = (-15, 92);
type = Stem;
},
{
place = (143, 92);
place = (143, 92);
type = Stem;
}
);
layerId = m01;
shapes = (
{
closed = 1;
nodes = (
(64,0,l),
(157,0,l),
(157,537,l),
(64,537,l)
);
},
{
closed = 1;
nodes = (
(143,636,l),
(235,636,l),
(235,744,l),
(143,744,l)
);
},
{
closed = 1;
nodes = (
(-15,636,l),
(77,636,l),
(77,744,l),
(-15,744,l)
);
}
);
width = 221;
}
);
note = idieresis;
unicode = 239;
},
{
glyphname = eth;
kernLeft = eth;
layers = (
{
hints = (
{
horizontal = 1;
place = (-15, 76);
place = (-15, 76);
type = Stem;
},
{
horizontal = 1;
place = (476, 72);
place = (476, 72);
type = Stem;
},
{
horizontal = 1;
place = (737, 7);
place = (737, 7);
type = Stem;
},
{
place = (35, 95);
place = (35, 95);
type = Stem;
},
{
place = (464, 95);
place = (464, 95);
type = Stem;
}
);
layerId = m01;
shapes = (
{
closed = 1;
nodes = (
(200,586,l),
(336,627,l),
(376,586,o),
(412,539,o),
(435,483,c),
(432,483,l),
(396,530,o),
(340,548,o),
(281,548,cs),
(129,548,o),
(35,424,o),
(35,268,cs),
(35,112,o),
(136,-15,o),
(298,-15,cs),
(463,-15,o),
(559,118,o),
(559,299,cs),
(559,459,o),
(496,575,o),
(422,654,c),
(508,680,l),
(491,728,l),
(380,694,l),
(357,713,o),
(336,730,o),
(315,744,c),
(205,744,l),
(205,737,l),
(234,714,o),
(264,694,o),
(293,667,c),
(184,634,l)
);
},
{
closed = 1;
nodes = (
(187,61,o),
(130,152,o),
(130,268,cs),
(130,385,o),
(186,476,o),
(294,476,cs),
(405,476,o),
(464,386,o),
(464,271,cs),
(464,155,o),
(407,61,o),
(297,61,cs)
);
}
);
width = 597;
}
);
note = eth;
unicode = 240;
},
{
glyphname = ntilde;
kernLeft = m;
kernRight = h;
layers = (
{
hints = (
{
horizontal = 1;
place = (0, 21);
target = up;
type = BottomGhost;
},
{
horizontal = 1;
place = (472, 78);
place = (472, 78);
type = Stem;
},
{
horizontal = 1;
place = (631, 69);
place = (631, 69);
type = Stem;
},
{
place = (64, 93);
place = (64, 93);
type = Stem;
},
{
place = (418, 92);
place = (418, 92);
type = Stem;
},
{
horizontal = 1;
place = (537, -20);
target = down;
type = TopGhost;
},
{
place = (376, 64);
place = (376, 64);
type = Stem;
},
{
horizontal = 1;
place = (670, 69);
place = (670, 69);
type = Stem;
},
{
place = (141, 64);
place = (141, 64);
type = Stem;
}
);
layerId = m01;
shapes = (
{
closed = 1;
nodes = (
(156,537,l),
(64,537,l),
(64,0,l),
(157,0,l),
(157,327,ls),
(157,413,o),
(216,472,o),
(300,472,cs),
(373,472,o),
(418,433,o),
(418,364,cs),
(418,0,l),
(510,0,l),
(510,375,ls),
(510,488,o),
(442,550,o),
(329,550,cs),
(250,550,o),
(198,516,o),
(159,461,c),
(156,461,l)
);
},
{
closed = 1;
nodes = (
(413,631,o),
(437,670,o),
(440,737,c),
(376,737,l),
(373,718,o),
(368,700,o),
(348,700,cs),
(311,700,o),
(281,739,o),
(225,739,cs),
(174,739,o),
(144,701,o),
(141,632,c),
(205,632,l),
(208,652,o),
(218,670,o),
(234,670,cs),
(262,670,o),
(305,631,o),
(357,631,cs)
);
}
);
width = 571;
}
);
note = ntilde;
unicode = 241;
},
{
glyphname = ograve;
kernLeft = c;
kernRight = o;
layers = (
{
hints = (
{
horizontal = 1;
place = (-15, 76);
place = (-15, 76);
type = Stem;
},
{
horizontal = 1;
place = (476, 74);
place = (476, 74);
type = Stem;
},
{
horizontal = 1;
place = (625, 145);
place = (625, 145);
type = Stem;
},
{
place = (35, 95);
place = (35, 95);
type = Stem;
},
{
place = (464, 95);
place = (464, 95);
type = Stem;
}
);
layerId = m01;
shapes = (
{
closed = 1;
nodes = (
(460,-15,o),
(559,111,o),
(559,268,cs),
(559,424,o),
(460,550,o),
(298,550,cs),
(136,550,o),
(35,424,o),
(35,268,cs),
(35,111,o),
(136,-15,o),
(298,-15,cs)
);
},
{
closed = 1;
nodes = (
(187,61,o),
(130,152,o),
(130,268,cs),
(130,384,o),
(187,476,o),
(297,476,cs),
(407,476,o),
(464,384,o),
(464,268,cs),
(464,152,o),
(407,61,o),
(297,61,cs)
);
},
{
closed = 1;
nodes = (
(263,625,l),
(341,625,l),
(288,770,l),
(174,770,l)
);
}
);
width = 594;
}
);
note = ograve;
unicode = 242;
},
{
glyphname = oacute;
kernLeft = c;
kernRight = o;
layers = (
{
hints = (
{
horizontal = 1;
place = (-15, 76);
place = (-15, 76);
type = Stem;
},
{
horizontal = 1;
place = (476, 74);
place = (476, 74);
type = Stem;
},
{
horizontal = 1;
place = (625, 145);
place = (625, 145);
type = Stem;
},
{
place = (35, 95);
place = (35, 95);
type = Stem;
},
{
place = (464, 95);
place = (464, 95);
type = Stem;
}
);
layerId = m01;
shapes = (
{
closed = 1;
nodes = (
(460,-15,o),
(559,111,o),
(559,268,cs),
(559,424,o),
(460,550,o),
(298,550,cs),
(136,550,o),
(35,424,o),
(35,268,cs),
(35,111,o),
(136,-15,o),
(298,-15,cs)
);
},
{
closed = 1;
nodes = (
(187,61,o),
(130,152,o),
(130,268,cs),
(130,384,o),
(187,476,o),
(297,476,cs),
(407,476,o),
(464,384,o),
(464,268,cs),
(464,152,o),
(407,61,o),
(297,61,cs)
);
},
{
closed = 1;
nodes = (
(254,625,l),
(332,625,l),
(421,770,l),
(307,770,l)
);
}
);
width = 594;
}
);
note = oacute;
unicode = 243;
},
{
glyphname = ocircumflex;
kernLeft = c;
kernRight = o;
layers = (
{
hints = (
{
horizontal = 1;
place = (-15, 76);
place = (-15, 76);
type = Stem;
},
{
horizontal = 1;
place = (476, 74);
place = (476, 74);
type = Stem;
},
{
horizontal = 1;
place = (629, 123);
place = (629, 123);
type = Stem;
},
{
place = (35, 95);
place = (35, 95);
type = Stem;
},
{
place = (464, 95);
place = (464, 95);
type = Stem;
},
{
horizontal = 1;
place = (704, 48);
place = (704, 48);
type = Stem;
}
);
layerId = m01;
shapes = (
{
closed = 1;
nodes = (
(460,-15,o),
(559,111,o),
(559,268,cs),
(559,424,o),
(460,550,o),
(298,550,cs),
(136,550,o),
(35,424,o),
(35,268,cs),
(35,111,o),
(136,-15,o),
(298,-15,cs)
);
},
{
closed = 1;
nodes = (
(187,61,o),
(130,152,o),
(130,268,cs),
(130,384,o),
(187,476,o),
(297,476,cs),
(407,476,o),
(464,384,o),
(464,268,cs),
(464,152,o),
(407,61,o),
(297,61,cs)
);
},
{
closed = 1;
nodes = (
(150,629,l),
(242,629,l),
(296,704,l),
(298,704,l),
(350,629,l),
(444,629,l),
(350,752,l),
(247,752,l)
);
}
);
width = 594;
}
);
note = ocircumflex;
unicode = 244;
},
{
glyphname = otilde;
kernLeft = c;
kernRight = o;
layers = (
{
hints = (
{
horizontal = 1;
place = (-15, 76);
place = (-15, 76);
type = Stem;
},
{
horizontal = 1;
place = (476, 74);
place = (476, 74);
type = Stem;
},
{
place = (35, 95);
place = (35, 95);
type = Stem;
},
{
place = (464, 95);
place = (464, 95);
type = Stem;
},
{
horizontal = 1;
place = (631, 69);
place = (631, 69);
type = Stem;
},
{
place = (383, 64);
place = (383, 64);
type = Stem;
},
{
horizontal = 1;
place = (670, 69);
place = (670, 69);
type = Stem;
},
{
place = (148, 64);
place = (148, 64);
type = Stem;
}
);
layerId = m01;
shapes = (
{
closed = 1;
nodes = (
(460,-15,o),
(559,111,o),
(559,268,cs),
(559,424,o),
(460,550,o),
(298,550,cs),
(136,550,o),
(35,424,o),
(35,268,cs),
(35,111,o),
(136,-15,o),
(298,-15,cs)
);
},
{
closed = 1;
nodes = (
(187,61,o),
(130,152,o),
(130,268,cs),
(130,384,o),
(187,476,o),
(297,476,cs),
(407,476,o),
(464,384,o),
(464,268,cs),
(464,152,o),
(407,61,o),
(297,61,cs)
);
},
{
closed = 1;
nodes = (
(420,631,o),
(444,670,o),
(447,737,c),
(383,737,l),
(380,718,o),
(375,700,o),
(355,700,cs),
(318,700,o),
(288,739,o),
(232,739,cs),
(181,739,o),
(151,701,o),
(148,632,c),
(212,632,l),
(215,652,o),
(225,670,o),
(241,670,cs),
(269,670,o),
(312,631,o),
(364,631,cs)
);
}
);
width = 594;
}
);
note = otilde;
unicode = 245;
},
{
glyphname = odieresis;
kernLeft = c;
kernRight = o;
layers = (
{
hints = (
{
horizontal = 1;
place = (-15, 76);
place = (-15, 76);
type = Stem;
},
{
horizontal = 1;
place = (476, 74);
place = (476, 74);
type = Stem;
},
{
horizontal = 1;
place = (636, 108);
place = (636, 108);
type = Stem;
},
{
place = (152, 92);
place = (152, 92);
type = Stem;
},
{
place = (350, 92);
place = (350, 92);
type = Stem;
},
{
place = (35, 95);
place = (35, 95);
type = Stem;
},
{
place = (464, 95);
place = (464, 95);
type = Stem;
}
);
layerId = m01;
shapes = (
{
closed = 1;
nodes = (
(460,-15,o),
(559,111,o),
(559,268,cs),
(559,424,o),
(460,550,o),
(298,550,cs),
(136,550,o),
(35,424,o),
(35,268,cs),
(35,111,o),
(136,-15,o),
(298,-15,cs)
);
},
{
closed = 1;
nodes = (
(187,61,o),
(130,152,o),
(130,268,cs),
(130,384,o),
(187,476,o),
(297,476,cs),
(407,476,o),
(464,384,o),
(464,268,cs),
(464,152,o),
(407,61,o),
(297,61,cs)
);
},
{
closed = 1;
nodes = (
(350,636,l),
(442,636,l),
(442,744,l),
(350,744,l)
);
},
{
closed = 1;
nodes = (
(152,636,l),
(244,636,l),
(244,744,l),
(152,744,l)
);
}
);
width = 594;
}
);
note = odieresis;
unicode = 246;
},
{
glyphname = divide;
kernLeft = plus;
kernRight = plus;
layers = (
{
hints = (
{
horizontal = 1;
place = (103, 108);
place = (103, 108);
type = Stem;
},
{
horizontal = 1;
place = (303, 73);
place = (303, 73);
type = Stem;
},
{
horizontal = 1;
place = (467, 109);
place = (467, 109);
type = Stem;
},
{
place = (246, 109);
place = (246, 109);
type = Stem;
}
);
layerId = m01;
shapes = (
{
closed = 1;
nodes = (
(246,467,l),
(355,467,l),
(355,576,l),
(246,576,l)
);
},
{
closed = 1;
nodes = (
(63,303,l),
(537,303,l),
(537,376,l),
(63,376,l)
);
},
{
closed = 1;
nodes = (
(246,103,l),
(355,103,l),
(355,211,l),
(246,211,l)
);
}
);
width = 600;
}
);
note = divide;
unicode = 247;
},
{
glyphname = oslash;
kernLeft = c;
kernRight = o;
layers = (
{
hints = (
{
horizontal = 1;
place = (-15, 76);
place = (-15, 76);
type = Stem;
},
{
horizontal = 1;
place = (476, 74);
place = (476, 74);
type = Stem;
},
{
place = (35, 94);
place = (35, 94);
type = Stem;
},
{
place = (465, 94);
place = (465, 94);
type = Stem;
},
{
horizontal = 1;
place = (550, -20);
target = down;
type = TopGhost;
},
{
horizontal = 1;
place = (-15, 21);
target = up;
type = BottomGhost;
}
);
layerId = m01;
shapes = (
{
closed = 1;
nodes = (
(55,-29,l),
(126,47,l),
(170,8,o),
(227,-15,o),
(298,-15,cs),
(460,-15,o),
(559,111,o),
(559,268,cs),
(559,339,o),
(538,403,o),
(501,452,c),
(574,531,l),
(538,563,l),
(468,488,l),
(425,527,o),
(367,550,o),
(298,550,cs),
(136,550,o),
(35,424,o),
(35,268,cs),
(35,196,o),
(54,132,o),
(93,83,c),
(19,3,l)
);
},
{
closed = 1;
nodes = (
(129,384,o),
(188,476,o),
(297,476,cs),
(346,476,o),
(385,459,o),
(412,428,c),
(154,149,l),
(137,182,o),
(129,221,o),
(129,268,cs)
);
},
{
closed = 1;
nodes = (
(248,61,o),
(210,79,o),
(182,108,c),
(440,386,l),
(457,351,o),
(465,312,o),
(465,268,cs),
(465,152,o),
(406,61,o),
(297,61,cs)
);
}
);
width = 594;
}
);
note = oslash;
unicode = 248;
},
{
glyphname = ugrave;
kernLeft = u;
kernRight = u;
layers = (
{
hints = (
{
horizontal = 1;
place = (-12, 76);
place = (-12, 76);
type = Stem;
},
{
horizontal = 1;
place = (537, -20);
target = down;
type = TopGhost;
},
{
horizontal = 1;
place = (625, 145);
place = (625, 145);
type = Stem;
},
{
place = (61, 93);
place = (61, 93);
type = Stem;
},
{
place = (406, 93);
place = (406, 93);
type = Stem;
},
{
horizontal = 1;
place = (0, 64);
place = (0, 64);
type = Stem;
}
);
layerId = m01;
shapes = (
{
closed = 1;
nodes = (
(499,0,l),
(499,537,l),
(406,537,l),
(406,210,ls),
(406,126,o),
(354,64,o),
(271,64,cs),
(196,64,o),
(154,104,o),
(154,172,cs),
(154,537,l),
(61,537,l),
(61,167,ls),
(61,54,o),
(131,-12,o),
(243,-12,cs),
(320,-12,o),
(366,22,o),
(405,75,c),
(407,75,l),
(407,0,l)
);
},
{
closed = 1;
nodes = (
(246,625,l),
(324,625,l),
(271,770,l),
(157,770,l)
);
}
);
width = 564;
}
);
note = ugrave;
unicode = 249;
},
{
glyphname = uacute;
kernLeft = u;
kernRight = u;
layers = (
{
hints = (
{
horizontal = 1;
place = (-12, 76);
place = (-12, 76);
type = Stem;
},
{
horizontal = 1;
place = (537, -20);
target = down;
type = TopGhost;
},
{
horizontal = 1;
place = (625, 145);
place = (625, 145);
type = Stem;
},
{
place = (61, 93);
place = (61, 93);
type = Stem;
},
{
place = (406, 93);
place = (406, 93);
type = Stem;
},
{
horizontal = 1;
place = (0, 64);
place = (0, 64);
type = Stem;
}
);
layerId = m01;
shapes = (
{
closed = 1;
nodes = (
(499,0,l),
(499,537,l),
(406,537,l),
(406,210,ls),
(406,126,o),
(354,64,o),
(271,64,cs),
(196,64,o),
(154,104,o),
(154,172,cs),
(154,537,l),
(61,537,l),
(61,167,ls),
(61,54,o),
(131,-12,o),
(243,-12,cs),
(320,-12,o),
(366,22,o),
(405,75,c),
(407,75,l),
(407,0,l)
);
},
{
closed = 1;
nodes = (
(237,625,l),
(315,625,l),
(404,770,l),
(290,770,l)
);
}
);
width = 564;
}
);
note = uacute;
unicode = 250;
},
{
glyphname = ucircumflex;
kernLeft = u;
kernRight = u;
layers = (
{
hints = (
{
horizontal = 1;
place = (-12, 76);
place = (-12, 76);
type = Stem;
},
{
horizontal = 1;
place = (537, -20);
target = down;
type = TopGhost;
},
{
horizontal = 1;
place = (629, 123);
place = (629, 123);
type = Stem;
},
{
place = (61, 93);
place = (61, 93);
type = Stem;
},
{
place = (406, 93);
place = (406, 93);
type = Stem;
},
{
horizontal = 1;
place = (0, 64);
place = (0, 64);
type = Stem;
},
{
horizontal = 1;
place = (704, 48);
place = (704, 48);
type = Stem;
}
);
layerId = m01;
shapes = (
{
closed = 1;
nodes = (
(499,0,l),
(499,537,l),
(406,537,l),
(406,210,ls),
(406,126,o),
(354,64,o),
(271,64,cs),
(196,64,o),
(154,104,o),
(154,172,cs),
(154,537,l),
(61,537,l),
(61,167,ls),
(61,54,o),
(131,-12,o),
(243,-12,cs),
(320,-12,o),
(366,22,o),
(405,75,c),
(407,75,l),
(407,0,l)
);
},
{
closed = 1;
nodes = (
(133,629,l),
(225,629,l),
(279,704,l),
(281,704,l),
(333,629,l),
(427,629,l),
(333,752,l),
(230,752,l)
);
}
);
width = 564;
}
);
note = ucircumflex;
unicode = 251;
},
{
glyphname = udieresis;
kernLeft = u;
kernRight = u;
layers = (
{
hints = (
{
horizontal = 1;
place = (-12, 76);
place = (-12, 76);
type = Stem;
},
{
horizontal = 1;
place = (537, -20);
target = down;
type = TopGhost;
},
{
horizontal = 1;
place = (636, 108);
place = (636, 108);
type = Stem;
},
{
place = (61, 93);
place = (61, 93);
type = Stem;
},
{
place = (406, 93);
place = (406, 93);
type = Stem;
},
{
horizontal = 1;
place = (0, 64);
place = (0, 64);
type = Stem;
},
{
place = (135, 92);
place = (135, 92);
type = Stem;
},
{
place = (333, 92);
place = (333, 92);
type = Stem;
}
);
layerId = m01;
shapes = (
{
closed = 1;
nodes = (
(499,0,l),
(499,537,l),
(406,537,l),
(406,210,ls),
(406,126,o),
(354,64,o),
(271,64,cs),
(196,64,o),
(154,104,o),
(154,172,cs),
(154,537,l),
(61,537,l),
(61,167,ls),
(61,54,o),
(131,-12,o),
(243,-12,cs),
(320,-12,o),
(366,22,o),
(405,75,c),
(407,75,l),
(407,0,l)
);
},
{
closed = 1;
nodes = (
(135,636,l),
(227,636,l),
(227,744,l),
(135,744,l)
);
},
{
closed = 1;
nodes = (
(333,636,l),
(425,636,l),
(425,744,l),
(333,744,l)
);
}
);
width = 564;
}
);
note = udieresis;
unicode = 252;
},
{
glyphname = yacute;
kernLeft = y;
kernRight = y;
layers = (
{
hints = (
{
horizontal = 1;
place = (-187, 81);
place = (-187, 81);
type = Stem;
},
{
horizontal = 1;
place = (537, -20);
target = down;
type = TopGhost;
},
{
horizontal = 1;
place = (625, 145);
place = (625, 145);
type = Stem;
},
{
place = (5, 509);
place = (5, 509);
type = Stem;
}
);
layerId = m01;
shapes = (
{
closed = 1;
nodes = (
(201,-187,o),
(240,-162,o),
(286,-49,cs),
(514,537,l),
(417,537,l),
(310,239,ls),
(299,208,o),
(288,173,o),
(279,144,cs),
(274,127,o),
(269,110,o),
(264,94,c),
(262,94,l),
(257,110,o),
(253,127,o),
(248,144,cs),
(239,173,o),
(228,208,o),
(217,239,cs),
(106,537,l),
(5,537,l),
(210,27,l),
(213,22,o),
(191,-40,o),
(191,-41,c),
(172,-92,o),
(148,-106,o),
(111,-106,cs),
(88,-106,o),
(66,-103,o),
(55,-96,c),
(51,-96,l),
(51,-176,l),
(66,-183,o),
(99,-187,o),
(130,-187,cs)
);
},
{
closed = 1;
nodes = (
(219,625,l),
(297,625,l),
(386,770,l),
(272,770,l)
);
}
);
width = 519;
}
);
note = yacute;
unicode = 253;
},
{
glyphname = thorn;
kernRight = b;
layers = (
{
hints = (
{
horizontal = 1;
place = (-16, 77);
place = (-16, 77);
type = Stem;
},
{
horizontal = 1;
place = (471, 79);
place = (471, 79);
type = Stem;
},
{
horizontal = 1;
place = (744, -20);
target = down;
type = TopGhost;
},
{
place = (64, 93);
place = (64, 93);
type = Stem;
},
{
place = (466, 95);
place = (466, 95);
type = Stem;
}
);
layerId = m01;
shapes = (
{
closed = 1;
nodes = (
(472,-16,o),
(561,95,o),
(561,267,cs),
(561,443,o),
(466,550,o),
(330,550,cs),
(253,550,o),
(192,509,o),
(157,452,c),
(154,452,l),
(155,475,o),
(157,513,o),
(157,554,cs),
(157,744,l),
(64,744,l),
(64,-173,l),
(157,-173,l),
(157,-19,ls),
(157,22,o),
(156,52,o),
(155,71,c),
(158,71,l),
(195,14,o),
(255,-16,o),
(327,-16,cs)
);
},
{
closed = 1;
nodes = (
(198,61,o),
(152,152,o),
(152,265,cs),
(152,380,o),
(204,471,o),
(318,471,cs),
(418,471,o),
(466,383,o),
(466,265,cs),
(466,148,o),
(416,61,o),
(317,61,cs)
);
}
);
width = 596;
}
);
note = thorn;
unicode = 254;
},
{
glyphname = ydieresis;
kernLeft = y;
kernRight = y;
layers = (
{
hints = (
{
horizontal = 1;
place = (-187, 81);
place = (-187, 81);
type = Stem;
},
{
horizontal = 1;
place = (537, -20);
target = down;
type = TopGhost;
},
{
horizontal = 1;
place = (636, 108);
place = (636, 108);
type = Stem;
},
{
place = (117, 92);
place = (117, 92);
type = Stem;
},
{
place = (315, 92);
place = (315, 92);
type = Stem;
}
);
layerId = m01;
shapes = (
{
closed = 1;
nodes = (
(201,-187,o),
(240,-162,o),
(286,-49,cs),
(514,537,l),
(417,537,l),
(310,239,ls),
(299,208,o),
(288,173,o),
(279,144,cs),
(274,127,o),
(269,110,o),
(264,94,c),
(262,94,l),
(257,110,o),
(253,127,o),
(248,144,cs),
(239,173,o),
(228,208,o),
(217,239,cs),
(106,537,l),
(5,537,l),
(210,27,l),
(213,22,o),
(191,-40,o),
(191,-41,c),
(172,-92,o),
(148,-106,o),
(111,-106,cs),
(88,-106,o),
(66,-103,o),
(55,-96,c),
(51,-96,l),
(51,-176,l),
(66,-183,o),
(99,-187,o),
(130,-187,cs)
);
},
{
closed = 1;
nodes = (
(315,636,l),
(407,636,l),
(407,744,l),
(315,744,l)
);
},
{
closed = 1;
nodes = (
(117,636,l),
(209,636,l),
(209,744,l),
(117,744,l)
);
}
);
width = 519;
}
);
note = ydieresis;
unicode = 255;
},
{
glyphname = Amacron;
kernLeft = A;
kernRight = A;
layers = (
{
hints = (
{
horizontal = 1;
place = (0, 21);
target = up;
type = BottomGhost;
},
{
horizontal = 1;
place = (217, 80);
place = (217, 80);
type = Stem;
},
{
horizontal = 1;
place = (663, 81);
place = (663, 81);
type = Stem;
},
{
horizontal = 1;
place = (795, 75);
place = (795, 75);
type = Stem;
},
{
place = (19, 660);
place = (19, 660);
type = Stem;
},
{
place = (207, 285);
place = (207, 285);
type = Stem;
}
);
layerId = m01;
shapes = (
{
closed = 1;
nodes = (
(19,0,l),
(124,0,l),
(200,217,l),
(493,217,l),
(567,0,l),
(679,0,l),
(405,744,l),
(291,744,l)
);
},
{
closed = 1;
nodes = (
(301,505,ls),
(313,540,o),
(324,579,o),
(333,610,cs),
(338,628,o),
(342,646,o),
(347,663,c),
(350,663,l),
(354,646,o),
(358,628,o),
(363,611,cs),
(371,580,o),
(382,541,o),
(395,505,cs),
(466,297,l),
(228,297,l)
);
},
{
closed = 1;
nodes = (
(207,795,l),
(492,795,l),
(492,870,l),
(207,870,l)
);
}
);
width = 698;
}
);
note = Amacron;
unicode = 256;
},
{
glyphname = amacron;
kernLeft = a;
kernRight = a;
layers = (
{
hints = (
{
horizontal = 1;
place = (-11, 68);
place = (-11, 68);
type = Stem;
},
{
horizontal = 1;
place = (482, 68);
place = (482, 68);
type = Stem;
},
{
horizontal = 1;
place = (659, 75);
place = (659, 75);
type = Stem;
},
{
place = (42, 98);
place = (42, 98);
type = Stem;
},
{
place = (404, 85);
place = (404, 85);
type = Stem;
},
{
horizontal = 1;
place = (-5, 70);
place = (-5, 70);
type = Stem;
},
{
place = (146, 273);
place = (146, 273);
type = Stem;
}
);
layerId = m01;
shapes = (
{
closed = 1;
nodes = (
(314,-11,o),
(370,32,o),
(404,79,c),
(405,79,l),
(416,22,o),
(443,-5,o),
(500,-5,cs),
(523,-5,o),
(537,-1,o),
(550,3,c),
(550,68,l),
(546,68,l),
(499,57,o),
(489,81,o),
(489,124,cs),
(489,375,ls),
(489,447,o),
(462,494,o),
(417,521,cs),
(382,541,o),
(338,550,o),
(287,550,cs),
(143,550,o),
(72,469,o),
(69,378,c),
(159,378,l),
(162,442,o),
(203,482,o),
(288,482,cs),
(363,482,o),
(403,447,o),
(403,388,cs),
(403,334,o),
(353,319,o),
(273,311,cs),
(134,295,o),
(42,267,o),
(42,142,cs),
(42,39,o),
(122,-11,o),
(224,-11,cs)
);
},
{
closed = 1;
nodes = (
(193,57,o),
(140,74,o),
(140,143,cs),
(140,218,o),
(198,232,o),
(286,248,cs),
(330,256,o),
(377,269,o),
(404,286,c),
(404,198,ls),
(404,137,o),
(354,57,o),
(247,57,cs)
);
},
{
closed = 1;
nodes = (
(146,659,l),
(419,659,l),
(419,734,l),
(146,734,l)
);
}
);
width = 562;
}
);
note = amacron;
unicode = 257;
},
{
glyphname = Abreve;
kernLeft = A;
kernRight = A;
layers = (
{
hints = (
{
horizontal = 1;
place = (0, 21);
target = up;
type = BottomGhost;
},
{
horizontal = 1;
place = (217, 80);
place = (217, 80);
type = Stem;
},
{
horizontal = 1;
place = (663, 81);
place = (663, 81);
type = Stem;
},
{
horizontal = 1;
place = (780, 69);
place = (780, 69);
type = Stem;
},
{
place = (19, 660);
place = (19, 660);
type = Stem;
}
);
layerId = m01;
shapes = (
{
closed = 1;
nodes = (
(19,0,l),
(124,0,l),
(200,217,l),
(493,217,l),
(567,0,l),
(679,0,l),
(405,744,l),
(291,744,l)
);
},
{
closed = 1;
nodes = (
(301,505,ls),
(313,540,o),
(324,579,o),
(333,610,cs),
(338,628,o),
(342,646,o),
(347,663,c),
(350,663,l),
(354,646,o),
(358,628,o),
(363,611,cs),
(371,580,o),
(382,541,o),
(395,505,cs),
(466,297,l),
(228,297,l)
);
},
{
closed = 1;
nodes = (
(429,780,o),
(482,836,o),
(485,908,c),
(420,908,l),
(415,871,o),
(389,849,o),
(348,849,cs),
(305,849,o),
(286,871,o),
(279,908,c),
(213,908,l),
(217,828,o),
(276,780,o),
(349,780,cs)
);
}
);
width = 698;
}
);
note = Abreve;
unicode = 258;
},
{
glyphname = abreve;
kernLeft = a;
kernRight = a;
layers = (
{
hints = (
{
horizontal = 1;
place = (-11, 68);
place = (-11, 68);
type = Stem;
},
{
horizontal = 1;
place = (482, 68);
place = (482, 68);
type = Stem;
},
{
horizontal = 1;
place = (620, 128);
place = (620, 128);
type = Stem;
},
{
place = (42, 98);
place = (42, 98);
type = Stem;
},
{
place = (404, 85);
place = (404, 85);
type = Stem;
},
{
horizontal = 1;
place = (-5, 70);
place = (-5, 70);
type = Stem;
},
{
horizontal = 1;
place = (620, 69);
place = (620, 69);
type = Stem;
}
);
layerId = m01;
shapes = (
{
closed = 1;
nodes = (
(314,-11,o),
(370,32,o),
(404,79,c),
(405,79,l),
(416,22,o),
(443,-5,o),
(500,-5,cs),
(523,-5,o),
(537,-1,o),
(550,3,c),
(550,68,l),
(546,68,l),
(499,57,o),
(489,81,o),
(489,124,cs),
(489,375,ls),
(489,447,o),
(462,494,o),
(417,521,cs),
(382,541,o),
(338,550,o),
(287,550,cs),
(143,550,o),
(72,469,o),
(69,378,c),
(159,378,l),
(162,442,o),
(203,482,o),
(288,482,cs),
(363,482,o),
(403,447,o),
(403,388,cs),
(403,334,o),
(353,319,o),
(273,311,cs),
(134,295,o),
(42,267,o),
(42,142,cs),
(42,39,o),
(122,-11,o),
(224,-11,cs)
);
},
{
closed = 1;
nodes = (
(193,57,o),
(140,74,o),
(140,143,cs),
(140,218,o),
(198,232,o),
(286,248,cs),
(330,256,o),
(377,269,o),
(404,286,c),
(404,198,ls),
(404,137,o),
(354,57,o),
(247,57,cs)
);
},
{
closed = 1;
nodes = (
(362,620,o),
(415,676,o),
(418,748,c),
(353,748,l),
(348,711,o),
(322,689,o),
(281,689,cs),
(238,689,o),
(219,711,o),
(212,748,c),
(146,748,l),
(150,668,o),
(209,620,o),
(282,620,cs)
);
}
);
width = 562;
}
);
note = abreve;
unicode = 259;
},
{
glyphname = Aogonek;
kernLeft = A;
kernRight = A;
layers = (
{
hints = (
{
horizontal = 1;
place = (-191, 67);
place = (-191, 67);
type = Stem;
},
{
horizontal = 1;
place = (0, 21);
target = up;
type = BottomGhost;
},
{
horizontal = 1;
place = (217, 80);
place = (217, 80);
type = Stem;
},
{
horizontal = 1;
place = (663, 81);
place = (663, 81);
type = Stem;
},
{
place = (513, 86);
place = (513, 86);
type = Stem;
}
);
layerId = m01;
shapes = (
{
closed = 1;
nodes = (
(654,-191,o),
(673,-186,o),
(686,-182,c),
(686,-117,l),
(683,-117,l),
(672,-121,o),
(657,-124,o),
(642,-124,cs),
(613,-124,o),
(599,-112,o),
(599,-89,cs),
(599,-60,o),
(632,-23,o),
(679,0,c),
(405,744,l),
(291,744,l),
(19,0,l),
(124,0,l),
(200,217,l),
(493,217,l),
(567,0,l),
(593,0,l),
(557,-18,o),
(513,-54,o),
(513,-103,cs),
(513,-155,o),
(549,-191,o),
(625,-191,cs)
);
},
{
closed = 1;
nodes = (
(301,505,ls),
(313,540,o),
(324,579,o),
(333,610,cs),
(338,628,o),
(342,646,o),
(347,663,c),
(350,663,l),
(354,646,o),
(358,628,o),
(363,611,cs),
(371,580,o),
(382,541,o),
(395,505,cs),
(466,297,l),
(228,297,l)
);
}
);
width = 698;
}
);
note = Aogonek;
unicode = 260;
},
{
glyphname = aogonek;
kernLeft = a;
kernRight = a;
layers = (
{
hints = (
{
horizontal = 1;
place = (-191, 67);
place = (-191, 67);
type = Stem;
},
{
horizontal = 1;
place = (-11, 68);
place = (-11, 68);
type = Stem;
},
{
horizontal = 1;
place = (482, 68);
place = (482, 68);
type = Stem;
},
{
place = (42, 98);
place = (42, 98);
type = Stem;
},
{
place = (404, 85);
place = (404, 85);
type = Stem;
},
{
place = (379, 86);
place = (379, 86);
type = Stem;
}
);
layerId = m01;
shapes = (
{
closed = 1;
nodes = (
(520,-191,o),
(539,-186,o),
(552,-182,c),
(552,-117,l),
(549,-117,l),
(538,-121,o),
(523,-124,o),
(508,-124,cs),
(479,-124,o),
(465,-112,o),
(465,-89,cs),
(465,-58,o),
(494,-16,o),
(550,3,c),
(550,68,l),
(546,68,l),
(499,57,o),
(489,81,o),
(489,124,cs),
(489,375,ls),
(489,447,o),
(462,494,o),
(417,521,cs),
(382,541,o),
(338,550,o),
(287,550,cs),
(143,550,o),
(72,469,o),
(69,378,c),
(159,378,l),
(162,442,o),
(203,482,o),
(288,482,cs),
(363,482,o),
(403,447,o),
(403,388,cs),
(403,334,o),
(353,319,o),
(273,311,cs),
(134,295,o),
(42,267,o),
(42,142,cs),
(42,39,o),
(122,-11,o),
(224,-11,cs),
(314,-11,o),
(370,32,o),
(404,79,c),
(406,79,l),
(412,38,o),
(429,13,o),
(458,2,c),
(420,-20,o),
(379,-55,o),
(379,-103,cs),
(379,-155,o),
(415,-191,o),
(491,-191,cs)
);
},
{
closed = 1;
nodes = (
(193,57,o),
(140,74,o),
(140,143,cs),
(140,218,o),
(198,232,o),
(286,248,cs),
(330,256,o),
(377,269,o),
(404,286,c),
(404,198,ls),
(404,137,o),
(354,57,o),
(247,57,cs)
);
}
);
width = 562;
}
);
note = aogonek;
unicode = 261;
},
{
glyphname = Cacute;
kernLeft = C;
kernRight = C;
layers = (
{
hints = (
{
horizontal = 1;
place = (-15, 89);
place = (-15, 89);
type = Stem;
},
{
horizontal = 1;
place = (671, 89);
place = (671, 89);
type = Stem;
},
{
place = (49, 104);
place = (49, 104);
type = Stem;
},
{
horizontal = 1;
place = (785, 125);
place = (785, 125);
type = Stem;
}
);
layerId = m01;
shapes = (
{
closed = 1;
nodes = (
(496,-15,o),
(570,11,o),
(623,64,cs),
(676,114,o),
(712,198,o),
(712,271,c),
(610,271,l),
(602,165,o),
(535,74,o),
(401,74,cs),
(251,74,o),
(153,193,o),
(153,372,cs),
(153,544,o),
(243,671,o),
(400,671,cs),
(515,671,o),
(585,611,o),
(602,519,c),
(704,519,l),
(693,591,o),
(662,651,o),
(609,694,cs),
(558,735,o),
(490,760,o),
(402,760,cs),
(181,760,o),
(49,591,o),
(49,372,cs),
(49,148,o),
(187,-15,o),
(399,-15,cs)
);
},
{
closed = 1;
nodes = (
(346,785,l),
(424,785,l),
(513,910,l),
(399,910,l)
);
}
);
width = 756;
}
);
note = Cacute;
unicode = 262;
},
{
glyphname = cacute;
kernLeft = c;
kernRight = c;
layers = (
{
hints = (
{
horizontal = 1;
place = (-15, 76);
place = (-15, 76);
type = Stem;
},
{
horizontal = 1;
place = (475, 75);
place = (475, 75);
type = Stem;
},
{
horizontal = 1;
place = (625, 145);
place = (625, 145);
type = Stem;
},
{
place = (35, 95);
place = (35, 95);
type = Stem;
}
);
layerId = m01;
shapes = (
{
closed = 1;
nodes = (
(434,-15,o),
(518,61,o),
(530,190,c),
(438,190,l),
(431,110,o),
(381,61,o),
(297,61,cs),
(187,61,o),
(130,152,o),
(130,268,cs),
(130,384,o),
(187,475,o),
(297,475,cs),
(376,475,o),
(423,433,o),
(436,362,c),
(529,362,l),
(510,478,o),
(426,550,o),
(297,550,cs),
(137,550,o),
(35,424,o),
(35,268,cs),
(35,111,o),
(137,-15,o),
(297,-15,cs)
);
},
{
closed = 1;
nodes = (
(248,625,l),
(326,625,l),
(415,770,l),
(301,770,l)
);
}
);
width = 560;
}
);
note = cacute;
unicode = 263;
},
{
glyphname = Ccircumflex;
kernLeft = C;
kernRight = C;
layers = (
{
hints = (
{
horizontal = 1;
place = (-15, 89);
place = (-15, 89);
type = Stem;
},
{
horizontal = 1;
place = (671, 89);
place = (671, 89);
type = Stem;
},
{
place = (49, 104);
place = (49, 104);
type = Stem;
},
{
horizontal = 1;
place = (785, 113);
place = (785, 113);
type = Stem;
}
);
layerId = m01;
shapes = (
{
closed = 1;
nodes = (
(496,-15,o),
(570,11,o),
(623,64,cs),
(676,114,o),
(712,198,o),
(712,271,c),
(610,271,l),
(602,165,o),
(535,74,o),
(401,74,cs),
(251,74,o),
(153,193,o),
(153,372,cs),
(153,544,o),
(243,671,o),
(400,671,cs),
(515,671,o),
(585,611,o),
(602,519,c),
(704,519,l),
(693,591,o),
(662,651,o),
(609,694,cs),
(558,735,o),
(490,760,o),
(402,760,cs),
(181,760,o),
(49,591,o),
(49,372,cs),
(49,148,o),
(187,-15,o),
(399,-15,cs)
);
},
{
closed = 1;
nodes = (
(238,785,l),
(332,785,l),
(388,846,l),
(390,846,l),
(444,785,l),
(540,785,l),
(442,898,l),
(339,898,l)
);
}
);
width = 756;
}
);
note = Ccircumflex;
unicode = 264;
},
{
glyphname = ccircumflex;
kernLeft = c;
kernRight = c;
layers = (
{
hints = (
{
horizontal = 1;
place = (-15, 76);
place = (-15, 76);
type = Stem;
},
{
horizontal = 1;
place = (475, 75);
place = (475, 75);
type = Stem;
},
{
horizontal = 1;
place = (629, 123);
place = (629, 123);
type = Stem;
},
{
place = (35, 95);
place = (35, 95);
type = Stem;
},
{
horizontal = 1;
place = (704, 48);
place = (704, 48);
type = Stem;
}
);
layerId = m01;
shapes = (
{
closed = 1;
nodes = (
(434,-15,o),
(518,61,o),
(530,190,c),
(438,190,l),
(431,110,o),
(381,61,o),
(297,61,cs),
(187,61,o),
(130,152,o),
(130,268,cs),
(130,384,o),
(187,475,o),
(297,475,cs),
(376,475,o),
(423,433,o),
(436,362,c),
(529,362,l),
(510,478,o),
(426,550,o),
(297,550,cs),
(137,550,o),
(35,424,o),
(35,268,cs),
(35,111,o),
(137,-15,o),
(297,-15,cs)
);
},
{
closed = 1;
nodes = (
(144,629,l),
(236,629,l),
(290,704,l),
(292,704,l),
(344,629,l),
(438,629,l),
(344,752,l),
(241,752,l)
);
}
);
width = 560;
}
);
note = ccircumflex;
unicode = 265;
},
{
glyphname = Cdotaccent;
kernLeft = C;
kernRight = C;
layers = (
{
hints = (
{
horizontal = 1;
place = (-15, 89);
place = (-15, 89);
type = Stem;
},
{
horizontal = 1;
place = (671, 89);
place = (671, 89);
type = Stem;
},
{
place = (49, 104);
place = (49, 104);
type = Stem;
},
{
place = (341, 97);
place = (341, 97);
type = Stem;
},
{
horizontal = 1;
place = (785, 108);
place = (785, 108);
type = Stem;
}
);
layerId = m01;
shapes = (
{
closed = 1;
nodes = (
(496,-15,o),
(570,11,o),
(623,64,cs),
(676,114,o),
(712,198,o),
(712,271,c),
(610,271,l),
(602,165,o),
(535,74,o),
(401,74,cs),
(251,74,o),
(153,193,o),
(153,372,cs),
(153,544,o),
(243,671,o),
(400,671,cs),
(515,671,o),
(585,611,o),
(602,519,c),
(704,519,l),
(693,591,o),
(662,651,o),
(609,694,cs),
(558,735,o),
(490,760,o),
(402,760,cs),
(181,760,o),
(49,591,o),
(49,372,cs),
(49,148,o),
(187,-15,o),
(399,-15,cs)
);
},
{
closed = 1;
nodes = (
(341,785,l),
(438,785,l),
(438,893,l),
(341,893,l)
);
}
);
width = 756;
}
);
note = Cdotaccent;
unicode = 266;
},
{
glyphname = cdotaccent;
kernLeft = c;
kernRight = c;
layers = (
{
hints = (
{
horizontal = 1;
place = (-15, 76);
place = (-15, 76);
type = Stem;
},
{
horizontal = 1;
place = (475, 75);
place = (475, 75);
type = Stem;
},
{
horizontal = 1;
place = (636, 108);
place = (636, 108);
type = Stem;
},
{
place = (35, 95);
place = (35, 95);
type = Stem;
},
{
place = (243, 97);
place = (243, 97);
type = Stem;
}
);
layerId = m01;
shapes = (
{
closed = 1;
nodes = (
(434,-15,o),
(518,61,o),
(530,190,c),
(438,190,l),
(431,110,o),
(381,61,o),
(297,61,cs),
(187,61,o),
(130,152,o),
(130,268,cs),
(130,384,o),
(187,475,o),
(297,475,cs),
(376,475,o),
(423,433,o),
(436,362,c),
(529,362,l),
(510,478,o),
(426,550,o),
(297,550,cs),
(137,550,o),
(35,424,o),
(35,268,cs),
(35,111,o),
(137,-15,o),
(297,-15,cs)
);
},
{
closed = 1;
nodes = (
(243,636,l),
(340,636,l),
(340,744,l),
(243,744,l)
);
}
);
width = 560;
}
);
note = cdotaccent;
unicode = 267;
},
{
glyphname = Ccaron;
kernLeft = C;
kernRight = C;
layers = (
{
hints = (
{
horizontal = 1;
place = (-15, 89);
place = (-15, 89);
type = Stem;
},
{
horizontal = 1;
place = (671, 89);
place = (671, 89);
type = Stem;
},
{
place = (49, 104);
place = (49, 104);
type = Stem;
},
{
horizontal = 1;
place = (785, 113);
place = (785, 113);
type = Stem;
}
);
layerId = m01;
shapes = (
{
closed = 1;
nodes = (
(496,-15,o),
(570,11,o),
(623,64,cs),
(676,114,o),
(712,198,o),
(712,271,c),
(610,271,l),
(602,165,o),
(535,74,o),
(401,74,cs),
(251,74,o),
(153,193,o),
(153,372,cs),
(153,544,o),
(243,671,o),
(400,671,cs),
(515,671,o),
(585,611,o),
(602,519,c),
(704,519,l),
(693,591,o),
(662,651,o),
(609,694,cs),
(558,735,o),
(490,760,o),
(402,760,cs),
(181,760,o),
(49,591,o),
(49,372,cs),
(49,148,o),
(187,-15,o),
(399,-15,cs)
);
},
{
closed = 1;
nodes = (
(540,898,l),
(446,898,l),
(390,837,l),
(388,837,l),
(334,898,l),
(238,898,l),
(336,785,l),
(439,785,l)
);
}
);
width = 756;
}
);
note = Ccaron;
unicode = 268;
},
{
glyphname = ccaron;
kernLeft = c;
kernRight = c;
layers = (
{
hints = (
{
horizontal = 1;
place = (-15, 76);
place = (-15, 76);
type = Stem;
},
{
horizontal = 1;
place = (475, 75);
place = (475, 75);
type = Stem;
},
{
horizontal = 1;
place = (625, 124);
place = (625, 124);
type = Stem;
},
{
place = (35, 95);
place = (35, 95);
type = Stem;
},
{
horizontal = 1;
place = (625, 48);
place = (625, 48);
type = Stem;
}
);
layerId = m01;
shapes = (
{
closed = 1;
nodes = (
(434,-15,o),
(518,61,o),
(530,190,c),
(438,190,l),
(431,110,o),
(381,61,o),
(297,61,cs),
(187,61,o),
(130,152,o),
(130,268,cs),
(130,384,o),
(187,475,o),
(297,475,cs),
(376,475,o),
(423,433,o),
(436,362,c),
(529,362,l),
(510,478,o),
(426,550,o),
(297,550,cs),
(137,550,o),
(35,424,o),
(35,268,cs),
(35,111,o),
(137,-15,o),
(297,-15,cs)
);
},
{
closed = 1;
nodes = (
(438,749,l),
(346,749,l),
(292,673,l),
(290,673,l),
(238,749,l),
(144,749,l),
(238,625,l),
(341,625,l)
);
}
);
width = 560;
}
);
note = ccaron;
unicode = 269;
},
{
glyphname = Dcaron;
kernRight = D;
layers = (
{
hints = (
{
horizontal = 1;
place = (0, 89);
place = (0, 89);
type = Stem;
},
{
horizontal = 1;
place = (655, 89);
place = (655, 89);
type = Stem;
},
{
horizontal = 1;
place = (785, 113);
place = (785, 113);
type = Stem;
},
{
place = (77, 103);
place = (77, 103);
type = Stem;
},
{
place = (578, 106);
place = (578, 106);
type = Stem;
}
);
layerId = m01;
shapes = (
{
closed = 1;
nodes = (
(77,0,l),
(345,0,ls),
(568,0,o),
(684,148,o),
(684,369,cs),
(684,593,o),
(574,744,o),
(352,744,cs),
(77,744,l)
);
},
{
closed = 1;
nodes = (
(180,89,l),
(180,655,l),
(347,655,ls),
(515,655,o),
(578,541,o),
(578,369,cs),
(578,197,o),
(509,89,o),
(341,89,cs)
);
},
{
closed = 1;
nodes = (
(489,898,l),
(395,898,l),
(339,837,l),
(337,837,l),
(283,898,l),
(187,898,l),
(285,785,l),
(388,785,l)
);
}
);
width = 732;
}
);
note = Dcaron;
unicode = 270;
},
{
glyphname = dcaron;
kernLeft = d;
kernRight = d;
layers = (
{
hints = (
{
horizontal = 1;
place = (-16, 77);
place = (-16, 77);
type = Stem;
},
{
horizontal = 1;
place = (472, 78);
place = (472, 78);
type = Stem;
},
{
horizontal = 1;
place = (655, 89);
place = (655, 89);
type = Stem;
},
{
place = (35, 95);
place = (35, 95);
type = Stem;
},
{
place = (439, 93);
place = (439, 93);
type = Stem;
},
{
place = (589, 100);
place = (589, 100);
type = Stem;
},
{
horizontal = 1;
place = (0, 61);
place = (0, 61);
type = Stem;
}
);
layerId = m01;
shapes = (
{
closed = 1;
nodes = (
(348,-16,o),
(403,18,o),
(438,77,c),
(440,77,l),
(440,0,l),
(532,0,l),
(532,744,l),
(439,744,l),
(439,554,ls),
(439,518,o),
(439,479,o),
(442,455,c),
(440,455,l),
(405,512,o),
(346,550,o),
(270,550,cs),
(137,550,o),
(35,443,o),
(35,267,cs),
(35,94,o),
(127,-16,o),
(272,-16,cs)
);
},
{
closed = 1;
nodes = (
(180,61,o),
(130,149,o),
(130,266,cs),
(130,384,o),
(180,472,o),
(279,472,cs),
(387,472,o),
(444,387,o),
(444,266,cs),
(444,149,o),
(394,61,o),
(279,61,cs)
);
},
{
closed = 1;
nodes = (
(689,744,l),
(589,744,l),
(589,655,l),
(635,655,l),
(635,623,o),
(622,606,o),
(587,601,c),
(587,557,l),
(648,560,o),
(689,593,o),
(689,661,cs)
);
}
);
width = 596;
}
);
note = dcaron;
unicode = 271;
},
{
glyphname = Dcroat;
kernLeft = Eth;
kernRight = D;
layers = (
{
hints = (
{
horizontal = 1;
place = (0, 89);
place = (0, 89);
type = Stem;
},
{
horizontal = 1;
place = (331, 86);
place = (331, 86);
type = Stem;
},
{
horizontal = 1;
place = (655, 89);
place = (655, 89);
type = Stem;
},
{
place = (87, 103);
place = (87, 103);
type = Stem;
},
{
place = (589, 105);
place = (589, 105);
type = Stem;
}
);
layerId = m01;
shapes = (
{
closed = 1;
nodes = (
(13,331,l),
(87,331,l),
(87,0,l),
(355,0,ls),
(579,0,o),
(694,148,o),
(694,369,cs),
(694,593,o),
(585,744,o),
(362,744,cs),
(87,744,l),
(87,417,l),
(13,417,l)
);
},
{
closed = 1;
nodes = (
(190,89,l),
(190,331,l),
(400,331,l),
(400,417,l),
(190,417,l),
(190,655,l),
(357,655,ls),
(526,655,o),
(589,541,o),
(589,369,cs),
(589,197,o),
(519,89,o),
(351,89,cs)
);
}
);
width = 742;
}
);
note = Dcroat;
unicode = 272;
},
{
glyphname = dcroat;
kernLeft = d;
layers = (
{
hints = (
{
horizontal = 1;
place = (-16, 77);
place = (-16, 77);
type = Stem;
},
{
horizontal = 1;
place = (472, 78);
place = (472, 78);
type = Stem;
},
{
horizontal = 1;
place = (608, 136);
place = (608, 136);
type = Stem;
},
{
place = (35, 95);
place = (35, 95);
type = Stem;
},
{
place = (439, 93);
place = (439, 93);
type = Stem;
},
{
horizontal = 1;
place = (608, 62);
place = (608, 62);
type = Stem;
},
{
horizontal = 1;
place = (0, 61);
place = (0, 61);
type = Stem;
}
);
layerId = m01;
shapes = (
{
closed = 1;
nodes = (
(604,670,l),
(532,670,l),
(532,744,l),
(439,744,l),
(439,670,l),
(287,670,l),
(287,608,l),
(439,608,l),
(439,554,ls),
(439,518,o),
(439,479,o),
(442,455,c),
(440,455,l),
(405,512,o),
(346,550,o),
(270,550,cs),
(137,550,o),
(35,443,o),
(35,267,cs),
(35,94,o),
(127,-16,o),
(272,-16,cs),
(348,-16,o),
(403,18,o),
(438,77,c),
(440,77,l),
(440,0,l),
(532,0,l),
(532,608,l),
(604,608,l)
);
},
{
closed = 1;
nodes = (
(180,61,o),
(130,149,o),
(130,266,cs),
(130,384,o),
(180,472,o),
(279,472,cs),
(387,472,o),
(444,387,o),
(444,266,cs),
(444,149,o),
(394,61,o),
(279,61,cs)
);
}
);
width = 596;
}
);
note = dcroat;
unicode = 273;
},
{
glyphname = Emacron;
kernRight = E;
layers = (
{
hints = (
{
horizontal = 1;
place = (0, 93);
place = (0, 93);
type = Stem;
},
{
horizontal = 1;
place = (344, 85);
place = (344, 85);
type = Stem;
},
{
horizontal = 1;
place = (654, 90);
place = (654, 90);
type = Stem;
},
{
horizontal = 1;
place = (795, 75);
place = (795, 75);
type = Stem;
},
{
place = (77, 102);
place = (77, 102);
type = Stem;
},
{
place = (211, 285);
place = (211, 285);
type = Stem;
}
);
layerId = m01;
shapes = (
{
closed = 1;
nodes = (
(77,0,l),
(617,0,l),
(617,93,l),
(179,93,l),
(179,344,l),
(565,344,l),
(565,429,l),
(179,429,l),
(179,654,l),
(606,654,l),
(606,744,l),
(77,744,l)
);
},
{
closed = 1;
nodes = (
(211,795,l),
(496,795,l),
(496,870,l),
(211,870,l)
);
}
);
width = 666;
}
);
note = Emacron;
unicode = 274;
},
{
glyphname = emacron;
kernLeft = c;
kernRight = e;
layers = (
{
hints = (
{
horizontal = 1;
place = (-15, 76);
place = (-15, 76);
type = Stem;
},
{
horizontal = 1;
place = (246, 67);
place = (246, 67);
type = Stem;
},
{
horizontal = 1;
place = (478, 72);
place = (478, 72);
type = Stem;
},
{
horizontal = 1;
place = (659, 75);
place = (659, 75);
type = Stem;
},
{
place = (35, 97);
place = (35, 97);
type = Stem;
},
{
place = (443, 99);
place = (443, 99);
type = Stem;
},
{
place = (157, 273);
place = (157, 273);
type = Stem;
}
);
layerId = m01;
shapes = (
{
closed = 1;
nodes = (
(421,-15,o),
(507,53,o),
(531,153,c),
(440,153,l),
(423,96,o),
(373,61,o),
(298,61,cs),
(194,61,o),
(138,141,o),
(130,246,c),
(542,246,l),
(542,338,o),
(520,414,o),
(476,467,cs),
(433,519,o),
(372,550,o),
(292,550,cs),
(137,550,o),
(35,424,o),
(35,268,cs),
(35,111,o),
(132,-15,o),
(297,-15,cs)
);
},
{
closed = 1;
nodes = (
(385,478,o),
(438,417,o),
(443,313,c),
(132,313,l),
(143,408,o),
(196,478,o),
(292,478,cs)
);
},
{
closed = 1;
nodes = (
(157,659,l),
(430,659,l),
(430,734,l),
(157,734,l)
);
}
);
width = 577;
}
);
note = emacron;
unicode = 275;
},
{
glyphname = Ebreve;
kernRight = E;
layers = (
{
hints = (
{
horizontal = 1;
place = (0, 93);
place = (0, 93);
type = Stem;
},
{
horizontal = 1;
place = (344, 85);
place = (344, 85);
type = Stem;
},
{
horizontal = 1;
place = (654, 90);
place = (654, 90);
type = Stem;
},
{
horizontal = 1;
place = (780, 69);
place = (780, 69);
type = Stem;
},
{
place = (77, 102);
place = (77, 102);
type = Stem;
}
);
layerId = m01;
shapes = (
{
closed = 1;
nodes = (
(77,0,l),
(617,0,l),
(617,93,l),
(179,93,l),
(179,344,l),
(565,344,l),
(565,429,l),
(179,429,l),
(179,654,l),
(606,654,l),
(606,744,l),
(77,744,l)
);
},
{
closed = 1;
nodes = (
(433,780,o),
(486,836,o),
(489,908,c),
(424,908,l),
(419,871,o),
(393,849,o),
(352,849,cs),
(309,849,o),
(290,871,o),
(283,908,c),
(217,908,l),
(221,828,o),
(280,780,o),
(353,780,cs)
);
}
);
width = 666;
}
);
note = Ebreve;
unicode = 276;
},
{
glyphname = ebreve;
kernLeft = c;
kernRight = e;
layers = (
{
hints = (
{
horizontal = 1;
place = (-15, 76);
place = (-15, 76);
type = Stem;
},
{
horizontal = 1;
place = (246, 67);
place = (246, 67);
type = Stem;
},
{
horizontal = 1;
place = (478, 72);
place = (478, 72);
type = Stem;
},
{
horizontal = 1;
place = (620, 128);
place = (620, 128);
type = Stem;
},
{
place = (35, 97);
place = (35, 97);
type = Stem;
},
{
place = (443, 99);
place = (443, 99);
type = Stem;
},
{
horizontal = 1;
place = (620, 69);
place = (620, 69);
type = Stem;
}
);
layerId = m01;
shapes = (
{
closed = 1;
nodes = (
(421,-15,o),
(507,53,o),
(531,153,c),
(440,153,l),
(423,96,o),
(373,61,o),
(298,61,cs),
(194,61,o),
(138,141,o),
(130,246,c),
(542,246,l),
(542,338,o),
(520,414,o),
(476,467,cs),
(433,519,o),
(372,550,o),
(292,550,cs),
(137,550,o),
(35,424,o),
(35,268,cs),
(35,111,o),
(132,-15,o),
(297,-15,cs)
);
},
{
closed = 1;
nodes = (
(385,478,o),
(438,417,o),
(443,313,c),
(132,313,l),
(143,408,o),
(196,478,o),
(292,478,cs)
);
},
{
closed = 1;
nodes = (
(373,620,o),
(426,676,o),
(429,748,c),
(364,748,l),
(359,711,o),
(333,689,o),
(292,689,cs),
(249,689,o),
(230,711,o),
(223,748,c),
(157,748,l),
(161,668,o),
(220,620,o),
(293,620,cs)
);
}
);
width = 577;
}
);
note = ebreve;
unicode = 277;
},
{
glyphname = Edotaccent;
kernRight = E;
layers = (
{
hints = (
{
horizontal = 1;
place = (0, 93);
place = (0, 93);
type = Stem;
},
{
horizontal = 1;
place = (344, 85);
place = (344, 85);
type = Stem;
},
{
horizontal = 1;
place = (654, 90);
place = (654, 90);
type = Stem;
},
{
horizontal = 1;
place = (785, 108);
place = (785, 108);
type = Stem;
},
{
place = (77, 102);
place = (77, 102);
type = Stem;
},
{
place = (305, 97);
place = (305, 97);
type = Stem;
}
);
layerId = m01;
shapes = (
{
closed = 1;
nodes = (
(77,0,l),
(617,0,l),
(617,93,l),
(179,93,l),
(179,344,l),
(565,344,l),
(565,429,l),
(179,429,l),
(179,654,l),
(606,654,l),
(606,744,l),
(77,744,l)
);
},
{
closed = 1;
nodes = (
(305,785,l),
(402,785,l),
(402,893,l),
(305,893,l)
);
}
);
width = 666;
}
);
note = Edotaccent;
unicode = 278;
},
{
glyphname = edotaccent;
kernLeft = c;
kernRight = e;
layers = (
{
hints = (
{
horizontal = 1;
place = (-15, 76);
place = (-15, 76);
type = Stem;
},
{
horizontal = 1;
place = (246, 67);
place = (246, 67);
type = Stem;
},
{
horizontal = 1;
place = (478, 72);
place = (478, 72);
type = Stem;
},
{
horizontal = 1;
place = (636, 108);
place = (636, 108);
type = Stem;
},
{
place = (35, 97);
place = (35, 97);
type = Stem;
},
{
place = (245, 97);
place = (245, 97);
type = Stem;
},
{
place = (443, 99);
place = (443, 99);
type = Stem;
}
);
layerId = m01;
shapes = (
{
closed = 1;
nodes = (
(421,-15,o),
(507,53,o),
(531,153,c),
(440,153,l),
(423,96,o),
(373,61,o),
(298,61,cs),
(194,61,o),
(138,141,o),
(130,246,c),
(542,246,l),
(542,338,o),
(520,414,o),
(476,467,cs),
(433,519,o),
(372,550,o),
(292,550,cs),
(137,550,o),
(35,424,o),
(35,268,cs),
(35,111,o),
(132,-15,o),
(297,-15,cs)
);
},
{
closed = 1;
nodes = (
(385,478,o),
(438,417,o),
(443,313,c),
(132,313,l),
(143,408,o),
(196,478,o),
(292,478,cs)
);
},
{
closed = 1;
nodes = (
(245,636,l),
(342,636,l),
(342,744,l),
(245,744,l)
);
}
);
width = 577;
}
);
note = edotaccent;
unicode = 279;
},
{
glyphname = Eogonek;
kernRight = E;
layers = (
{
hints = (
{
horizontal = 1;
place = (-191, 67);
place = (-191, 67);
type = Stem;
},
{
horizontal = 1;
place = (0, 93);
place = (0, 93);
type = Stem;
},
{
horizontal = 1;
place = (344, 85);
place = (344, 85);
type = Stem;
},
{
horizontal = 1;
place = (654, 90);
place = (654, 90);
type = Stem;
},
{
place = (77, 102);
place = (77, 102);
type = Stem;
},
{
place = (412, 86);
place = (412, 86);
type = Stem;
}
);
layerId = m01;
shapes = (
{
closed = 1;
nodes = (
(77,0,l),
(492,0,l),
(456,-18,o),
(412,-54,o),
(412,-103,cs),
(412,-155,o),
(448,-191,o),
(524,-191,cs),
(553,-191,o),
(572,-186,o),
(585,-182,c),
(585,-117,l),
(582,-117,l),
(571,-121,o),
(556,-124,o),
(541,-124,cs),
(512,-124,o),
(498,-112,o),
(498,-89,cs),
(498,-60,o),
(526,-28,o),
(561,0,c),
(617,0,l),
(617,93,l),
(179,93,l),
(179,344,l),
(565,344,l),
(565,429,l),
(179,429,l),
(179,654,l),
(606,654,l),
(606,744,l),
(77,744,l)
);
}
);
width = 666;
}
);
note = Eogonek;
unicode = 280;
},
{
glyphname = eogonek;
kernLeft = c;
kernRight = e;
layers = (
{
hints = (
{
horizontal = 1;
place = (-191, 67);
place = (-191, 67);
type = Stem;
},
{
horizontal = 1;
place = (-15, 76);
place = (-15, 76);
type = Stem;
},
{
horizontal = 1;
place = (246, 67);
place = (246, 67);
type = Stem;
},
{
horizontal = 1;
place = (478, 72);
place = (478, 72);
type = Stem;
},
{
place = (35, 97);
place = (35, 97);
type = Stem;
},
{
place = (258, 86);
place = (258, 86);
type = Stem;
},
{
place = (443, 99);
place = (443, 99);
type = Stem;
}
);
layerId = m01;
shapes = (
{
closed = 1;
nodes = (
(399,-191,o),
(418,-186,o),
(431,-182,c),
(431,-117,l),
(428,-117,l),
(417,-121,o),
(402,-124,o),
(387,-124,cs),
(358,-124,o),
(344,-112,o),
(344,-89,cs),
(344,-58,o),
(373,-23,o),
(431,16,cs),
(460,35,o),
(513,75,o),
(531,153,c),
(440,153,l),
(423,96,o),
(373,61,o),
(298,61,cs),
(194,61,o),
(138,141,o),
(130,246,c),
(542,246,l),
(542,338,o),
(520,414,o),
(476,467,cs),
(433,519,o),
(372,550,o),
(292,550,cs),
(137,550,o),
(35,424,o),
(35,268,cs),
(35,111,o),
(132,-15,o),
(297,-15,cs),
(302,-15,o),
(308,-15,o),
(313,-14,c),
(284,-34,o),
(258,-64,o),
(258,-103,cs),
(258,-155,o),
(294,-191,o),
(370,-191,cs)
);
},
{
closed = 1;
nodes = (
(385,478,o),
(438,417,o),
(443,313,c),
(132,313,l),
(143,408,o),
(196,478,o),
(292,478,cs)
);
}
);
width = 577;
}
);
note = eogonek;
unicode = 281;
},
{
glyphname = Ecaron;
kernRight = E;
layers = (
{
hints = (
{
horizontal = 1;
place = (0, 93);
place = (0, 93);
type = Stem;
},
{
horizontal = 1;
place = (344, 85);
place = (344, 85);
type = Stem;
},
{
horizontal = 1;
place = (654, 90);
place = (654, 90);
type = Stem;
},
{
horizontal = 1;
place = (785, 113);
place = (785, 113);
type = Stem;
},
{
place = (77, 102);
place = (77, 102);
type = Stem;
}
);
layerId = m01;
shapes = (
{
closed = 1;
nodes = (
(77,0,l),
(617,0,l),
(617,93,l),
(179,93,l),
(179,344,l),
(565,344,l),
(565,429,l),
(179,429,l),
(179,654,l),
(606,654,l),
(606,744,l),
(77,744,l)
);
},
{
closed = 1;
nodes = (
(504,898,l),
(410,898,l),
(354,837,l),
(352,837,l),
(298,898,l),
(202,898,l),
(300,785,l),
(403,785,l)
);
}
);
width = 666;
}
);
note = Ecaron;
unicode = 282;
},
